<?xml version="1.0" encoding="utf-8"?>
<!-- Generator: Adobe Illustrator 18.1.0, SVG Export Plug-In . SVG Version: 6.00 Build 0)  -->
<svg version="1.1" xmlns="http://www.w3.org/2000/svg" xmlns:xlink="http://www.w3.org/1999/xlink" x="0px" y="0px"
	 viewBox="0 0 150.8 441.7" enable-background="new 0 0 150.8 441.7" xml:space="preserve">
<g id="Layer_1">
	<g>
		<path fill="#AFA189" d="M24.7,36l-8.5-14.7l13-7.5l8.5,14.7L24.7,36z M17.6,21.6l7.5,13l11.3-6.5l-7.5-13L17.6,21.6z"/>
		<path fill-rule="evenodd" clip-rule="evenodd" fill="#AFA189" d="M56.3,21.3l1.5,1.5l-1.5,1.5l-1.5-1.5L56.3,21.3z"/>
		<path fill-rule="evenodd" clip-rule="evenodd" fill="#AFA189" d="M60.3,25.3l1.5,1.5l-1.5,1.5l-1.5-1.5L60.3,25.3z"/>
		<path fill="#AFA189" d="M53,43L40.1,30.1l14.6-14.6l12.8,12.8L53,43z M41.5,30.1L53,41.5l13.2-13.1L54.7,17L41.5,30.1z"/>
		<path fill="#AFA189" d="M53,43L40.1,30.1l14.6-14.6l12.8,12.8L53,43z M41.5,30.1L53,41.5l13.2-13.1L54.7,17L41.5,30.1z"/>
		<path fill="#AFA189" d="M21,22.6l-3.5-6.1c-0.4-0.7-0.5-1.5-0.3-2.3s0.7-1.4,1.4-1.8l1.7-1c1.4-0.8,3.3-0.3,4.1,1.1l3.5,6.1
			l-1.7,1l-3.5-6.1c-0.3-0.5-0.9-0.6-1.4-0.4l-1.7,1c-0.5,0.3-0.6,0.9-0.4,1.4l3.5,6.1L21,22.6z"/>
		<path fill-rule="evenodd" clip-rule="evenodd" fill="#AFA189" d="M20.5,21.6l1.9-1.1l1.1,1.9l-1.9,1.1L20.5,21.6z"/>
		<path fill-rule="evenodd" clip-rule="evenodd" fill="#AFA189" d="M25.5,18.4l1.9-1.1l1.1,1.9l-1.9,1.1L25.5,18.4z"/>
		<path fill="#AFA189" d="M24.5,36.7l-9-15.6l13.9-8l9,15.6L24.5,36.7z M18.3,21.8l7,12.1l10.4-6l-7-12.1L18.3,21.8z"/>
		<path fill="#AFA189" d="M61.3,28.2l-1.4-1.4l5.9-5.7c0.3-0.2,0.4-0.6,0.4-0.9c0-0.3-0.1-0.7-0.4-0.9l-1.7-1.6
			c-0.5-0.5-1.4-0.5-2,0l-5.9,5.7l-1.4-1.4l5.9-5.7c1.3-1.3,3.4-1.3,4.8,0l1.7,1.6c0.6,0.6,1,1.5,1,2.3s-0.4,1.7-1,2.3L61.3,28.2z"
			/>
		<path fill-rule="evenodd" clip-rule="evenodd" fill="#AFA189" d="M55.8,20.8l1.5,1.5l-1.5,1.5l-1.5-1.5L55.8,20.8z"/>
		<path fill-rule="evenodd" clip-rule="evenodd" fill="#AFA189" d="M60.8,25.7l1.5,1.5l-1.5,1.5l-1.5-1.5L60.8,25.7z"/>
		<path fill="#AFA189" d="M53,43L40.1,30.1l14.6-14.6l12.8,12.8L53,43z M41.5,30.1L53,41.5l13.2-13.1L54.7,17L41.5,30.1z"/>
		<path fill="#AFA189" d="M53,43.7L39.4,30.1l15.3-15.3l13.6,13.5L53,43.7z M42.2,30.1L53,40.8l12.5-12.4L54.7,17.7L42.2,30.1z"/>
		<path fill="#AFA189" d="M44.4,76.3c-0.1,0-0.3,0-0.4-0.1L28,68.5c-0.3-0.2-0.6-0.5-0.6-0.9v-9.4c0-0.4,0.2-0.7,0.5-0.9
			c0.3-0.2,0.7-0.2,1,0L34,60l9.9-5.7c0.3-0.2,0.7-0.2,1,0c0.3,0.2,0.5,0.5,0.5,0.9v20.1c0,0.3-0.2,0.7-0.5,0.8
			C44.8,76.3,44.6,76.3,44.4,76.3z M29.4,67l13.9,6.8V56.9l-8.9,5.1c-0.3,0.2-0.7,0.2-1,0l-4.1-2.2V67z"/>
		<path fill="#AFA189" d="M44.4,76.3c-0.2,0-0.4-0.1-0.5-0.2c-0.3-0.2-0.5-0.5-0.5-0.8V55.2c0-0.4,0.2-0.7,0.5-0.9
			c0.3-0.2,0.7-0.2,1,0l9.3,5.7l5.7-2.8c0.3-0.2,0.7-0.1,1,0s0.5,0.5,0.5,0.8v9.5c0,0.4-0.2,0.7-0.6,0.9l-15.9,7.8
			C44.7,76.3,44.5,76.3,44.4,76.3z M45.4,57v16.8L59.3,67v-7.2l-4.7,2.3c-0.3,0.2-0.7,0.1-1,0L45.4,57z"/>
		<path fill="#AFA189" d="M28.4,49.2c-0.2,0-0.4,0-0.5-0.1l-9.2-5.5c-0.3-0.2-0.5-0.5-0.5-0.9c0-0.4,0.3-0.7,0.6-0.9L34,35.4
			c0.3-0.1,0.6-0.1,0.9,0l10.3,5.5c0.3,0.2,0.5,0.6,0.5,0.9c0,0.4-0.3,0.7-0.6,0.9l-16.2,6.4C28.7,49.2,28.6,49.2,28.4,49.2z
			 M21.4,42.9l7.1,4.2l13.8-5.4l-8-4.3L21.4,42.9z"/>
		<path fill="#AFA189" d="M34,62.2c-0.2,0-0.3,0-0.5-0.1l-14.4-7.8c-0.3-0.2-0.5-0.5-0.5-0.9c0-0.4,0.2-0.7,0.5-0.9l8.8-5.2
			c0.3-0.2,0.6-0.2,0.9-0.1l15.8,6.9c0.3,0.2,0.6,0.5,0.6,0.9c0,0.4-0.2,0.7-0.5,0.9l-10.2,6C34.4,62.1,34.2,62.2,34,62.2z
			 M21.7,53.3L34,60l8-4.8l-13.5-5.9L21.7,53.3z"/>
		<path fill="#AFA189" d="M60.3,49.2c-0.1,0-0.3,0-0.4-0.1l-15.6-6.4c-0.4-0.1-0.6-0.5-0.6-0.9c0-0.4,0.2-0.7,0.5-0.9l5-2.8
			c0.4-0.2,0.9-0.1,1.2,0.2l2.5,2.5l3.9-3.9c0.3-0.3,0.8-0.4,1.1-0.2l11.2,5.3c0.3,0.2,0.5,0.5,0.6,0.8c0,0.4-0.2,0.7-0.5,0.9
			l-8.4,5.2C60.7,49.2,60.5,49.2,60.3,49.2z M47,41.7l13.2,5.4l6.4-4l-8.9-4.2L53.7,43c-0.4,0.4-1,0.4-1.4,0l-2.7-2.7L47,41.7z"/>
		<path fill="#AFA189" d="M54.2,62.2c-0.2,0-0.4,0-0.5-0.1l-9.8-6c-0.3-0.2-0.5-0.6-0.5-0.9c0-0.4,0.3-0.7,0.6-0.8l15.9-6.7
			c0.3-0.1,0.7-0.1,1,0.1l8.1,5.6c0.3,0.2,0.5,0.5,0.4,0.9c0,0.4-0.2,0.7-0.6,0.8l-14.3,7.1C54.5,62.2,54.3,62.2,54.2,62.2z
			 M46.6,55.4l7.6,4.7L66.5,54l-6.3-4.3L46.6,55.4z"/>
		<g>
			<polygon fill="#AFA189" points="60.3,48.2 44.4,55.2 28.4,48.2 44.7,41.8 			"/>
			<path fill="#AFA189" d="M44.4,55.7c-0.1,0-0.1,0-0.2,0l-15.9-7c-0.2-0.1-0.3-0.3-0.3-0.5s0.1-0.4,0.3-0.5l16.2-6.4
				c0.1,0,0.3,0,0.4,0l15.6,6.4c0.2,0.1,0.3,0.3,0.3,0.5c0,0.2-0.1,0.4-0.3,0.5l-15.9,7C44.5,55.7,44.5,55.7,44.4,55.7z M29.8,48.2
				l14.6,6.4L59,48.2l-14.4-5.9L29.8,48.2z"/>
		</g>
	</g>
	<g>
		<path fill="#AFA189" d="M42.8,157c-0.1,0-0.3,0-0.4-0.1l-15.9-7.8c-0.3-0.2-0.6-0.5-0.6-0.9v-9.4c0-0.4,0.2-0.7,0.5-0.9
			c0.3-0.2,0.7-0.2,1,0l5.1,2.8l9.9-5.7c0.3-0.2,0.7-0.2,1,0c0.3,0.2,0.5,0.5,0.5,0.9V156c0,0.3-0.2,0.7-0.5,0.8
			C43.1,156.9,43,157,42.8,157z M27.8,147.6l13.9,6.8v-16.8l-8.9,5.1c-0.3,0.2-0.7,0.2-1,0l-4.1-2.2V147.6z"/>
		<path fill="#AFA189" d="M42.8,157c-0.2,0-0.4-0.1-0.5-0.2c-0.3-0.2-0.5-0.5-0.5-0.8v-20.1c0-0.4,0.2-0.7,0.5-0.9
			c0.3-0.2,0.7-0.2,1,0l9.3,5.7l5.7-2.8c0.3-0.2,0.7-0.1,1,0c0.3,0.2,0.5,0.5,0.5,0.8v9.5c0,0.4-0.2,0.7-0.6,0.9l-15.9,7.8
			C43.1,156.9,42.9,157,42.8,157z M43.8,137.6v16.8l13.9-6.8v-7.2l-4.7,2.3c-0.3,0.2-0.7,0.1-1,0L43.8,137.6z"/>
		<path fill="#AFA189" d="M26.8,129.8c-0.2,0-0.4,0-0.5-0.1l-9.2-5.5c-0.3-0.2-0.5-0.6-0.5-0.9c0-0.4,0.3-0.7,0.6-0.9l15.2-6.4
			c0.3-0.1,0.6-0.1,0.9,0l10.3,5.5c0.3,0.2,0.5,0.6,0.5,0.9c0,0.4-0.3,0.7-0.6,0.9l-16.2,6.4C27.1,129.8,27,129.8,26.8,129.8z
			 M19.8,123.5l7.1,4.2l13.8-5.4l-8-4.3L19.8,123.5z"/>
		<path fill="#AFA189" d="M32.4,142.8c-0.2,0-0.3,0-0.5-0.1l-14.4-7.8c-0.3-0.2-0.5-0.5-0.5-0.9c0-0.4,0.2-0.7,0.5-0.9l8.8-5.2
			c0.3-0.2,0.6-0.2,0.9-0.1l15.8,6.9c0.3,0.2,0.6,0.5,0.6,0.9c0,0.4-0.2,0.7-0.5,0.9l-10.2,6C32.8,142.8,32.6,142.8,32.4,142.8z
			 M20.1,133.9l12.3,6.7l8-4.8l-13.5-5.9L20.1,133.9z"/>
		<path fill="#AFA189" d="M52.5,142.8c-0.2,0-0.4,0-0.5-0.1l-9.8-6c-0.3-0.2-0.5-0.6-0.5-0.9c0-0.4,0.3-0.7,0.6-0.8l15.9-6.7
			c0.3-0.1,0.7-0.1,1,0.1l8.1,5.6c0.3,0.2,0.5,0.5,0.4,0.9c0,0.4-0.2,0.7-0.6,0.8L53,142.7C52.8,142.8,52.7,142.8,52.5,142.8z
			 M45,136l7.6,4.7l12.3-6.1l-6.3-4.3L45,136z"/>
		<g>
			<polygon fill="#AFA189" points="58.7,128.8 42.8,135.8 26.8,128.8 43.1,122.4 			"/>
			<path fill="#AFA189" d="M42.8,136.3c-0.1,0-0.1,0-0.2,0l-15.9-7c-0.2-0.1-0.3-0.3-0.3-0.5s0.1-0.4,0.3-0.5l16.2-6.4
				c0.1,0,0.3,0,0.4,0l15.6,6.4c0.2,0.1,0.3,0.3,0.3,0.5c0,0.2-0.1,0.4-0.3,0.5l-15.9,7C42.9,136.3,42.8,136.3,42.8,136.3z
				 M28.1,128.8l14.6,6.4l14.7-6.4L43.1,123L28.1,128.8z"/>
		</g>
		<path fill="#AFA189" d="M31.8,113.1c-0.2,0-0.3,0-0.5-0.1l-16-8.8c-0.5-0.3-0.7-0.9-0.4-1.3l6-11.2c0.3-0.5,0.8-0.7,1.3-0.4l16,8
			c0.3,0.2,0.6,0.5,0.6,0.9v8c0,0.3-0.2,0.6-0.4,0.8l-6,4C32.2,113.1,32,113.1,31.8,113.1z M17.2,102.9l14.6,8l5-3.4v-6.8l-14.6-7.3
			L17.2,102.9z"/>
		<path fill="#AFA189" d="M53.8,125.1c-0.2,0-0.4-0.1-0.6-0.2l-6-4c-0.3-0.2-0.4-0.5-0.4-0.8v-8c0-0.4,0.2-0.7,0.6-0.9l16-8
			c0.5-0.2,1.1-0.1,1.3,0.4l6,11.2c0.3,0.5,0.1,1.1-0.4,1.3l-16,8.8C54.2,125.1,54,125.1,53.8,125.1z M48.8,119.6l5,3.4l14.6-8
			l-5.1-9.5l-14.6,7.3V119.6z"/>
		<path fill="#AFA189" d="M31.8,113.1c-0.2,0-0.3,0-0.5-0.1l-16-8.8c-0.5-0.3-0.7-0.9-0.4-1.3l6-11.2c0.3-0.5,0.8-0.7,1.3-0.4l16,8
			c0.3,0.2,0.6,0.5,0.6,0.9v8c0,0.3-0.2,0.6-0.4,0.8l-6,4C32.2,113.1,32,113.1,31.8,113.1z M17.2,102.9l14.6,8l5-3.4v-6.8l-14.6-7.3
			L17.2,102.9z"/>
		<path fill="#AFA189" d="M53.8,125.1c-0.2,0-0.4-0.1-0.6-0.2l-6-4c-0.3-0.2-0.4-0.5-0.4-0.8v-8c0-0.4,0.2-0.7,0.6-0.9l16-8
			c0.5-0.2,1.1-0.1,1.3,0.4l6,11.2c0.3,0.5,0.1,1.1-0.4,1.3l-16,8.8C54.2,125.1,54,125.1,53.8,125.1z M48.8,119.6l5,3.4l14.6-8
			l-5.1-9.5l-14.6,7.3V119.6z"/>
		<g>
			<path fill="#AFA189" d="M24,98.7c0.1-0.3,0.3-0.6,0.6-0.8c0.2-0.2,0.5-0.3,0.9-0.4s0.7,0,1,0.2c0.5,0.2,0.9,0.6,1.1,1
				c0.2,0.4,0.1,0.9-0.1,1.4c-0.2,0.5-0.6,0.9-1,1c-0.4,0.2-0.9,0.1-1.5-0.1c-0.4-0.2-0.6-0.4-0.9-0.6c-0.2-0.3-0.3-0.6-0.3-0.9
				C23.8,99.3,23.9,99,24,98.7z M25.2,99.2c-0.2,0.4-0.2,0.6-0.2,0.9c0,0.1,0.1,0.2,0.3,0.3c0.1,0.1,0.3,0.1,0.4,0
				c0.2-0.1,0.4-0.3,0.5-0.7c0.2-0.4,0.2-0.6,0.2-0.9c0-0.1-0.1-0.2-0.3-0.3c-0.1-0.1-0.3-0.1-0.4,0C25.6,98.6,25.4,98.9,25.2,99.2z
				 M30.2,99.4l0.9,0.4l-6.8,5.2l-0.9-0.4L30.2,99.4z M27.1,104.2c0.1-0.3,0.3-0.6,0.6-0.8c0.2-0.2,0.5-0.3,0.9-0.4
				c0.3,0,0.7,0,1,0.2c0.5,0.2,0.9,0.6,1.1,1c0.2,0.4,0.1,0.9-0.1,1.4c-0.2,0.5-0.6,0.8-1,1c-0.4,0.2-0.9,0.1-1.5-0.1
				c-0.4-0.2-0.6-0.4-0.8-0.6c-0.2-0.3-0.3-0.6-0.3-0.9C26.9,104.8,26.9,104.5,27.1,104.2z M28.3,104.8c-0.2,0.4-0.2,0.6-0.2,0.9
				c0,0.1,0.1,0.2,0.3,0.3c0.1,0.1,0.3,0.1,0.4,0c0.2-0.1,0.4-0.3,0.5-0.7c0.2-0.4,0.2-0.7,0.2-0.9c0-0.1-0.1-0.2-0.3-0.3
				c-0.1-0.1-0.3-0.1-0.4,0C28.6,104.2,28.5,104.4,28.3,104.8z"/>
		</g>
		<g>
			<path fill="#AFA189" d="M54.6,112.5c-0.1-0.3,0-0.6,0.1-1c0.1-0.3,0.3-0.6,0.5-0.8c0.3-0.2,0.6-0.3,1-0.4c0.6-0.1,1.1,0,1.5,0.3
				c0.4,0.3,0.6,0.7,0.7,1.2c0.1,0.6,0,1-0.3,1.4c-0.3,0.4-0.7,0.6-1.3,0.7c-0.4,0.1-0.7,0-1.1-0.1c-0.3-0.1-0.6-0.3-0.8-0.6
				C54.8,113.1,54.6,112.8,54.6,112.5z M55.9,112.2c0.1,0.4,0.2,0.7,0.3,0.8c0.1,0.1,0.2,0.1,0.4,0.1c0.2,0,0.3-0.1,0.3-0.2
				c0.1-0.2,0.1-0.5,0-0.9c-0.1-0.4-0.2-0.7-0.3-0.8c-0.1-0.1-0.2-0.1-0.4-0.1c-0.2,0-0.3,0.1-0.3,0.2
				C55.9,111.6,55.8,111.8,55.9,112.2z M60.1,109.6l1-0.2l-2.7,8.1l-1,0.2L60.1,109.6z M60.2,115.3c-0.1-0.3,0-0.6,0-1
				c0.1-0.3,0.3-0.6,0.5-0.8c0.3-0.2,0.6-0.3,1-0.4c0.6-0.1,1.1,0,1.5,0.3c0.4,0.3,0.6,0.7,0.7,1.2c0.1,0.5,0,1-0.3,1.4
				c-0.3,0.4-0.7,0.6-1.3,0.7c-0.4,0.1-0.7,0-1.1-0.1c-0.3-0.1-0.6-0.3-0.8-0.6C60.4,116,60.3,115.7,60.2,115.3z M61.5,115.1
				c0.1,0.4,0.2,0.7,0.3,0.8c0.1,0.1,0.2,0.1,0.4,0.1c0.2,0,0.3-0.1,0.3-0.2c0.1-0.2,0.1-0.5,0-0.9c-0.1-0.4-0.2-0.7-0.3-0.8
				c-0.1-0.1-0.2-0.1-0.4-0.1c-0.2,0-0.3,0.1-0.3,0.2C61.5,114.4,61.5,114.7,61.5,115.1z"/>
		</g>
		<g>
			<path fill="#AFA189" d="M37.8,108.8c-0.2-0.2-0.3-0.3-0.3-0.3l0.7-0.7c0,0,0.1,0.1,0.4,0.4L37.8,108.8z"/>
			<path fill="#AFA189" d="M42.4,121c0-0.3-0.1-0.6-0.1-1l1-0.1c0.1,0.4,0.1,0.7,0.1,1L42.4,121z M42.1,119.1
				c-0.1-0.3-0.1-0.6-0.2-0.9l1-0.2c0.1,0.3,0.1,0.7,0.2,1L42.1,119.1z M41.8,117.2c-0.1-0.3-0.1-0.6-0.2-0.9l1-0.2
				c0.1,0.3,0.1,0.6,0.2,1L41.8,117.2z M41.3,115.4l-0.1-0.4c0-0.2-0.1-0.3-0.1-0.5l1-0.3c0.1,0.2,0.1,0.4,0.2,0.5l0.1,0.4
				L41.3,115.4z M40.8,113.6c-0.1-0.3-0.2-0.6-0.4-0.9l0.9-0.4c0.1,0.3,0.3,0.6,0.4,0.9L40.8,113.6z M40,111.9
				c-0.2-0.3-0.3-0.6-0.5-0.8l0.8-0.5c0.2,0.3,0.3,0.6,0.5,0.9L40,111.9z M39,110.3c-0.2-0.3-0.4-0.5-0.6-0.8l0.8-0.6
				c0.2,0.2,0.4,0.5,0.6,0.8L39,110.3z"/>
			<path fill="#AFA189" d="M42.6,122.5l-0.1-0.5l1-0.1c0,0.3,0.1,0.5,0.1,0.5L42.6,122.5z"/>
		</g>
		<path fill="#AFA189" d="M58.7,129.8c-0.1,0-0.3,0-0.4-0.1l-15.6-6.4c-0.4-0.1-0.6-0.5-0.6-0.9c0-0.4,0.2-0.7,0.5-0.9l4.7-2.6
			c0.3-0.2,0.8-0.2,1.1,0.1l5.5,4l6.1-3.4c0.3-0.2,0.6-0.2,0.9,0l6.7,3.2c0.3,0.2,0.5,0.5,0.6,0.8c0,0.4-0.2,0.7-0.5,0.9l-8.4,5.2
			C59.1,129.8,58.9,129.8,58.7,129.8z M45.4,122.3l13.2,5.4l6.4-4l-4.5-2.2l-6.2,3.4c-0.3,0.2-0.8,0.2-1.1-0.1l-5.5-4L45.4,122.3z"
			/>
	</g>
	<g>
		<path fill="#AFA189" d="M43.2,219.7c-0.1,0-0.3,0-0.4-0.1l-15.9-7.8c-0.3-0.2-0.6-0.5-0.6-0.9v-9.4c0-0.4,0.2-0.7,0.5-0.9
			c0.3-0.2,0.7-0.2,1,0l5.1,2.8l9.9-5.7c0.3-0.2,0.7-0.2,1,0c0.3,0.2,0.5,0.5,0.5,0.9v20.1c0,0.3-0.2,0.7-0.5,0.8
			C43.6,219.6,43.4,219.7,43.2,219.7z M28.3,210.3l13.9,6.8v-16.8l-8.9,5.1c-0.3,0.2-0.7,0.2-1,0l-4.1-2.2V210.3z"/>
		<path fill="#AFA189" d="M43.2,219.7c-0.2,0-0.4-0.1-0.5-0.2c-0.3-0.2-0.5-0.5-0.5-0.8v-20.1c0-0.4,0.2-0.7,0.5-0.9
			c0.3-0.2,0.7-0.2,1,0l9.3,5.7l5.7-2.8c0.3-0.2,0.7-0.1,1,0c0.3,0.2,0.5,0.5,0.5,0.8v9.5c0,0.4-0.2,0.7-0.6,0.9l-15.9,7.8
			C43.5,219.6,43.4,219.7,43.2,219.7z M44.2,200.3v16.8l13.9-6.8V203l-4.7,2.3c-0.3,0.2-0.7,0.1-1,0L44.2,200.3z"/>
		<path fill="#AFA189" d="M32.9,205.5c-0.2,0-0.3,0-0.5-0.1L18,197.5c-0.3-0.2-0.5-0.5-0.5-0.9c0-0.4,0.2-0.7,0.5-0.9l8.8-5.2
			c0.3-0.2,0.6-0.2,0.9-0.1l15.8,6.9c0.3,0.2,0.6,0.5,0.6,0.9c0,0.4-0.2,0.7-0.5,0.9l-10.2,6C33.2,205.4,33,205.5,32.9,205.5z
			 M20.5,196.6l12.3,6.7l8-4.8l-13.5-5.9L20.5,196.6z"/>
		<path fill="#AFA189" d="M53,205.5c-0.2,0-0.4,0-0.5-0.1l-9.8-6c-0.3-0.2-0.5-0.6-0.5-0.9c0-0.4,0.3-0.7,0.6-0.8l15.9-6.7
			c0.3-0.1,0.7-0.1,1,0.1l8.1,5.6c0.3,0.2,0.5,0.5,0.4,0.9c0,0.4-0.2,0.7-0.6,0.8l-14.3,7.1C53.3,205.5,53.1,205.5,53,205.5z
			 M45.4,198.7l7.6,4.7l12.3-6.1L59,193L45.4,198.7z"/>
		<path fill-rule="evenodd" clip-rule="evenodd" fill="#AFA189" d="M47.5,178.5l6.2-6.2c0.8-0.8,2-0.8,2.7,0c0.8,0.8,0.8,2,0,2.7
			l-6.2,6.2c-0.8,0.8-2,0.8-2.7,0C46.8,180.4,46.8,179.2,47.5,178.5z"/>
		<g>
			<path fill-rule="evenodd" clip-rule="evenodd" fill="none" d="M43,177.8c4.4,0,8,3.6,8,8c0,4.4-3.6,8-8,8c-4.4,0-8-3.6-8-8
				C35,181.3,38.6,177.8,43,177.8z"/>
			<path fill="#AFA189" d="M43,179.8c3.3,0,6,2.7,6,6s-2.7,6-6,6c-3.3,0-6-2.7-6-6S39.7,179.8,43,179.8 M43,177.8c-4.4,0-8,3.6-8,8
				c0,4.4,3.6,8,8,8c4.4,0,8-3.6,8-8C51,181.3,47.4,177.8,43,177.8L43,177.8z"/>
		</g>
		<path fill="#AFA189" d="M54,178.8l14,6.6c0.3,0.2,0.5,0.5,0.6,0.8c0,0.4-0.2,0.7-0.5,0.9l-8.4,5.2c-0.2,0.1-0.3,0.1-0.5,0.1
			c-0.1,0-0.3,0-0.4-0.1l-7.5-3.1c0.3-0.6,0.5-1.3,0.6-1.9l7.2,2.9l6.4-4l-12.9-6.1L54,178.8z"/>
		<path fill="#AFA189" d="M34.2,187.7l-6.8,2.7l-7.1-4.2l12.9-5.5l2.7,1.4c0.3-0.6,0.7-1.2,1.1-1.7l-3.3-1.8c-0.3-0.1-0.6-0.2-0.9,0
			l-15.2,6.4c-0.3,0.1-0.6,0.5-0.6,0.9c0,0.4,0.2,0.7,0.5,0.9l9.2,5.5c0.2,0.1,0.3,0.1,0.5,0.1c0.1,0,0.2,0,0.4-0.1l7.2-2.8
			C34.6,189,34.3,188.4,34.2,187.7z"/>
		<g>
			<path fill="#AFA189" d="M52.1,188.6c-1.2,3.9-4.8,6.7-9.1,6.7c-4.2,0-7.7-2.7-9-6.4l-6.7,2.7l15.9,7l15.9-7L52.1,188.6z"/>
			<path fill="#AFA189" d="M43.2,199c-0.1,0-0.1,0-0.2,0l-15.9-7c-0.2-0.1-0.3-0.3-0.3-0.5s0.1-0.4,0.3-0.5l6.7-2.7
				c0.1,0,0.3,0,0.4,0c0.1,0.1,0.2,0.2,0.3,0.3c1.3,3.6,4.7,6.1,8.5,6.1c3.9,0,7.4-2.5,8.6-6.3c0-0.1,0.1-0.2,0.3-0.3
				c0.1-0.1,0.3-0.1,0.4,0l7.1,2.9c0.2,0.1,0.3,0.3,0.3,0.5c0,0.2-0.1,0.4-0.3,0.5l-15.9,7C43.4,199,43.3,199,43.2,199z M28.6,191.5
				l14.6,6.4l14.7-6.4l-5.5-2.3c-1.5,3.9-5.2,6.5-9.4,6.5c-4.1,0-7.7-2.5-9.3-6.3L28.6,191.5z"/>
		</g>
	</g>
	<g>
		<path fill="#AFA189" d="M43.2,297.4c-0.1,0-0.3,0-0.4-0.1l-15.9-7.8c-0.3-0.2-0.6-0.5-0.6-0.9v-9.4c0-0.4,0.2-0.7,0.5-0.9
			c0.3-0.2,0.7-0.2,1,0l5.1,2.8l9.9-5.7c0.3-0.2,0.7-0.2,1,0c0.3,0.2,0.5,0.5,0.5,0.9v20.1c0,0.3-0.2,0.7-0.5,0.8
			C43.6,297.4,43.4,297.4,43.2,297.4z M28.3,288.1l13.9,6.8V278l-8.9,5.1c-0.3,0.2-0.7,0.2-1,0l-4.1-2.2V288.1z"/>
		<path fill="#AFA189" d="M43.2,297.4c-0.2,0-0.4-0.1-0.5-0.2c-0.3-0.2-0.5-0.5-0.5-0.8v-20.1c0-0.4,0.2-0.7,0.5-0.9
			c0.3-0.2,0.7-0.2,1,0l9.3,5.7l5.7-2.8c0.3-0.2,0.7-0.1,1,0c0.3,0.2,0.5,0.5,0.5,0.8v9.5c0,0.4-0.2,0.7-0.6,0.9l-15.9,7.8
			C43.5,297.4,43.4,297.4,43.2,297.4z M44.2,278.1v16.8l13.9-6.8v-7.2l-4.7,2.3c-0.3,0.2-0.7,0.1-1,0L44.2,278.1z"/>
		<path fill="#AFA189" d="M27.3,270.3c-0.2,0-0.4,0-0.5-0.1l-9.2-5.5c-0.3-0.2-0.5-0.6-0.5-0.9c0-0.4,0.3-0.7,0.6-0.9l15.2-6.4
			c0.3-0.1,0.6-0.1,0.9,0L44,262c0.3,0.2,0.5,0.6,0.5,0.9c0,0.4-0.3,0.7-0.6,0.9l-16.2,6.4C27.5,270.3,27.4,270.3,27.3,270.3z
			 M20.3,264l7.1,4.2l13.8-5.4l-8-4.3L20.3,264z"/>
		<path fill="#AFA189" d="M32.9,283.3c-0.2,0-0.3,0-0.5-0.1L18,275.3c-0.3-0.2-0.5-0.5-0.5-0.9c0-0.4,0.2-0.7,0.5-0.9l8.8-5.2
			c0.3-0.2,0.6-0.2,0.9-0.1l15.8,6.9c0.3,0.2,0.6,0.5,0.6,0.9c0,0.4-0.2,0.7-0.5,0.9l-10.2,6C33.2,283.2,33,283.3,32.9,283.3z
			 M20.5,274.4l12.3,6.7l8-4.8l-13.5-5.9L20.5,274.4z"/>
		<path fill="#AFA189" d="M59.2,270.3c-0.1,0-0.3,0-0.4-0.1l-15.6-6.4c-0.4-0.1-0.6-0.5-0.6-0.9c0-0.4,0.2-0.7,0.5-0.9l9.9-5.5
			c0.3-0.2,0.6-0.2,0.9,0l14.1,6.7c0.3,0.2,0.5,0.5,0.6,0.8c0,0.4-0.2,0.7-0.5,0.9l-8.4,5.2C59.5,270.2,59.3,270.3,59.2,270.3z
			 M45.8,262.8l13.2,5.4l6.4-4l-12-5.7L45.8,262.8z"/>
		<path fill="#AFA189" d="M53,283.3c-0.2,0-0.4,0-0.5-0.1l-9.8-6c-0.3-0.2-0.5-0.6-0.5-0.9c0-0.4,0.3-0.7,0.6-0.8l15.9-6.7
			c0.3-0.1,0.7-0.1,1,0.1l8.1,5.6c0.3,0.2,0.5,0.5,0.4,0.9c0,0.4-0.2,0.7-0.6,0.8l-14.3,7.1C53.3,283.2,53.1,283.3,53,283.3z
			 M45.4,276.5l7.6,4.7l12.3-6.1l-6.3-4.3L45.4,276.5z"/>
		<g>
			<polygon fill="#AFA189" points="59.2,269.3 43.2,276.3 27.3,269.3 43.5,262.9 			"/>
			<path fill="#AFA189" d="M43.2,276.8c-0.1,0-0.1,0-0.2,0l-15.9-7c-0.2-0.1-0.3-0.3-0.3-0.5s0.1-0.4,0.3-0.5l16.2-6.4
				c0.1,0,0.3,0,0.4,0l15.6,6.4c0.2,0.1,0.3,0.3,0.3,0.5c0,0.2-0.1,0.4-0.3,0.5l-15.9,7C43.4,276.8,43.3,276.8,43.2,276.8z
				 M28.6,269.3l14.6,6.4l14.7-6.4l-14.4-5.9L28.6,269.3z"/>
		</g>
		<path fill="#AFA189" d="M46.7,236.4c6.1,0,10.5,3.4,10.5,8c0,4.4-3.9,7.6-9.6,8l-0.7,0l-0.5,0.4c-0.4,0.4-0.9,0.8-1.3,1.2v-1.6
			l-1.6-0.3c-4.9-1-8.4-4.1-8.4-7.7C35.2,240,40.3,236.4,46.7,236.4 M46.7,234.4c-7.5,0-13.5,4.5-13.5,10c0,4.6,4.2,8.5,10,9.6v5.4
			c0,0,2.4-3.3,4.6-5c6.9-0.4,11.4-4.7,11.4-10C59.2,238.9,54.1,234.4,46.7,234.4L46.7,234.4z"/>
		<circle fill-rule="evenodd" clip-rule="evenodd" fill="#AFA189" cx="40.2" cy="244.4" r="2"/>
		<circle fill-rule="evenodd" clip-rule="evenodd" fill="#AFA189" cx="46.2" cy="244.4" r="2"/>
		<circle fill-rule="evenodd" clip-rule="evenodd" fill="#AFA189" cx="52.2" cy="244.4" r="2"/>
	</g>
	<g>
		<path fill="#AFA189" d="M43.2,361.4c-0.1,0-0.3,0-0.4-0.1l-15.9-7.8c-0.3-0.2-0.6-0.5-0.6-0.9v-9.4c0-0.4,0.2-0.7,0.5-0.9
			c0.3-0.2,0.7-0.2,1,0l5.1,2.8l9.9-5.7c0.3-0.2,0.7-0.2,1,0c0.3,0.2,0.5,0.5,0.5,0.9v20.1c0,0.3-0.2,0.7-0.5,0.8
			C43.6,361.3,43.4,361.4,43.2,361.4z M28.3,352l13.9,6.8V342l-8.9,5.1c-0.3,0.2-0.7,0.2-1,0l-4.1-2.2V352z"/>
		<path fill="#AFA189" d="M43.2,361.4c-0.2,0-0.4-0.1-0.5-0.2c-0.3-0.2-0.5-0.5-0.5-0.8v-20.1c0-0.4,0.2-0.7,0.5-0.9
			c0.3-0.2,0.7-0.2,1,0l9.3,5.7l5.7-2.8c0.3-0.2,0.7-0.1,1,0c0.3,0.2,0.5,0.5,0.5,0.8v9.5c0,0.4-0.2,0.7-0.6,0.9l-15.9,7.8
			C43.5,361.3,43.4,361.4,43.2,361.4z M44.2,342v16.8l13.9-6.8v-7.2l-4.7,2.3c-0.3,0.2-0.7,0.1-1,0L44.2,342z"/>
		<path fill="#AFA189" d="M30.6,331.8v-1l-3.2,1.2l-7.1-4.2l10.3-4.4v-2.2l-12.9,5.5c-0.3,0.1-0.6,0.5-0.6,0.9
			c0,0.4,0.2,0.7,0.5,0.9l9.2,5.5c0.2,0.1,0.3,0.1,0.5,0.1c0.1,0,0.2,0,0.4-0.1l4-1.6C31,332.2,30.6,331.9,30.6,331.8z"/>
		<path fill="#AFA189" d="M32.9,347.2c-0.2,0-0.3,0-0.5-0.1L18,339.2c-0.3-0.2-0.5-0.5-0.5-0.9c0-0.4,0.2-0.7,0.5-0.9l8.8-5.2
			c0.3-0.2,0.6-0.2,0.9-0.1l15.8,6.9c0.3,0.2,0.6,0.5,0.6,0.9c0,0.4-0.2,0.7-0.5,0.9l-10.2,6C33.2,347.2,33,347.2,32.9,347.2z
			 M20.5,338.3l12.3,6.7l8-4.8l-13.5-5.9L20.5,338.3z"/>
		<path fill="#AFA189" d="M53,347.2c-0.2,0-0.4,0-0.5-0.1l-9.8-6c-0.3-0.2-0.5-0.6-0.5-0.9c0-0.4,0.3-0.7,0.6-0.8l15.9-6.7
			c0.3-0.1,0.7-0.1,1,0.1l8.1,5.6c0.3,0.2,0.5,0.5,0.4,0.9c0,0.4-0.2,0.7-0.6,0.8l-14.3,7.1C53.3,347.2,53.1,347.2,53,347.2z
			 M45.4,340.4l7.6,4.7l12.3-6.1l-6.3-4.3L45.4,340.4z"/>
		<path fill-rule="evenodd" clip-rule="evenodd" fill="#AFA189" d="M37.6,319.2h11c0.6,0,1,0.4,1,1c0,0.6-0.4,1-1,1h-11
			c-0.6,0-1-0.4-1-1C36.6,319.7,37,319.2,37.6,319.2z"/>
		<path fill-rule="evenodd" clip-rule="evenodd" fill="#AFA189" d="M37.6,324.2h11c0.6,0,1,0.4,1,1c0,0.6-0.4,1-1,1h-11
			c-0.6,0-1-0.4-1-1C36.6,324.7,37,324.2,37.6,324.2z"/>
		<path fill-rule="evenodd" clip-rule="evenodd" fill="#AFA189" d="M37.6,329.2h11c0.6,0,1,0.4,1,1c0,0.6-0.4,1-1,1h-11
			c-0.6,0-1-0.4-1-1C36.6,329.7,37,329.2,37.6,329.2z"/>
		<path fill="#AFA189" d="M33.6,319.2h-4v-2h4c0.6,0,1-0.4,1-1v-3h2v3C36.6,317.9,35.2,319.2,33.6,319.2z"/>
		<path fill="#AFA189" d="M68,327.1l-12.5-5.9v2.2l9.9,4.7l-6.4,4l-3.5-1.4v1.2c0,0.1-0.4,0.3-1,0.6l4.2,1.7c0.1,0,0.3,0.1,0.4,0.1
			c0.2,0,0.4-0.1,0.5-0.1l8.4-5.2c0.3-0.2,0.5-0.5,0.5-0.9C68.6,327.6,68.3,327.3,68,327.1z"/>
		<path fill="#AFA189" d="M42.6,341.2c-0.3,0-1,0-6.9-2.9c-6.1-3.1-6.1-3.4-6.1-4.1v-19c0-1.7,1.3-3,3-3h21c1.7,0,3,1.3,3,3v19
			c0,0.7,0,0.9-6.7,4C43.6,341.2,42.8,341.2,42.6,341.2z M31.6,333.8c1.7,1.1,9.6,5.1,11,5.4c1.4-0.3,10.1-4.4,12-5.5v-18.5
			c0-0.6-0.4-1-1-1h-21c-0.6,0-1,0.4-1,1V333.8z"/>
	</g>
</g>
<g id="Layer_2">
	<g>
		<g>
			<path fill-rule="evenodd" clip-rule="evenodd" fill="#FFFFFF" d="M88.7,21.5l12.1-7l8,13.9l-12.1,7L88.7,21.5z"/>
			<path fill="#34AFD8" d="M96.4,36.7l-9-15.6l13.9-8l9,15.6L96.4,36.7z M90.1,21.8l7,12.1l10.4-6l-7-12.1L90.1,21.8z"/>
		</g>
		<g>
			<polygon fill="#FFFFFF" points="116.2,75.3 100.3,67.6 100.3,58.1 105.9,61.2 116.2,55.2 			"/>
			<path fill="#34AFD8" d="M116.2,76.3c-0.1,0-0.3,0-0.4-0.1l-15.9-7.8c-0.3-0.2-0.6-0.5-0.6-0.9v-9.4c0-0.4,0.2-0.7,0.5-0.9
				c0.3-0.2,0.7-0.2,1,0l5.1,2.8l9.9-5.7c0.3-0.2,0.7-0.2,1,0c0.3,0.2,0.5,0.5,0.5,0.9v20.1c0,0.3-0.2,0.7-0.5,0.8
				C116.6,76.3,116.4,76.3,116.2,76.3z M101.3,67l13.9,6.8V56.9l-8.9,5.1c-0.3,0.2-0.7,0.2-1,0l-4.1-2.2V67z"/>
		</g>
		<g>
			<polygon fill="#FFFFFF" points="116.2,75.3 132.2,67.6 132.2,58.1 126,61.2 116.2,55.2 			"/>
			<path fill="#34AFD8" d="M116.2,76.3c-0.2,0-0.4-0.1-0.5-0.2c-0.3-0.2-0.5-0.5-0.5-0.8V55.2c0-0.4,0.2-0.7,0.5-0.9
				c0.3-0.2,0.7-0.2,1,0L126,60l5.7-2.8c0.3-0.2,0.7-0.1,1,0s0.5,0.5,0.5,0.8v9.5c0,0.4-0.2,0.7-0.6,0.9l-15.9,7.8
				C116.5,76.3,116.4,76.3,116.2,76.3z M117.2,57v16.8l13.9-6.8v-7.2l-4.7,2.3c-0.3,0.2-0.7,0.1-1,0L117.2,57z"/>
		</g>
		<g>
			<polygon fill="#FFFFFF" points="91.1,42.7 106.2,36.3 116.5,41.8 100.3,48.2 			"/>
			<path fill="#34AFD8" d="M100.3,49.2c-0.2,0-0.4,0-0.5-0.1l-9.2-5.5c-0.3-0.2-0.5-0.5-0.5-0.9c0-0.4,0.3-0.7,0.6-0.9l15.2-6.4
				c0.3-0.1,0.6-0.1,0.9,0l10.3,5.5c0.3,0.2,0.5,0.6,0.5,0.9s-0.3,0.7-0.6,0.9l-16.2,6.4C100.5,49.2,100.4,49.2,100.3,49.2z
				 M93.3,42.9l7.1,4.2l13.8-5.4l-8-4.3L93.3,42.9z"/>
		</g>
		<g>
			<polygon fill="#FFFFFF" points="105.9,61.2 91.5,53.4 100.3,48.2 116.1,55.1 			"/>
			<path fill="#34AFD8" d="M105.9,62.2c-0.2,0-0.3,0-0.5-0.1L91,54.2c-0.3-0.2-0.5-0.5-0.5-0.9s0.2-0.7,0.5-0.9l8.8-5.2
				c0.3-0.2,0.6-0.2,0.9-0.1l15.8,6.9c0.3,0.2,0.6,0.5,0.6,0.9s-0.2,0.7-0.5,0.9l-10.2,6C106.2,62.1,106,62.2,105.9,62.2z
				 M93.5,53.3l12.3,6.7l8-4.8l-13.5-5.9L93.5,53.3z"/>
		</g>
		<g>
			<polygon fill="#FFFFFF" points="132.2,48.2 116.5,41.8 126.4,36.3 140.6,43 			"/>
			<path fill="#34AFD8" d="M132.2,49.2c-0.1,0-0.3,0-0.4-0.1l-15.6-6.4c-0.4-0.1-0.6-0.5-0.6-0.9c0-0.4,0.2-0.7,0.5-0.9l9.9-5.5
				c0.3-0.2,0.6-0.2,0.9,0l14.1,6.7c0.3,0.2,0.5,0.5,0.6,0.8c0,0.4-0.2,0.7-0.5,0.9l-8.4,5.2C132.5,49.2,132.4,49.2,132.2,49.2z
				 M118.8,41.7l13.2,5.4l6.4-4l-12-5.7L118.8,41.7z"/>
		</g>
		<g>
			<polygon fill="#FFFFFF" points="140.3,54.1 126,61.2 116.2,55.2 132.2,48.5 			"/>
			<path fill="#34AFD8" d="M126,62.2c-0.2,0-0.4,0-0.5-0.1l-9.8-6c-0.3-0.2-0.5-0.6-0.5-0.9c0-0.4,0.3-0.7,0.6-0.8l15.9-6.7
				c0.3-0.1,0.7-0.1,1,0.1l8.1,5.6c0.3,0.2,0.5,0.5,0.4,0.9c0,0.4-0.2,0.7-0.6,0.8l-14.3,7.1C126.3,62.2,126.1,62.2,126,62.2z
				 M118.4,55.4L126,60l12.3-6.1l-6.3-4.3L118.4,55.4z"/>
		</g>
		<g>
			<polygon fill="#34AFD8" points="132.2,48.2 116.2,55.2 100.3,48.2 116.5,41.8 			"/>
			<path fill="#34AFD8" d="M116.2,55.7c-0.1,0-0.1,0-0.2,0l-15.9-7c-0.2-0.1-0.3-0.3-0.3-0.5c0-0.2,0.1-0.4,0.3-0.5l16.2-6.4
				c0.1,0,0.3,0,0.4,0l15.6,6.4c0.2,0.1,0.3,0.3,0.3,0.5c0,0.2-0.1,0.4-0.3,0.5l-15.9,7C116.4,55.7,116.3,55.7,116.2,55.7z
				 M101.6,48.2l14.6,6.4l14.7-6.4l-14.4-5.9L101.6,48.2z"/>
		</g>
		<path fill="#34AFD8" d="M124.8,43l-12.8-12.8l14.6-14.6l12.8,12.8L124.8,43z M113.4,30.1l11.4,11.4L138,28.4L126.5,17L113.4,30.1z
			"/>
		<path fill="#34AFD8" d="M124.8,43l-12.8-12.8l14.6-14.6l12.8,12.8L124.8,43z M113.4,30.1l11.4,11.4L138,28.4L126.5,17L113.4,30.1z
			"/>
		<path fill="#34AFD8" d="M124.8,43l-12.8-12.8l14.6-14.6l12.8,12.8L124.8,43z M113.4,30.1l11.4,11.4L138,28.4L126.5,17L113.4,30.1z
			"/>
		<g>
			<path fill-rule="evenodd" clip-rule="evenodd" fill="#FFFFFF" d="M126.5,16.3l12.1,12.1l-13.9,13.9l-12.1-12.1L126.5,16.3z"/>
			<path fill="#34AFD8" d="M124.8,43.7l-13.6-13.5l15.3-15.3l13.6,13.5L124.8,43.7z M114.1,30.1l10.7,10.7l12.5-12.4l-10.7-10.7
				L114.1,30.1z"/>
		</g>
		<path fill="#34AFD8" d="M133.1,28.2l-1.4-1.4l5.9-5.7c0.3-0.2,0.4-0.6,0.4-0.9c0-0.3-0.1-0.7-0.4-0.9l-1.7-1.6
			c-0.5-0.5-1.4-0.5-2,0l-5.9,5.7l-1.4-1.4l5.9-5.7c1.3-1.3,3.4-1.3,4.8,0l1.7,1.6c0.6,0.6,1,1.5,1,2.3s-0.4,1.7-1,2.3L133.1,28.2z"
			/>
		<path fill-rule="evenodd" clip-rule="evenodd" fill="#34AFD8" d="M127.5,20.6l1.9,2l-1.5,1.5l-1.9-2L127.5,20.6z"/>
		<path fill-rule="evenodd" clip-rule="evenodd" fill="#34AFD8" d="M132.5,25.6l1.8,1.8l-1.5,1.5l-1.8-1.8L132.5,25.6z"/>
		<path fill="#34AFD8" d="M96.6,36l-8.5-14.7l13-7.5l8.5,14.7L96.6,36z M89.4,21.6l7.5,13l11.3-6.5l-7.5-13L89.4,21.6z"/>
		<path fill="#34AFD8" d="M92.8,22.6l-3.5-6.1c-0.4-0.7-0.5-1.5-0.3-2.3c0.2-0.8,0.7-1.4,1.4-1.8l1.7-1c1.4-0.8,3.3-0.3,4.1,1.1
			l3.5,6.1l-1.7,1l-3.5-6.1c-0.3-0.5-0.9-0.6-1.4-0.4l-1.7,1c-0.2,0.1-0.4,0.3-0.5,0.6c-0.1,0.3,0,0.5,0.1,0.8l3.5,6.1L92.8,22.6z"
			/>
		<path fill-rule="evenodd" clip-rule="evenodd" fill="#34AFD8" d="M92.3,21.6l1.9-1.1l1.1,1.9l-1.9,1.1L92.3,21.6z"/>
		<path fill-rule="evenodd" clip-rule="evenodd" fill="#34AFD8" d="M97.3,18.4l1.9-1.1l1.1,1.9l-1.9,1.1L97.3,18.4z"/>
	</g>
	<g>
		<g>
			<polygon fill="#FFFFFF" points="114.6,156 98.7,148.2 98.7,138.8 104.3,141.8 114.6,135.8 			"/>
			<path fill="#34AFD8" d="M114.6,157c-0.1,0-0.3,0-0.4-0.1l-15.9-7.8c-0.3-0.2-0.6-0.5-0.6-0.9v-9.4c0-0.4,0.2-0.7,0.5-0.9
				c0.3-0.2,0.7-0.2,1,0l5.1,2.8l9.9-5.7c0.3-0.2,0.7-0.2,1,0c0.3,0.2,0.5,0.5,0.5,0.9V156c0,0.3-0.2,0.7-0.5,0.8
				C115,156.9,114.8,157,114.6,157z M99.7,147.6l13.9,6.8v-16.8l-8.9,5.1c-0.3,0.2-0.7,0.2-1,0l-4.1-2.2V147.6z"/>
		</g>
		<g>
			<polygon fill="#FFFFFF" points="114.6,156 130.6,148.2 130.6,138.7 124.4,141.8 114.6,135.8 			"/>
			<path fill="#34AFD8" d="M114.6,157c-0.2,0-0.4-0.1-0.5-0.2c-0.3-0.2-0.5-0.5-0.5-0.8v-20.1c0-0.4,0.2-0.7,0.5-0.9
				c0.3-0.2,0.7-0.2,1,0l9.3,5.7l5.7-2.8c0.3-0.2,0.7-0.1,1,0c0.3,0.2,0.5,0.5,0.5,0.8v9.5c0,0.4-0.2,0.7-0.6,0.9l-15.9,7.8
				C114.9,156.9,114.8,157,114.6,157z M115.6,137.6v16.8l13.9-6.8v-7.2l-4.7,2.3c-0.3,0.2-0.7,0.1-1,0L115.6,137.6z"/>
		</g>
		<g>
			<polygon fill="#FFFFFF" points="89.4,123.4 104.6,116.9 114.9,122.4 98.7,128.8 			"/>
			<path fill="#34AFD8" d="M98.7,129.8c-0.2,0-0.4,0-0.5-0.1l-9.2-5.5c-0.3-0.2-0.5-0.6-0.5-0.9c0-0.4,0.3-0.7,0.6-0.9l15.2-6.4
				c0.3-0.1,0.6-0.1,0.9,0l10.3,5.5c0.3,0.2,0.5,0.6,0.5,0.9c0,0.4-0.3,0.7-0.6,0.9L99,129.7C98.9,129.8,98.8,129.8,98.7,129.8z
				 M91.7,123.5l7.1,4.2l13.8-5.4l-8-4.3L91.7,123.5z"/>
		</g>
		<g>
			<polygon fill="#FFFFFF" points="104.3,141.8 89.9,134 98.7,128.8 114.5,135.8 			"/>
			<path fill="#34AFD8" d="M104.3,142.8c-0.2,0-0.3,0-0.5-0.1l-14.4-7.8c-0.3-0.2-0.5-0.5-0.5-0.9s0.2-0.7,0.5-0.9l8.8-5.2
				c0.3-0.2,0.6-0.2,0.9-0.1l15.8,6.9c0.3,0.2,0.6,0.5,0.6,0.9s-0.2,0.7-0.5,0.9l-10.2,6C104.6,142.8,104.4,142.8,104.3,142.8z
				 M91.9,133.9l12.3,6.7l8-4.8l-13.5-5.9L91.9,133.9z"/>
		</g>
		<g>
			<polygon fill="#FFFFFF" points="138.7,134.7 124.4,141.8 114.6,135.8 130.6,129.1 			"/>
			<path fill="#34AFD8" d="M124.4,142.8c-0.2,0-0.4,0-0.5-0.1l-9.8-6c-0.3-0.2-0.5-0.6-0.5-0.9c0-0.4,0.3-0.7,0.6-0.8l15.9-6.7
				c0.3-0.1,0.7-0.1,1,0.1l8.1,5.6c0.3,0.2,0.5,0.5,0.4,0.9c0,0.4-0.2,0.7-0.6,0.8l-14.3,7.1C124.7,142.8,124.5,142.8,124.4,142.8z
				 M116.8,136l7.6,4.7l12.3-6.1l-6.3-4.3L116.8,136z"/>
		</g>
		<g>
			<polygon fill="#34AFD8" points="130.6,128.8 114.6,135.8 98.7,128.8 114.9,122.4 			"/>
			<path fill="#34AFD8" d="M114.6,136.3c-0.1,0-0.1,0-0.2,0l-15.9-7c-0.2-0.1-0.3-0.3-0.3-0.5s0.1-0.4,0.3-0.5l16.2-6.4
				c0.1,0,0.3,0,0.4,0l15.6,6.4c0.2,0.1,0.3,0.3,0.3,0.5c0,0.2-0.1,0.4-0.3,0.5l-15.9,7C114.8,136.3,114.7,136.3,114.6,136.3z
				 M100,128.8l14.6,6.4l14.7-6.4l-14.4-5.9L100,128.8z"/>
		</g>
		<path fill="#34AFD8" d="M103.7,113.1c-0.2,0-0.3,0-0.5-0.1l-16-8.8c-0.5-0.3-0.7-0.9-0.4-1.3l6-11.2c0.3-0.5,0.8-0.7,1.3-0.4l16,8
			c0.3,0.2,0.6,0.5,0.6,0.9v8c0,0.3-0.2,0.6-0.4,0.8l-6,4C104,113.1,103.9,113.1,103.7,113.1z M89,102.9l14.6,8l5-3.4v-6.8
			l-14.6-7.3L89,102.9z"/>
		<path fill="#34AFD8" d="M125.7,125.1c-0.2,0-0.4-0.1-0.6-0.2l-6-4c-0.3-0.2-0.4-0.5-0.4-0.8v-8c0-0.4,0.2-0.7,0.6-0.9l16-8
			c0.5-0.2,1.1-0.1,1.3,0.4l6,11.2c0.3,0.5,0.1,1.1-0.4,1.3l-16,8.8C126,125.1,125.8,125.1,125.7,125.1z M120.7,119.6l5,3.4l14.6-8
			l-5.1-9.5l-14.6,7.3V119.6z"/>
		<g>
			<path fill-rule="evenodd" clip-rule="evenodd" fill="#FFFFFF" d="M109.7,100.1l-16-8l-6,11.2l16,8.8l6-4V100.1z"/>
			<path fill="#34AFD8" d="M103.7,113.1c-0.2,0-0.3,0-0.5-0.1l-16-8.8c-0.5-0.3-0.7-0.9-0.4-1.3l6-11.2c0.3-0.5,0.8-0.7,1.3-0.4
				l16,8c0.3,0.2,0.6,0.5,0.6,0.9v8c0,0.3-0.2,0.6-0.4,0.8l-6,4C104,113.1,103.9,113.1,103.7,113.1z M89,102.9l14.6,8l5-3.4v-6.8
				l-14.6-7.3L89,102.9z"/>
		</g>
		<g>
			<path fill-rule="evenodd" clip-rule="evenodd" fill="#FFFFFF" d="M119.7,112.1l16-8l6,11.2l-16,8.8l-6-4V112.1z"/>
			<path fill="#34AFD8" d="M125.7,125.1c-0.2,0-0.4-0.1-0.6-0.2l-6-4c-0.3-0.2-0.4-0.5-0.4-0.8v-8c0-0.4,0.2-0.7,0.6-0.9l16-8
				c0.5-0.2,1.1-0.1,1.3,0.4l6,11.2c0.3,0.5,0.1,1.1-0.4,1.3l-16,8.8C126,125.1,125.8,125.1,125.7,125.1z M120.7,119.6l5,3.4l14.6-8
				l-5.1-9.5l-14.6,7.3V119.6z"/>
		</g>
		<g>
			<path fill="#34AFD8" d="M95.8,98.7c0.1-0.3,0.3-0.6,0.6-0.8c0.2-0.2,0.5-0.3,0.9-0.4s0.7,0,1,0.2c0.5,0.2,0.9,0.6,1.1,1
				c0.2,0.4,0.1,0.9-0.1,1.4c-0.2,0.5-0.6,0.9-1,1c-0.4,0.2-0.9,0.1-1.5-0.1c-0.4-0.2-0.6-0.4-0.9-0.6c-0.2-0.3-0.3-0.6-0.3-0.9
				C95.6,99.3,95.7,99,95.8,98.7z M97.1,99.2c-0.2,0.4-0.2,0.6-0.2,0.9c0,0.1,0.1,0.2,0.3,0.3c0.1,0.1,0.3,0.1,0.4,0
				c0.2-0.1,0.4-0.3,0.5-0.7c0.2-0.4,0.2-0.6,0.2-0.9c0-0.1-0.1-0.2-0.3-0.3c-0.1-0.1-0.3-0.1-0.4,0C97.4,98.6,97.2,98.9,97.1,99.2z
				 M102,99.4l0.9,0.4l-6.8,5.2l-0.9-0.4L102,99.4z M98.9,104.2c0.1-0.3,0.3-0.6,0.6-0.8c0.2-0.2,0.5-0.3,0.9-0.4c0.3,0,0.7,0,1,0.2
				c0.5,0.2,0.9,0.6,1.1,1c0.2,0.4,0.1,0.9-0.1,1.4c-0.2,0.5-0.6,0.8-1,1s-0.9,0.1-1.5-0.1c-0.4-0.2-0.6-0.4-0.8-0.6
				c-0.2-0.3-0.3-0.6-0.3-0.9C98.7,104.8,98.8,104.5,98.9,104.2z M100.1,104.8c-0.2,0.4-0.2,0.6-0.2,0.9c0,0.1,0.1,0.2,0.3,0.3
				c0.1,0.1,0.3,0.1,0.4,0c0.2-0.1,0.4-0.3,0.5-0.7c0.2-0.4,0.2-0.7,0.2-0.9c0-0.1-0.1-0.2-0.3-0.3c-0.1-0.1-0.3-0.1-0.4,0
				C100.5,104.2,100.3,104.4,100.1,104.8z"/>
		</g>
		<g>
			<path fill="#34AFD8" d="M126.4,112.5c-0.1-0.3,0-0.6,0.1-1c0.1-0.3,0.3-0.6,0.5-0.8s0.6-0.3,1-0.4c0.6-0.1,1.1,0,1.5,0.3
				c0.4,0.3,0.6,0.7,0.7,1.2c0.1,0.6,0,1-0.3,1.4c-0.3,0.4-0.7,0.6-1.3,0.7c-0.4,0.1-0.7,0-1.1-0.1c-0.3-0.1-0.6-0.3-0.8-0.6
				C126.6,113.1,126.5,112.8,126.4,112.5z M127.7,112.2c0.1,0.4,0.2,0.7,0.3,0.8c0.1,0.1,0.2,0.1,0.4,0.1c0.2,0,0.3-0.1,0.3-0.2
				c0.1-0.2,0.1-0.5,0-0.9c-0.1-0.4-0.2-0.7-0.3-0.8c-0.1-0.1-0.2-0.1-0.4-0.1c-0.2,0-0.3,0.1-0.3,0.2
				C127.7,111.5,127.7,111.8,127.7,112.2z M132,109.6l1-0.2l-2.7,8.1l-1,0.2L132,109.6z M132.1,115.3c-0.1-0.3,0-0.6,0-1
				c0.1-0.3,0.3-0.6,0.5-0.8c0.3-0.2,0.6-0.3,1-0.4c0.6-0.1,1.1,0,1.5,0.3c0.4,0.3,0.6,0.7,0.7,1.2c0.1,0.5,0,1-0.3,1.4
				c-0.3,0.4-0.7,0.6-1.3,0.7c-0.4,0.1-0.7,0-1.1-0.1c-0.3-0.1-0.6-0.3-0.8-0.6C132.2,115.9,132.1,115.7,132.1,115.3z M133.4,115.1
				c0.1,0.4,0.2,0.7,0.3,0.8c0.1,0.1,0.2,0.1,0.4,0.1c0.2,0,0.3-0.1,0.3-0.2c0.1-0.2,0.1-0.5,0-0.9c-0.1-0.4-0.2-0.7-0.3-0.8
				c-0.1-0.1-0.2-0.1-0.4-0.1c-0.2,0-0.3,0.1-0.3,0.2C133.3,114.4,133.3,114.7,133.4,115.1z"/>
		</g>
		<g>
			<path fill="#34AFD8" d="M109.6,108.8c-0.2-0.2-0.3-0.3-0.3-0.3l0.7-0.7c0,0,0.1,0.1,0.4,0.4L109.6,108.8z"/>
			<path fill="#34AFD8" d="M114.2,121c0-0.3-0.1-0.6-0.1-1l1-0.1c0.1,0.4,0.1,0.7,0.1,1L114.2,121z M114,119.1
				c-0.1-0.3-0.1-0.6-0.2-1l1-0.2c0.1,0.3,0.1,0.7,0.2,1L114,119.1z M113.6,117.2c-0.1-0.3-0.1-0.6-0.2-0.9l1-0.2
				c0.1,0.3,0.1,0.6,0.2,1L113.6,117.2z M113.2,115.3l-0.1-0.4c0-0.2-0.1-0.3-0.1-0.5l1-0.3c0.1,0.2,0.1,0.4,0.2,0.5l0.1,0.4
				L113.2,115.3z M112.6,113.6c-0.1-0.3-0.2-0.6-0.4-0.9l0.9-0.4c0.1,0.3,0.3,0.6,0.4,0.9L112.6,113.6z M111.8,111.9
				c-0.2-0.3-0.3-0.6-0.5-0.8l0.8-0.5c0.2,0.3,0.3,0.6,0.5,0.9L111.8,111.9z M110.8,110.3c-0.2-0.3-0.4-0.5-0.6-0.8l0.8-0.6
				c0.2,0.2,0.4,0.5,0.6,0.8L110.8,110.3z"/>
			<path fill="#34AFD8" d="M114.4,122.5l-0.1-0.5l1-0.1c0,0.3,0.1,0.5,0.1,0.5L114.4,122.5z"/>
		</g>
		<g>
			<polygon fill="#FFFFFF" points="130.6,128.8 114.9,122.4 119.7,119.8 125.7,124.1 132.3,120.5 139,123.6 			"/>
			<path fill="#34AFD8" d="M130.6,129.8c-0.1,0-0.3,0-0.4-0.1l-15.6-6.4c-0.4-0.1-0.6-0.5-0.6-0.9c0-0.4,0.2-0.7,0.5-0.9l4.7-2.6
				c0.3-0.2,0.8-0.2,1.1,0.1l5.5,4l6.1-3.4c0.3-0.2,0.6-0.2,0.9,0l6.7,3.2c0.3,0.2,0.5,0.5,0.6,0.8c0,0.4-0.2,0.7-0.5,0.9l-8.4,5.2
				C130.9,129.8,130.7,129.8,130.6,129.8z M117.2,122.3l13.2,5.4l6.4-4l-4.5-2.2l-6.2,3.4c-0.3,0.2-0.8,0.2-1.1-0.1l-5.5-4
				L117.2,122.3z"/>
		</g>
	</g>
	<g>
		<polygon fill-rule="evenodd" clip-rule="evenodd" fill="#FFFFFF" points="90.2,186.2 105.3,179.4 108.9,181.5 120.5,181.9 
			124.3,177.9 140.1,185.8 131.7,191.8 114.6,198.7 		"/>
		<g>
			<polygon fill="#FFFFFF" points="115.1,218.6 99.1,210.9 99.1,201.4 104.7,204.5 115.1,198.5 			"/>
			<path fill="#34AFD8" d="M115.1,219.6c-0.1,0-0.3,0-0.4-0.1l-15.9-7.8c-0.3-0.2-0.6-0.5-0.6-0.9v-9.4c0-0.4,0.2-0.7,0.5-0.9
				c0.3-0.2,0.7-0.2,1,0l5.1,2.8l9.9-5.7c0.3-0.2,0.7-0.2,1,0c0.3,0.2,0.5,0.5,0.5,0.9v20.1c0,0.3-0.2,0.7-0.5,0.8
				C115.4,219.6,115.3,219.6,115.1,219.6z M100.1,210.3l13.9,6.8v-16.8l-8.9,5.1c-0.3,0.2-0.7,0.2-1,0l-4.1-2.2V210.3z"/>
		</g>
		<g>
			<polygon fill="#FFFFFF" points="115.1,218.6 131,210.9 131,201.4 124.8,204.5 115.1,198.5 			"/>
			<path fill="#34AFD8" d="M115.1,219.6c-0.2,0-0.4-0.1-0.5-0.2c-0.3-0.2-0.5-0.5-0.5-0.8v-20.1c0-0.4,0.2-0.7,0.5-0.9
				c0.3-0.2,0.7-0.2,1,0l9.3,5.7l5.7-2.8c0.3-0.2,0.7-0.1,1,0c0.3,0.2,0.5,0.5,0.5,0.8v9.5c0,0.4-0.2,0.7-0.6,0.9l-15.9,7.8
				C115.4,219.6,115.2,219.6,115.1,219.6z M116.1,200.3V217l13.9-6.8V203l-4.7,2.3c-0.3,0.2-0.7,0.1-1,0L116.1,200.3z"/>
		</g>
		<g>
			<polygon fill="#FFFFFF" points="104.7,204.5 90.3,196.7 99.1,191.5 114.9,198.4 			"/>
			<path fill="#34AFD8" d="M104.7,205.5c-0.2,0-0.3,0-0.5-0.1l-14.4-7.8c-0.3-0.2-0.5-0.5-0.5-0.9s0.2-0.7,0.5-0.9l8.8-5.2
				c0.3-0.2,0.6-0.2,0.9-0.1l15.8,6.9c0.3,0.2,0.6,0.5,0.6,0.9s-0.2,0.7-0.5,0.9l-10.2,6C105.1,205.4,104.9,205.5,104.7,205.5z
				 M92.4,196.6l12.3,6.7l8-4.8l-13.5-5.9L92.4,196.6z"/>
		</g>
		<g>
			<polygon fill="#FFFFFF" points="139.1,197.4 124.8,204.5 115.1,198.5 131,191.8 			"/>
			<path fill="#34AFD8" d="M124.8,205.5c-0.2,0-0.4,0-0.5-0.1l-9.8-6c-0.3-0.2-0.5-0.6-0.5-0.9c0-0.4,0.3-0.7,0.6-0.8l15.9-6.7
				c0.3-0.1,0.7-0.1,1,0.1l8.1,5.6c0.3,0.2,0.5,0.5,0.4,0.9c0,0.4-0.2,0.7-0.6,0.8l-14.3,7.1C125.1,205.5,125,205.5,124.8,205.5z
				 M117.3,198.7l7.6,4.7l12.3-6.1l-6.3-4.3L117.3,198.7z"/>
		</g>
		<path fill-rule="evenodd" clip-rule="evenodd" fill="#34AFD8" d="M119.4,178.4l6.2-6.2c0.8-0.8,2-0.8,2.7,0c0.8,0.8,0.8,2,0,2.7
			l-6.2,6.2c-0.8,0.8-2,0.8-2.7,0C118.6,180.4,118.6,179.2,119.4,178.4z"/>
		<g>
			<path fill-rule="evenodd" clip-rule="evenodd" fill="#FFFFFF" d="M114.8,177.8c4.4,0,8,3.6,8,8c0,4.4-3.6,8-8,8c-4.4,0-8-3.6-8-8
				C106.8,181.3,110.4,177.8,114.8,177.8z"/>
			<path fill="#34AFD8" d="M114.8,179.8c3.3,0,6,2.7,6,6s-2.7,6-6,6c-3.3,0-6-2.7-6-6S111.5,179.8,114.8,179.8 M114.8,177.8
				c-4.4,0-8,3.6-8,8c0,4.4,3.6,8,8,8c4.4,0,8-3.6,8-8C122.8,181.3,119.3,177.8,114.8,177.8L114.8,177.8z"/>
		</g>
		<path fill="#34AFD8" d="M125.9,178.8l14,6.6c0.3,0.2,0.5,0.5,0.6,0.8c0,0.4-0.2,0.7-0.5,0.9l-8.4,5.2c-0.2,0.1-0.3,0.1-0.5,0.1
			c-0.1,0-0.3,0-0.4-0.1l-7.5-3.1c0.3-0.6,0.5-1.3,0.6-1.9l7.2,2.9l6.4-4l-12.9-6.1L125.9,178.8z"/>
		<path fill="#34AFD8" d="M106.1,187.7l-6.8,2.7l-7.1-4.2l12.9-5.5l2.7,1.4c0.3-0.6,0.7-1.2,1.1-1.7l-3.3-1.8
			c-0.3-0.1-0.6-0.2-0.9,0l-15.2,6.4c-0.3,0.1-0.6,0.5-0.6,0.9c0,0.4,0.2,0.7,0.5,0.9l9.2,5.5c0.2,0.1,0.3,0.1,0.5,0.1
			c0.1,0,0.2,0,0.4-0.1l7.2-2.8C106.4,189,106.2,188.4,106.1,187.7z"/>
		<g>
			<path fill="#34AFD8" d="M123.9,188.6c-1.2,3.9-4.8,6.7-9.1,6.7c-4.2,0-7.7-2.7-9-6.4l-6.7,2.7l15.9,7l15.9-7L123.9,188.6z"/>
			<path fill="#34AFD8" d="M115.1,199c-0.1,0-0.1,0-0.2,0l-15.9-7c-0.2-0.1-0.3-0.3-0.3-0.5s0.1-0.4,0.3-0.5l6.7-2.7
				c0.1-0.1,0.3,0,0.4,0c0.1,0.1,0.2,0.2,0.3,0.3c1.3,3.6,4.7,6.1,8.5,6.1c3.9,0,7.4-2.5,8.6-6.3c0-0.1,0.1-0.2,0.3-0.3
				c0.1-0.1,0.3-0.1,0.4,0l7.1,2.9c0.2,0.1,0.3,0.3,0.3,0.5c0,0.2-0.1,0.4-0.3,0.5l-15.9,7C115.2,199,115.1,199,115.1,199z
				 M100.4,191.5l14.6,6.4l14.7-6.4l-5.5-2.3c-1.5,3.9-5.2,6.5-9.4,6.5c-4.1,0-7.7-2.5-9.3-6.3L100.4,191.5z"/>
		</g>
	</g>
	<g>
		<g>
			<polygon fill="#FFFFFF" points="115.1,296.4 99.1,288.7 99.1,279.2 104.7,282.3 115.1,276.3 			"/>
			<path fill="#34AFD8" d="M115.1,297.4c-0.1,0-0.3,0-0.4-0.1l-15.9-7.8c-0.3-0.2-0.6-0.5-0.6-0.9v-9.4c0-0.4,0.2-0.7,0.5-0.9
				c0.3-0.2,0.7-0.2,1,0l5.1,2.8l9.9-5.7c0.3-0.2,0.7-0.2,1,0c0.3,0.2,0.5,0.5,0.5,0.9v20.1c0,0.3-0.2,0.7-0.5,0.8
				C115.4,297.4,115.3,297.4,115.1,297.4z M100.1,288l13.9,6.8V278l-8.9,5.1c-0.3,0.2-0.7,0.2-1,0l-4.1-2.2V288z"/>
		</g>
		<g>
			<polygon fill="#FFFFFF" points="115.1,296.4 131,288.7 131,279.2 124.8,282.3 115.1,276.3 			"/>
			<path fill="#34AFD8" d="M115.1,297.4c-0.2,0-0.4-0.1-0.5-0.2c-0.3-0.2-0.5-0.5-0.5-0.8v-20.1c0-0.4,0.2-0.7,0.5-0.9
				c0.3-0.2,0.7-0.2,1,0l9.3,5.7l5.7-2.8c0.3-0.2,0.7-0.1,1,0c0.3,0.2,0.5,0.5,0.5,0.8v9.5c0,0.4-0.2,0.7-0.6,0.9l-15.9,7.8
				C115.4,297.4,115.2,297.4,115.1,297.4z M116.1,278.1v16.8L130,288v-7.2l-4.7,2.3c-0.3,0.2-0.7,0.1-1,0L116.1,278.1z"/>
		</g>
		<g>
			<polygon fill="#FFFFFF" points="89.9,263.8 105.1,257.4 115.4,262.9 99.1,269.3 			"/>
			<path fill="#34AFD8" d="M99.1,270.3c-0.2,0-0.4,0-0.5-0.1l-9.2-5.5c-0.3-0.2-0.5-0.6-0.5-0.9c0-0.4,0.3-0.7,0.6-0.9l15.2-6.4
				c0.3-0.1,0.6-0.1,0.9,0l10.3,5.5c0.3,0.2,0.5,0.6,0.5,0.9c0,0.4-0.3,0.7-0.6,0.9l-16.2,6.4C99.4,270.3,99.3,270.3,99.1,270.3z
				 M92.1,264l7.1,4.2l13.8-5.4l-8-4.3L92.1,264z"/>
		</g>
		<g>
			<polygon fill="#FFFFFF" points="104.7,282.3 90.3,274.4 99.1,269.3 114.9,276.2 			"/>
			<path fill="#34AFD8" d="M104.7,283.3c-0.2,0-0.3,0-0.5-0.1l-14.4-7.8c-0.3-0.2-0.5-0.5-0.5-0.9s0.2-0.7,0.5-0.9l8.8-5.2
				c0.3-0.2,0.6-0.2,0.9-0.1l15.8,6.9c0.3,0.2,0.6,0.5,0.6,0.9s-0.2,0.7-0.5,0.9l-10.2,6C105.1,283.2,104.9,283.3,104.7,283.3z
				 M92.4,274.4l12.3,6.7l8-4.8l-13.5-5.9L92.4,274.4z"/>
		</g>
		<g>
			<polygon fill="#FFFFFF" points="131,269.3 115.4,262.9 125.3,257.4 139.4,264.1 			"/>
			<path fill="#34AFD8" d="M131,270.3c-0.1,0-0.3,0-0.4-0.1l-15.6-6.4c-0.4-0.1-0.6-0.5-0.6-0.9c0-0.4,0.2-0.7,0.5-0.9l9.9-5.5
				c0.3-0.2,0.6-0.2,0.9,0l14.1,6.7c0.3,0.2,0.5,0.5,0.6,0.8c0,0.4-0.2,0.7-0.5,0.9l-8.4,5.2C131.4,270.2,131.2,270.3,131,270.3z
				 M117.7,262.8l13.2,5.4l6.4-4l-12-5.7L117.7,262.8z"/>
		</g>
		<g>
			<polygon fill="#FFFFFF" points="139.1,275.2 124.8,282.3 115.1,276.3 131,269.6 			"/>
			<path fill="#34AFD8" d="M124.8,283.3c-0.2,0-0.4,0-0.5-0.1l-9.8-6c-0.3-0.2-0.5-0.6-0.5-0.9c0-0.4,0.3-0.7,0.6-0.8l15.9-6.7
				c0.3-0.1,0.7-0.1,1,0.1l8.1,5.6c0.3,0.2,0.5,0.5,0.4,0.9c0,0.4-0.2,0.7-0.6,0.8l-14.3,7.1C125.1,283.2,125,283.3,124.8,283.3z
				 M117.3,276.5l7.6,4.7l12.3-6.1l-6.3-4.3L117.3,276.5z"/>
		</g>
		<g>
			<polygon fill="#34AFD8" points="131,269.3 115.1,276.3 99.1,269.3 115.4,262.9 			"/>
			<path fill="#34AFD8" d="M115.1,276.8c-0.1,0-0.1,0-0.2,0l-15.9-7c-0.2-0.1-0.3-0.3-0.3-0.5s0.1-0.4,0.3-0.5l16.2-6.4
				c0.1,0,0.3,0,0.4,0l15.6,6.4c0.2,0.1,0.3,0.3,0.3,0.5c0,0.2-0.1,0.4-0.3,0.5l-15.9,7C115.2,276.8,115.1,276.8,115.1,276.8z
				 M100.4,269.3l14.6,6.4l14.7-6.4l-14.4-5.9L100.4,269.3z"/>
		</g>
		<g>
			<path fill-rule="evenodd" clip-rule="evenodd" fill="#FFFFFF" d="M119.6,254.4c-2.1,1.8-4.6,5-4.6,5v-5.4c-5.8-1.1-10-5-10-9.6
				c0-5.5,6-10,13.5-10c7.5,0,12.5,4.5,12.5,10C131,249.7,126.4,254,119.6,254.4z"/>
			<path fill="#34AFD8" d="M118.5,236.4c6.1,0,10.5,3.4,10.5,8c0,4.4-3.9,7.6-9.6,8l-0.7,0l-0.5,0.4c-0.4,0.4-0.9,0.8-1.3,1.2v-1.6
				l-1.6-0.3c-4.9-1-8.4-4.1-8.4-7.7C107,240,112.2,236.4,118.5,236.4 M118.5,234.4c-7.5,0-13.5,4.5-13.5,10c0,4.6,4.2,8.5,10,9.6
				v5.4c0,0,2.4-3.3,4.6-5c6.9-0.4,11.4-4.7,11.4-10C131,238.9,126,234.4,118.5,234.4L118.5,234.4z"/>
		</g>
		<circle fill-rule="evenodd" clip-rule="evenodd" fill="#34AFD8" cx="112" cy="244.4" r="2"/>
		<circle fill-rule="evenodd" clip-rule="evenodd" fill="#34AFD8" cx="118" cy="244.4" r="2"/>
		<circle fill-rule="evenodd" clip-rule="evenodd" fill="#34AFD8" cx="124" cy="244.4" r="2"/>
	</g>
	<g>
		<path fill="#AFA189" d="M27.3,403.4c-0.2,0-0.4,0-0.5-0.1l-9.2-5.5c-0.3-0.2-0.5-0.5-0.5-0.9c0-0.4,0.3-0.7,0.6-0.9l6.9-3l0.8,1.8
			l-5.1,2.2l7.1,4.2l4-1.7l0.8,1.8l-4.5,1.9C27.6,403.4,27.4,403.4,27.3,403.4z"/>
		<path fill="#AFA189" d="M43.2,410.4c-0.1,0-0.3,0-0.4-0.1l-10.4-4.8c-0.2-0.1-0.4-0.3-0.5-0.6c0-0.1-1.1-3.3-1.1-5.2
			c0-6.9,5.6-12.5,12.5-12.5s12.5,5.6,12.5,12.5c0,2.2-1.4,5.7-1.4,5.8c-0.1,0.3-0.3,0.5-0.5,0.6l-10.1,4.3
			C43.5,410.4,43.4,410.4,43.2,410.4z M33.6,403.8l9.7,4.5l9.3-3.9c0.4-1.1,1.1-3.3,1.1-4.7c0-5.8-4.7-10.5-10.5-10.5
			s-10.5,4.7-10.5,10.5C32.7,400.8,33.3,402.8,33.6,403.8z"/>
		<path id="VK" fill="#AFA189" d="M43.5,404.5c0.6,0,0.6-0.8,0.6-1.1c0-0.6,0.6-1.1,1.1-1.1s1.5,1,2.3,1.7c0.6,0.6,0.6,0.6,1.1,0.6
			c0.6,0,1.7,0,1.7,0s1.1,0,1.1-1.1c0-0.4-0.4-1-1.7-2.3c-1.1-1.1-1.7-0.5,0-2.8c1-1.4,1.8-2.7,1.7-3c-0.1-0.3-3-0.9-3.4-0.4
			c-1.1,1.7-1.3,2.1-1.7,2.8c-0.6,1.1-0.6,1.7-1.1,1.7c-0.5,0-0.6-1.1-0.6-1.7c0-1.9,0.3-3.2-0.6-3.4c0,0-1.1,0-1.7,0
			c-0.9,0-1.7,0.6-1.7,0.6s-0.7,0.6-0.6,0.6c0.2,0,1.1-0.2,1.1,0.6c0,0.6,0,1.1,0,1.1s0,2.3-0.6,2.3c-0.6,0-1.7-2.3-2.8-4
			c-0.4-0.7-0.6-0.6-1.1-0.6c-0.6,0-1.1,0-1.7,0c-0.6,0-0.6,0.4-0.6,0.5c1.1,2.8,2,4.6,4.1,6.9c2,2.1,3.3,2.2,4.4,2.2
			C43.2,404.5,42.9,404.5,43.5,404.5z"/>
		<path fill="#AFA189" d="M43.2,430.5c-0.1,0-0.3,0-0.4-0.1l-15.9-7.8c-0.3-0.2-0.6-0.5-0.6-0.9v-9.4c0-0.4,0.2-0.7,0.5-0.9
			c0.3-0.2,0.7-0.2,1,0l5.1,2.8l9.9-5.7c0.3-0.2,0.7-0.2,1,0c0.3,0.2,0.5,0.5,0.5,0.9v20.1c0,0.3-0.2,0.7-0.5,0.8
			C43.6,430.5,43.4,430.5,43.2,430.5z M28.3,421.2l13.9,6.8v-16.8l-8.9,5.1c-0.3,0.2-0.7,0.2-1,0l-4.1-2.2V421.2z"/>
		<path fill="#AFA189" d="M43.2,430.5c-0.2,0-0.4-0.1-0.5-0.2c-0.3-0.2-0.5-0.5-0.5-0.8v-20.1c0-0.4,0.2-0.7,0.5-0.9
			c0.3-0.2,0.7-0.2,1,0l9.3,5.7l5.7-2.8c0.3-0.2,0.7-0.1,1,0c0.3,0.2,0.5,0.5,0.5,0.8v9.5c0,0.4-0.2,0.7-0.6,0.9l-15.9,7.8
			C43.5,430.5,43.4,430.5,43.2,430.5z M44.2,411.2v16.8l13.9-6.8v-7.2l-4.7,2.3c-0.3,0.2-0.7,0.1-1,0L44.2,411.2z"/>
		<path fill="#AFA189" d="M32.9,416.4c-0.2,0-0.3,0-0.5-0.1L18,408.4c-0.3-0.2-0.5-0.5-0.5-0.9c0-0.4,0.2-0.7,0.5-0.9l8.8-5.2
			c0.3-0.2,0.6-0.2,0.9-0.1l15.8,6.9c0.3,0.2,0.6,0.5,0.6,0.9c0,0.4-0.2,0.7-0.5,0.9l-10.2,6C33.2,416.3,33,416.4,32.9,416.4z
			 M20.5,407.5l12.3,6.7l8-4.8l-13.5-5.9L20.5,407.5z"/>
		<path fill="#AFA189" d="M53,416.4c-0.2,0-0.4,0-0.5-0.1l-9.8-6c-0.3-0.2-0.5-0.6-0.5-0.9c0-0.4,0.3-0.7,0.6-0.8l15.9-6.7
			c0.3-0.1,0.7-0.1,1,0.1l8.1,5.6c0.3,0.2,0.5,0.5,0.4,0.9c0,0.4-0.2,0.7-0.6,0.8l-14.3,7.1C53.3,416.3,53.1,416.4,53,416.4z
			 M45.4,409.6l7.6,4.7l12.3-6.1l-6.3-4.3L45.4,409.6z"/>
		<path fill="#AFA189" d="M59.2,403.4c-0.1,0-0.3,0-0.4-0.1l-4.5-1.9c-0.4-0.2-0.7-0.6-0.6-1c0,0,0.2-2.4-0.5-4.3
			c-0.8-2-2.4-3.8-2.5-3.8c-0.2-0.2-0.3-0.5-0.2-0.8c0.1-0.3,0.2-0.6,0.5-0.7l2.1-1.1c0.3-0.2,0.6-0.2,0.9,0l14.1,6.7
			c0.3,0.2,0.6,0.5,0.6,0.8c0,0.4-0.2,0.7-0.5,0.9l-8.4,5.2C59.5,403.3,59.3,403.4,59.2,403.4z M55.7,399.9l3.4,1.4l6.4-4l-12-5.7
			l-0.6,0.3c0.6,0.8,1.5,2.1,2,3.4C55.6,397,55.7,398.9,55.7,399.9z"/>
		<path fill="#AFA189" d="M32,398.1c-5.9-0.1-10.8-5.1-10.8-11c0-6.1,4.9-11,11-11s11,4.9,11,11c0,0.4-0.1,1.2-0.1,1.3l-2-0.2
			c0-0.1,0.1-0.8,0.1-1.1c0-5-4-9-9-9s-9,4-9,9c0,4.9,3.9,8.9,8.8,9L32,398.1z"/>
		<g transform="matrix(.125 0 0 -.125 0 102.5)">
			<path fill="#AFA189" d="M255.8-2232.1c6,0,10.9-4.9,10.9-10.9c0-6-4.9-10.9-10.9-10.9c-6,0-10.9,4.9-10.9,10.9
				C244.8-2237,249.7-2232.1,255.8-2232.1z M255.8-2269.4c14.6,0,26.4,11.8,26.4,26.4c0,14.6-11.8,26.4-26.4,26.4
				c-14.6,0-26.4-11.8-26.4-26.4C229.3-2257.6,241.2-2269.4,255.8-2269.4z"/>
			<path fill="#AFA189" d="M266.4-2291c5.4,1.2,10.6,3.4,15.3,6.4c3.6,2.3,4.7,7.1,2.4,10.7c-2.3,3.6-7,4.7-10.7,2.4
				c-10.8-6.8-24.7-6.8-35.6,0c-3.6,2.3-8.4,1.2-10.7-2.4c-2.3-3.6-1.2-8.4,2.4-10.7c4.8-3,10-5.1,15.3-6.4l-14.8-14.8
				c-3-3-3-7.9,0-10.9c1.5-1.5,3.5-2.3,5.5-2.3c2,0,4,0.8,5.5,2.3l14.5,14.5l14.5-14.5c3-3,7.9-3,10.9,0c3,3,3,7.9,0,10.9
				L266.4-2291"/>
		</g>
	</g>
	<g>
		<g>
			<polygon fill="#FFFFFF" points="89.9,396.9 105.1,390.5 115.4,396 99.1,402.4 			"/>
			<path fill="#34AFD8" d="M99.1,403.4c-0.2,0-0.4,0-0.5-0.1l-9.2-5.5c-0.3-0.2-0.5-0.6-0.5-0.9c0-0.4,0.3-0.7,0.6-0.9l15.2-6.4
				c0.3-0.1,0.6-0.1,0.9,0l10.3,5.5c0.3,0.2,0.5,0.6,0.5,0.9c0,0.4-0.3,0.7-0.6,0.9l-16.2,6.4C99.4,403.4,99.3,403.4,99.1,403.4z
				 M92.1,397.1l7.1,4.2l13.8-5.4l-8-4.3L92.1,397.1z"/>
		</g>
		<g>
			<polygon fill="#FFFFFF" points="131,402.4 115.4,396 125.3,390.5 139.4,397.2 			"/>
			<path fill="#34AFD8" d="M131,403.4c-0.1,0-0.3,0-0.4-0.1l-15.6-6.4c-0.4-0.1-0.6-0.5-0.6-0.9c0-0.4,0.2-0.7,0.5-0.9l9.9-5.5
				c0.3-0.2,0.6-0.2,0.9,0l14.1,6.7c0.3,0.2,0.6,0.5,0.6,0.8c0,0.4-0.2,0.7-0.5,0.9l-8.4,5.2C131.4,403.3,131.2,403.4,131,403.4z
				 M117.7,395.9l13.2,5.4l6.4-4l-12-5.7L117.7,395.9z"/>
		</g>
		<g>
			<path fill-rule="evenodd" clip-rule="evenodd" fill="#FFFFFF" d="M104.1,377.1c5.5,0,10,4.5,10,10c0,5.5-4.5,10-10,10
				c-5.5,0-10-4.5-10-10C94.1,381.6,98.5,377.1,104.1,377.1z"/>
			<path fill="#34AFD8" d="M104.1,398.1c-6.1,0-11-4.9-11-11s4.9-11,11-11s11,4.9,11,11S110.1,398.1,104.1,398.1z M104.1,378.1
				c-5,0-9,4-9,9s4,9,9,9s9-4,9-9S109,378.1,104.1,378.1z"/>
		</g>
		<g>
			<path fill-rule="evenodd" clip-rule="evenodd" fill="#FFFFFF" d="M115.1,388.2c6.4,0,11.5,5.1,11.5,11.5c0,2-1.3,5.4-1.3,5.4
				l-10.1,4.3l-10.4-4.8c0,0-1.1-3.1-1.1-4.8C103.6,393.4,108.7,388.2,115.1,388.2z"/>
			<path fill="#34AFD8" d="M115.1,410.4c-0.1,0-0.3,0-0.4-0.1l-10.4-4.8c-0.2-0.1-0.4-0.3-0.5-0.6c0-0.1-1.1-3.3-1.1-5.2
				c0-6.9,5.6-12.5,12.5-12.5s12.5,5.6,12.5,12.5c0,2.2-1.4,5.7-1.4,5.8c-0.1,0.3-0.3,0.5-0.5,0.6l-10.1,4.3
				C115.3,410.4,115.2,410.4,115.1,410.4z M105.4,403.8l9.7,4.5l9.3-3.9c0.4-1.1,1.1-3.3,1.1-4.7c0-5.8-4.7-10.5-10.5-10.5
				s-10.5,4.7-10.5,10.5C104.6,400.8,105.1,402.8,105.4,403.8z"/>
		</g>
		<g transform="matrix(.125 0 0 -.125 0 102.5)">
			<path fill="#34AFD8" d="M831.3-2232.1c6,0,10.9-4.9,10.9-10.9c0-6-4.9-10.9-10.9-10.9c-6,0-10.9,4.9-10.9,10.9
				C820.3-2237,825.2-2232.1,831.3-2232.1z M831.3-2269.4c14.6,0,26.4,11.8,26.4,26.4c0,14.6-11.8,26.4-26.4,26.4
				c-14.6,0-26.4-11.8-26.4-26.4C804.9-2257.6,816.7-2269.4,831.3-2269.4z"/>
			<path fill="#34AFD8" d="M841.9-2291c5.4,1.2,10.6,3.4,15.3,6.4c3.6,2.3,4.7,7.1,2.4,10.7c-2.3,3.6-7,4.7-10.7,2.4
				c-10.8-6.8-24.7-6.8-35.6,0c-3.6,2.3-8.4,1.2-10.7-2.4c-2.3-3.6-1.2-8.4,2.4-10.7c4.8-3,10-5.1,15.3-6.4l-14.8-14.8
				c-3-3-3-7.9,0-10.9c1.5-1.5,3.5-2.3,5.5-2.3c2,0,4,0.8,5.5,2.3l14.5,14.5l14.5-14.5c3-3,7.9-3,10.9,0c3,3,3,7.9,0,10.9
				L841.9-2291"/>
		</g>
		<path id="VK_2_" fill="#34AFD8" d="M115.3,404.5c0.6,0,0.6-0.8,0.6-1.1c0-0.6,0.6-1.1,1.1-1.1s1.5,1,2.3,1.7
			c0.6,0.6,0.6,0.6,1.1,0.6s1.7,0,1.7,0s1.1,0,1.1-1.1c0-0.4-0.4-1-1.7-2.3c-1.1-1.1-1.7-0.5,0-2.8c1-1.4,1.8-2.7,1.7-3
			c-0.1-0.3-3-0.9-3.4-0.4c-1.1,1.7-1.3,2.1-1.7,2.8c-0.6,1.1-0.6,1.7-1.1,1.7c-0.5,0-0.6-1.1-0.6-1.7c0-1.9,0.3-3.2-0.6-3.4
			c0,0-1.1,0-1.7,0c-0.9,0-1.7,0.6-1.7,0.6s-0.7,0.6-0.6,0.6c0.2,0,1.1-0.2,1.1,0.6c0,0.6,0,1.1,0,1.1s0,2.3-0.6,2.3
			c-0.6,0-1.7-2.3-2.8-4c-0.4-0.7-0.6-0.6-1.1-0.6c-0.6,0-1.1,0-1.7,0c-0.6,0-0.6,0.4-0.6,0.5c1.1,2.8,2,4.6,4.1,6.9
			c2,2.1,3.3,2.2,4.4,2.2C115,404.5,114.7,404.5,115.3,404.5z"/>
		<g>
			<polygon fill="#FFFFFF" points="115.1,429.5 99.1,421.8 99.1,412.3 104.7,415.4 115.1,409.4 			"/>
			<path fill="#34AFD8" d="M115.1,430.5c-0.1,0-0.3,0-0.4-0.1l-15.9-7.8c-0.3-0.2-0.6-0.5-0.6-0.9v-9.4c0-0.4,0.2-0.7,0.5-0.9
				c0.3-0.2,0.7-0.2,1,0l5.1,2.8l9.9-5.7c0.3-0.2,0.7-0.2,1,0c0.3,0.2,0.5,0.5,0.5,0.9v20.1c0,0.3-0.2,0.7-0.5,0.8
				C115.4,430.5,115.3,430.5,115.1,430.5z M100.1,421.2l13.9,6.8v-16.8l-8.9,5.1c-0.3,0.2-0.7,0.2-1,0l-4.1-2.2V421.2z"/>
		</g>
		<g>
			<polygon fill="#FFFFFF" points="115.1,429.5 131,421.8 131,412.3 124.8,415.4 115.1,409.4 			"/>
			<path fill="#34AFD8" d="M115.1,430.5c-0.2,0-0.4-0.1-0.5-0.2c-0.3-0.2-0.5-0.5-0.5-0.8v-20.1c0-0.4,0.2-0.7,0.5-0.9
				c0.3-0.2,0.7-0.2,1,0l9.3,5.7l5.7-2.8c0.3-0.2,0.7-0.1,1,0c0.3,0.2,0.5,0.5,0.5,0.8v9.5c0,0.4-0.2,0.7-0.6,0.9l-15.9,7.8
				C115.4,430.5,115.2,430.5,115.1,430.5z M116.1,411.2v16.8l13.9-6.8v-7.2l-4.7,2.3c-0.3,0.2-0.7,0.1-1,0L116.1,411.2z"/>
		</g>
		<g>
			<polygon fill="#FFFFFF" points="104.7,415.4 90.3,407.5 99.1,402.4 114.9,409.3 			"/>
			<path fill="#34AFD8" d="M104.7,416.4c-0.2,0-0.3,0-0.5-0.1l-14.4-7.8c-0.3-0.2-0.5-0.5-0.5-0.9s0.2-0.7,0.5-0.9l8.8-5.2
				c0.3-0.2,0.6-0.2,0.9-0.1l15.8,6.9c0.3,0.2,0.6,0.5,0.6,0.9s-0.2,0.7-0.5,0.9l-10.2,6C105.1,416.3,104.9,416.4,104.7,416.4z
				 M92.4,407.5l12.3,6.7l8-4.8l-13.5-5.9L92.4,407.5z"/>
		</g>
		<g>
			<polygon fill="#FFFFFF" points="139.1,408.3 124.8,415.4 115.1,409.4 131,402.7 			"/>
			<path fill="#34AFD8" d="M124.8,416.4c-0.2,0-0.4,0-0.5-0.1l-9.8-6c-0.3-0.2-0.5-0.6-0.5-0.9c0-0.4,0.3-0.7,0.6-0.8l15.9-6.7
				c0.3-0.1,0.7-0.1,1,0.1l8.1,5.6c0.3,0.2,0.5,0.5,0.4,0.9c0,0.4-0.2,0.7-0.6,0.8l-14.3,7.1C125.1,416.3,125,416.4,124.8,416.4z
				 M117.3,409.6l7.6,4.7l12.3-6.1l-6.3-4.3L117.3,409.6z"/>
		</g>
	</g>
	<g>
		<polygon fill-rule="evenodd" clip-rule="evenodd" fill="#FFFFFF" points="90.5,328.2 116.3,317.3 139.1,327.8 114.8,341 		"/>
		<g>
			<polygon fill="#FFFFFF" points="115.1,360.4 99.1,352.6 99.1,343.2 104.7,346.2 115.1,340.2 			"/>
			<path fill="#34AFD8" d="M115.1,361.4c-0.1,0-0.3,0-0.4-0.1l-15.9-7.8c-0.3-0.2-0.6-0.5-0.6-0.9v-9.4c0-0.4,0.2-0.7,0.5-0.9
				c0.3-0.2,0.7-0.2,1,0l5.1,2.8l9.9-5.7c0.3-0.2,0.7-0.2,1,0c0.3,0.2,0.5,0.5,0.5,0.9v20.1c0,0.3-0.2,0.7-0.5,0.8
				C115.4,361.3,115.3,361.4,115.1,361.4z M100.1,352l13.9,6.8V342l-8.9,5.1c-0.3,0.2-0.7,0.2-1,0l-4.1-2.2V352z"/>
		</g>
		<g>
			<polygon fill="#FFFFFF" points="115.1,360.4 131,352.6 131,343.1 124.8,346.2 115.1,340.2 			"/>
			<path fill="#34AFD8" d="M115.1,361.4c-0.2,0-0.4-0.1-0.5-0.2c-0.3-0.2-0.5-0.5-0.5-0.8v-20.1c0-0.4,0.2-0.7,0.5-0.9
				c0.3-0.2,0.7-0.2,1,0l9.3,5.7l5.7-2.8c0.3-0.2,0.7-0.1,1,0c0.3,0.2,0.5,0.5,0.5,0.8v9.5c0,0.4-0.2,0.7-0.6,0.9l-15.9,7.8
				C115.4,361.3,115.2,361.4,115.1,361.4z M116.1,342v16.8L130,352v-7.2l-4.7,2.3c-0.3,0.2-0.7,0.1-1,0L116.1,342z"/>
		</g>
		<path fill="#34AFD8" d="M102.4,331.8v-1l-3.2,1.2l-7.1-4.2l10.3-4.4v-2.2l-12.9,5.5c-0.3,0.1-0.6,0.5-0.6,0.9
			c0,0.4,0.2,0.7,0.5,0.9l9.2,5.5c0.2,0.1,0.3,0.1,0.5,0.1c0.1,0,0.2,0,0.4-0.1l4-1.6C102.8,332.2,102.4,331.9,102.4,331.8z"/>
		<g>
			<polygon fill="#FFFFFF" points="104.7,346.2 90.3,338.4 99.1,333.2 114.9,340.2 			"/>
			<path fill="#34AFD8" d="M104.7,347.2c-0.2,0-0.3,0-0.5-0.1l-14.4-7.8c-0.3-0.2-0.5-0.5-0.5-0.9s0.2-0.7,0.5-0.9l8.8-5.2
				c0.3-0.2,0.6-0.2,0.9-0.1l15.8,6.9c0.3,0.2,0.6,0.5,0.6,0.9s-0.2,0.7-0.5,0.9l-10.2,6C105.1,347.2,104.9,347.2,104.7,347.2z
				 M92.4,338.3l12.3,6.7l8-4.8l-13.5-5.9L92.4,338.3z"/>
		</g>
		<g>
			<polygon fill="#FFFFFF" points="139.1,339.1 124.8,346.2 115.1,340.2 131,333.5 			"/>
			<path fill="#34AFD8" d="M124.8,347.2c-0.2,0-0.4,0-0.5-0.1l-9.8-6c-0.3-0.2-0.5-0.6-0.5-0.9c0-0.4,0.3-0.7,0.6-0.8l15.9-6.7
				c0.3-0.1,0.7-0.1,1,0.1l8.1,5.6c0.3,0.2,0.5,0.5,0.4,0.9c0,0.4-0.2,0.7-0.6,0.8l-14.3,7.1C125.1,347.2,125,347.2,124.8,347.2z
				 M117.3,340.4l7.6,4.7l12.3-6.1l-6.3-4.3L117.3,340.4z"/>
		</g>
		<path fill="#34AFD8" d="M139.8,327.1l-12.5-5.9v2.2l9.9,4.7l-6.4,4l-3.5-1.4v1.2c0,0.1-0.4,0.3-1,0.6l4.2,1.7
			c0.1,0,0.3,0.1,0.4,0.1c0.2,0,0.4-0.1,0.5-0.1l8.4-5.2c0.3-0.2,0.5-0.5,0.5-0.9C140.4,327.6,140.2,327.3,139.8,327.1z"/>
		<g>
			<path fill-rule="evenodd" clip-rule="evenodd" fill="#FFFFFF" d="M104.5,313.2h21c1.1,0,2,0.9,2,2v19c0,0.4-11.9,6-13,6l0,0
				c-1.1,0-12-5.6-12-6v-19C102.5,314.1,103.4,313.2,104.5,313.2z"/>
			<path fill="#34AFD8" d="M114.5,341.2c-0.3,0-1,0-6.9-2.9c-6.1-3.1-6.1-3.4-6.1-4.1v-19c0-1.7,1.3-3,3-3h21c1.7,0,3,1.3,3,3v19
				c0,0.7,0,0.9-6.7,4C115.5,341.2,114.8,341.2,114.5,341.2z M103.5,333.7c1.7,1.1,9.6,5.1,11,5.4c1.4-0.3,10.1-4.4,12-5.5v-18.5
				c0-0.6-0.4-1-1-1h-21c-0.6,0-1,0.4-1,1V333.7z"/>
		</g>
		<path fill-rule="evenodd" clip-rule="evenodd" fill="#34AFD8" d="M109.4,319.2h11c0.6,0,1,0.4,1,1c0,0.6-0.4,1-1,1h-11
			c-0.6,0-1-0.4-1-1C108.4,319.7,108.8,319.2,109.4,319.2z"/>
		<path fill-rule="evenodd" clip-rule="evenodd" fill="#34AFD8" d="M109.4,324.2h11c0.6,0,1,0.4,1,1c0,0.6-0.4,1-1,1h-11
			c-0.6,0-1-0.4-1-1C108.4,324.7,108.8,324.2,109.4,324.2z"/>
		<path fill-rule="evenodd" clip-rule="evenodd" fill="#34AFD8" d="M109.4,329.2h11c0.6,0,1,0.4,1,1c0,0.6-0.4,1-1,1h-11
			c-0.6,0-1-0.4-1-1C108.4,329.7,108.8,329.2,109.4,329.2z"/>
		<path fill="#34AFD8" d="M105.5,319.3h-4v-2h4c0.6,0,1-0.4,1-1v-3h2v3C108.5,317.9,107.1,319.3,105.5,319.3z"/>
	</g>
</g>
</svg>
