<svg xmlns="http://www.w3.org/2000/svg" viewBox="0 0 446 530.9" enable-background="new 0 0 446 530.9"><g><path d="M194.9 465.1l27.7 18.2-26.8-16.8c-.1-.2-.1-.5-.3-.7-.2-.4-.4-.6-.6-.7z" fill="#4fb5d7"/><path d="M193.2 481.2c2.1 0 3.8 1.7 3.8 3.8 0 2.1-1.7 3.8-3.8 3.8-2.1 0-3.8-1.7-3.8-3.8 0-2.1 1.8-3.8 3.8-3.8z" fill="#fff"/><path d="M193 464.7c-.1 0-.1 0-.2.1.1 0 .2-.1.2-.1zm1.1.7c-.6-.4-1.4-.5-2.1-.2l.4-.3c.1-.1.2-.1.3-.1.1 0 .1 0 .2-.1h1.3c.1 0 .1 0 .2.1.1 0 .2.1.3.2l.1.1.6.6.3.7-1.6-1zm.2-.6h-.2c.1-.1.1 0 .2 0zm16.2 55.4h3v3h-3c-.8 0-1.4-.6-1.5-1.3v-.4c.1-.8.7-1.3 1.5-1.3zm-17.3-31.5c2.1 0 3.8-1.7 3.8-3.8 0-2.1-1.7-3.8-3.8-3.8-2.1 0-3.8 1.7-3.8 3.8 0 2.1 1.8 3.8 3.8 3.8zm6.8-3.9c0 3.8-3 6.9-6.8 6.9-3.7 0-6.8-3.1-6.8-6.9 0-3.8 3.8-6.6 7.1-6.6s6.5 2.8 6.5 6.6zm13.5 35.4h-3c-.8 0-1.4.5-1.5 1.3v-16.3h-10.5v16.3h-.4c0-.8-.7-1.5-1.5-1.5h-2.6v-17c0-1.3 1-2.3 2.2-2.3h14.3c1.2 0 3 1.8 3 3v16.5zm7.4 0c.8 0 1.5.7 1.5 1.5s-.7 1.5-1.5 1.5h-1.5v-3h1.5zm-26.8-54.8l1.6 1c.2.9-.1 1.9-.9 2.4l-1.2.8-1.2-.8c-1-.7-1.3-2.1-.6-3.1l.4-.5c.6-.3 1.3-.2 1.9.2z" fill="#4fb5d7"/><path d="M219.5 520.2h-6v-16.5c0-1.3-1.8-3-3-3h-14.3c-1.2 0-2.2 1-2.2 2.3v17l-25.5.2v-33.3l23.6-16.3.9-.6 26.5 17.1v33.1zm-31.5-18.1h-13.5c-.8 0-1.5.7-1.5 1.5v12c0 .8.7 1.5 1.5 1.5h13.5c.8 0 1.5-.7 1.5-1.5v-12c0-.8-.7-1.5-1.5-1.5zm12-17.3c0-3.8-3.1-6.6-6.4-6.6-3.3 0-7.1 2.8-7.1 6.6s3 6.9 6.8 6.9c3.7 0 6.7-3.1 6.7-6.9z" fill="#fff"/><path d="M192.3 465l.2-.1-.4.3-.2.1.4-.3zm2.2-.1l-.2-.1s.1 0 .2.1zm-22.2 13.2l-7.8 5.1 7.8-5.1zm51.7 7.6v4l-30.4-20 1.2-.8c.8-.5 1.2-1.5.9-2.4l26.8 16.8c.7.4 1.5 1.6 1.5 2.4zm-29.9-21h-.2.2zm-19.6 37.4h13.5c.8 0 1.5.7 1.5 1.5v12c0 .8-.7 1.5-1.5 1.5h-13.5c-.8 0-1.5-.7-1.5-1.5v-12c0-.8.6-1.5 1.5-1.5zm12 3h-10.5v9h10.5v-9zm-31.3-15.7l9.4-6.1c-.6.4-.6 1.6-.6 2.4v3.4l-6.3 4.1c-.4.3-.8.4-1.2.4-.7 0-1.4-.4-1.9-1-.8-1.1-.5-2.5.6-3.2zm38.8 33.6l-25.5.1v-3l25.5-.2zm-1.7-54.2l1.2.8-.5.4-.9.6-28.1 18.5v-3.4c0-.8 0-2 .6-2.4l7.8-5.1 19.6-12.9s.1-.1.2-.1c-.2.1-.3.3-.4.5-.8 1-.5 2.4.5 3.1z" fill="#4fb5d7"/><path d="M219.5 524.7c0 .4-.7 1.5-1.1 1.5h-4.9v-3h6v1.5zm-43.5-19.6h10.5v9h-10.5z" fill="#fff"/><path d="M213.5 520.2h6v3h-6zm-20.5-50.2l-.9.6.9-.6zm3.6 49.9c.8 0 1.5.7 1.5 1.5s-.7 1.5-1.5 1.5h-2.6v-3h2.6zm-32.6-30.8l28.1-18.5-23.6 16.3v33.3h-3c-.9 0-1.5.7-1.5 1.5v-32.6zm29.6-19.5l30.4 20v32h-1.5c0-.8-.7-1.5-1.5-1.5h-1.5v-33l-26.5-17.1.6-.4zm-1.7-4.3l-19.6 12.9 19.4-12.7.2-.2zm30.6 56.3h1.5v4.5c0 2.9-2.7 4.5-5.6 4.5h-7.4c-1.2 0-2-.3-2-1.5v-7.3c.1.7.7 1.3 1.5 1.3h3v3h4.9c.4 0 1.1-1 1.1-1.5v-1.5h1.5c.8 0 1.5-.6 1.5-1.5zm-13.5-.2v.4-.2-.2zm-10.5 0v6.2c0 1.3-1.1 3-2.3 3h-27c-2.9 0-5.3-2.3-5.3-5.2v-3.8c0 .8.7 1.5 1.5 1.5h3v2.3c0 .4.3.8.8.8l24.8-.2v-3h2.6c.8 0 1.5-.7 1.5-1.5h.4zm-5.2-56.7h-.3.3zm36.2 28.5l-5.5-3.6v-4c0-.8-.8-2-1.4-2.4l9.4 6.2c1.1.7 1.3 2.1.7 3.1-.4.7-1.1 1-1.9 1-.5.1-.9 0-1.3-.3zm-61 29.9h-3c-.9 0-1.5-.7-1.5-1.5s.7-1.5 1.5-1.5h3v3z" fill="#4fb5d7"/><path d="M168.5 523.1l25.5-.1v3l-24.7.2c-.4 0-.8-.3-.8-.8v-2.3z" fill="#fff"/><path d="M159.2 522.1c.3.5.4 1.1.1 1.7-.3.5-.8.9-1.3.9h-12v-.8c0-.8-.7-1.5-1.5-1.5v-.7h10.5l-6.5-9c-.3-.5-1.2-1-1-1.5.3-.5.9-1.5 1.5-1.5h3l-5.9-7.6c-.3-.5-.5-1-.1-1.4.2-.2.9 0 1.5 0h3v1.5h-1.5l7.1 8.5c.3.3.5.7.5 1.1 0 .8-.7.9-1.6.9h-3l7.2 9.4z" fill="#4fb5d7"/><path d="M148.4 512.6l6.5 9h-20.9l6-9c.3-.5 1.8-1 1.5-1.5-.3-.5-.9-1.5-1.5-1.5h-3l5.9-7.6c.3-.5.4-1 .1-1.4-.1-.1-.7-.1-1.5 0h-3l6-6.3 6 6.3h-3c-.6 0-1.3-.2-1.5 0-.4.4-.2.9.1 1.4l5.9 7.6h-3c-.6 0-1.2 1-1.5 1.5-.3.6.6 1 .9 1.5z" fill="#fff"/><path d="M153.5 499.2c.3.3.8 1.5.8 2 0 .8-1.4 1-2.3 1h-1.5v-1.5l-6-6.3-6 6.3h1.4v1.5h-2.9c-.6 0-1.1-.1-1.5 0-.6.1-1.9-1.8 0-3l7.5-7.5c1-1.6 1.9-1.6 3 0l7.5 7.5zm-7.5 25.5v4.6c0 .8-.7 1.4-1.5 1.4s-1.5-.6-1.5-1.4v-4.6h3zm0-.9v.8h-3v-.8c0-.8.7-1.5 1.5-1.5s1.5.7 1.5 1.5zm-1.5-2.1v.7c-.8 0-1.5.7-1.5 1.5v.8h-12c-.6 0-1.1-.3-1.3-.9-.3-.5-.2-1.2.1-1.7l7.2-9.5h-1.5c-.6 0-2.6 0-2.8-.2-.4-.4 1-2.3 1.3-2.8l6-7.5h-.1v-1.5h1.6c.8-.1 1.4-.1 1.5 0 .4.4.2.9-.1 1.4l-5.9 7.6h3c.6 0 1.2 1 1.5 1.5.3.5-1.2 1-1.5 1.5l-6 9h10.5z" fill="#4fb5d7"/></g><path d="M26.9 493.6c-.7 0-1.5-.4-1.9-1-.7-1.1-.4-2.5.7-3.1l37.2-24.5c1-.7 2.4-.4 3.1.7.7 1.1.4 2.5-.7 3.1l-37.2 24.4c-.3.3-.7.4-1.2.4zm74.3 0c-.4 0-.8-.1-1.2-.4l-37.2-24.4c-1-.7-1.3-2.1-.7-3.1.7-1.1 2.1-1.3 3.1-.7l37.2 24.4c1 .7 1.3 2.1.7 3.1-.4.7-1.1 1.1-1.9 1.1zm-12.3 37.1h-7.3c-1.2 0-2-.2-2-1.5v-24h-10.6v22.5c0 1.3-1.1 3-2.3 3h-27c-2.9 0-5.3-2.3-5.3-5.2v-39.8c0-.8 0-2 .6-2.4l27.2-17.9c.7-.5 1.7-.5 2.4 0l28.4 17.8c.7.4 1.4 1.6 1.4 2.4v40.5c.1 3-2.7 4.6-5.5 4.6zm-4.9-4.5h4.9c.4 0 1.1-1 1.1-1.5v-37.5l-26.5-17.2-24.5 16.9v38.5c0 .4.3.7.8.7l24.7-.2v-23c0-1.3 1-2.3 2.2-2.3h14.3c1.2 0 3 1.7 3 3v22.6zm-25.5-9.1h-13.5c-.8 0-1.5-.7-1.5-1.5v-12c0-.8.7-1.5 1.5-1.5h13.5c.8 0 1.5.7 1.5 1.5v12c0 .9-.7 1.5-1.5 1.5zm-12-3h10.5v-9h-10.5v9zm20.6 8.9l-31.1.1c-.8 0-1.5-.7-1.5-1.5s.7-1.5 1.5-1.5l31.1-.3c.8 0 1.5.7 1.5 1.5 0 1-.7 1.7-1.5 1.7zm24.4.1h-10.5c-.8 0-1.5-.7-1.5-1.5s.7-1.5 1.5-1.5h10.5c.8 0 1.5.7 1.5 1.5 0 .9-.7 1.5-1.5 1.5zm-27.7-31.4c-3.7 0-6.8-3.1-6.8-6.9 0-3.8 3.8-6.6 7.1-6.6s6.4 2.8 6.4 6.6-3 6.9-6.7 6.9zm0-10.5c-2.1 0-3.8 1.7-3.8 3.8 0 2.1 1.7 3.8 3.8 3.8 2.1 0 3.8-1.7 3.8-3.8-.1-2.1-1.8-3.8-3.8-3.8zm-35.3 43.5h-27c-.6 0-1.1-.3-1.3-.9-.3-.5-.2-1.2.1-1.7l7.2-9.5h-1.5c-.6 0-2.6 0-2.8-.2-.4-.4 1-2.3 1.3-2.8l6-7.5h-3c-.6 0-1.1-.1-1.5 0-.6.1-1.9-1.8 0-3l7.5-7.5c1-1.6 1.9-1.6 3 0l7.5 7.5c.4.3.8 1.5.8 2 0 .8-1.4 1-2.3 1h-3l7.1 8.5c.3.3.5.7.5 1.1 0 .8-.7.9-1.6.9h-3l7.3 9.5c.3.5.4 1.1.1 1.7-.3.5-.8.9-1.4.9zm-24-3h21l-6.5-9c-.3-.5-1.2-1-1-1.4.3-.5.9-1.5 1.5-1.5h3l-5.9-7.6c-.3-.5-.5-1-.1-1.4.2-.2.9 0 1.5 0h3l-6-6.3-6 6.3h3c.9-.1 1.5-.1 1.5 0 .4.4.2.9-.1 1.4l-5.9 7.6h3c.6 0 1.2 1 1.5 1.5.3.5-1.2 1-1.5 1.5l-6 8.9zm10.5 9c-.8 0-1.5-.6-1.5-1.4v-5.4c0-.8.7-1.5 1.5-1.5s1.5.7 1.5 1.5v5.4c0 .7-.7 1.4-1.5 1.4z" fill="#a38269"/><path d="M325.9 525.7h-42.9v-25.3h-5.1v27.2c0 1.7 1.3 3 3 3h47.1c1.7 0 3-1.3 3-3v-27.2h-5.1v25.3zm2.1-46.3h-4.7v-10.3c0-1.7-1.3-3.2-3-3.2-1.4 0-12.1 7.7-15.5 11.2-2.6-2.9-14.5-11.2-16-11.2-1.7 0-3 1.3-3 3v6c0 3.3.1 4.5 0 4.5h-4.9c-1.7 0-3 1.3-3 3v13.5h18.2v-3.2h-12.9v-9h15.9v42h10.9v-42h16v9h-13.2v3.2h18.2v-13.5c0-1.6-1.3-3-3-3z" clip-rule="evenodd" fill="#a38269" fill-rule="evenodd"/><path d="M381 481.9h42.9v44.9h-42.9z" clip-rule="evenodd" fill="#fff" fill-rule="evenodd"/><path d="M397.1 483.5h10.9v42.2h-10.9z" clip-rule="evenodd" fill="#4fb5d7" fill-rule="evenodd"/><path d="M423.9 525.7h-42.9v-25.3h-5.1v27.2c0 1.7 1.3 3 3 3h47.1c1.7 0 3-1.3 3-3v-27.2h-5.1v25.3zm2.1-46.3h-4.7v-10.3c0-1.7-1.3-3.2-3-3.2-1.4 0-12.1 7.7-15.5 11.2-2.6-2.9-14.5-11.2-16-11.2-1.7 0-3 1.3-3 3v6c0 3.3.1 4.5 0 4.5h-4.9c-1.7 0-3 1.3-3 3v13.5h18.2v-3.2h-13.1v-9h42.9v9h-13.1v3.2h18.2v-13.5c0-1.6-1.3-3-3-3z" clip-rule="evenodd" fill="#4fb5d7" fill-rule="evenodd"/><path d="M204.6 405h-16.9v-11.9h13.4zm3.6 18.2h-20.5v-11.8h17.1z" fill="#fff"/><g><path d="M201.6 382.6c.6 1.4.4 3-.4 4.2-.8 1.3-2.2 2-3.7 2h-7.5c-1.5 0-2.9-.8-3.7-2-.8-1.3-1-2.8-.4-4.2l3.8-9c.7-1.7 2.3-2.8 4.2-2.8 1.8 0 3.4 1.1 4.1 2.8l3.6 9zm-4.2 1.8l-3.8-9-3.8 9h7.6z" fill="#4fb5d7"/><path d="M193.7 375.4l3.7 9h-7.5z" fill="#fff"/></g><g><path d="M179.4 390.4v40.8c0 .4-.3.7-.8.7h-.6c.2-.9.3-1.8.3-2.7 0-7.8-6.7-13.4-14.5-13.4-7.2 0-12.5 4.7-13.7 11.4-.1.6-.2 1.3-.2 1.9-.1 1-.2 1.8-.3 3.2h-4.6c-.5-5.3-5.1-9-10.6-9-5.4 0-10 3.3-10.5 8.5h-.7c-.4 0-.8-.3-.8-.7v-20.8c0-.4-.4-.5 0-.5h25.5c1.3 0 1.5-1.2 1.5-2.5v-14.8c0-1.2-1-2.2-2.3-2.2l32.3.1z" fill="#fff"/><path d="M126 433.1c0 1.1.2 2.2.6 3.2 0 .2.5.6-1.2.6h-3.6c-2.9 0-4.5-2.9-4.5-5.7v-20.8c0-2.9 3.1-5 6-5h21.7v-10.6c-2.5 0-4.5-2-4.5-4.5 0-2.4 2-4.4 4.5-4.4h35c2.5 0 3.9 2 3.9 4.4 0 .1.1 40.9.1 40.9-.1 2.7-1.1 5.7-4 5.7h-6.6c1.3-1.9 2.4-5 2.4-7.4 0-6.5-5.7-11-12.3-11-6 0-10.7 3.7-11.6 9.2l-2-.4c1.2-6.8 6.5-11.4 13.7-11.4 7.9 0 14.5 5.6 14.5 13.4 0 .9-.1 1.8-.3 2.7h.7c.4 0 .8-.3.8-.7 0 0-.1-40.6 0-40.8h-32.2c1.3 0 2.3 1 2.3 2.2v14.8c0 1.2-.3 2.5-1.5 2.5h-25.5c-.4 0 0 .1 0 .5v20.8c0 .4.3.7.8.7h.7l2.1.4v.7zm16.5 0c0-4.5-3.7-7.4-8.2-7.4-4.3 0-7.8 2.5-8.2 6.5l-2.1-.4c.5-5.3 5.1-8.5 10.5-8.5s10.1 3.7 10.6 9h4.5c.1-1.4.2-2.1.3-3.2 0-.7.1-1.3.2-1.9l2 .4c-.1.6-.1 1.2-.1 1.8 0 2.5.8 4.8 2.1 6.7.2.3.3.7 0 .7h-12.1l-.1-.6c.3-.9.6-2 .6-3.1z" fill="#4fb5d7"/></g><g><path d="M163.7 420.3c5.4 0 9.8 4.4 9.8 9.8s-4.4 9.7-9.8 9.7-9.8-4.4-9.8-9.7c0-5.4 4.4-9.8 9.8-9.8zm5.2 9.8c0-2.9-2.4-5.3-5.3-5.3s-5.3 2.4-5.3 5.3 2.3 5.2 5.3 5.2 5.3-2.3 5.3-5.2z" fill="#4fb5d7"/><path d="M163.7 424.8c2.9 0 5.3 2.4 5.3 5.3s-2.4 5.2-5.3 5.2-5.3-2.3-5.3-5.2c0-2.9 2.4-5.3 5.3-5.3z" fill="#fff"/></g><path d="M210.7 420.5l-2.4-7.5c-.6-1.9-2.3-3.1-4.3-3.1h-16.3v4.5h16.3l2.4 7.5h-18.7v4.5h18.7c1.4 0 2.8-.7 3.6-1.8.9-1.2 1.2-2.7.7-4.1z" fill="#4fb5d7"/><path d="M155.5 394.9h18c.8 0 1.5.7 1.5 1.5v12c0 .8-.7 1.5-1.5 1.5h-18c-.8 0-1.5-.7-1.5-1.5v-12c0-.9.6-1.5 1.5-1.5z" clip-rule="evenodd" fill="#4fb5d7" fill-rule="evenodd"/><path d="M134.5 427.9c-3.3 0-6 2.7-6 6s2.7 6 6 6 6-2.7 6-6c0-3.4-2.7-6-6-6z" fill="#4fb5d7"/><path d="M127 393.4h3c1.7 0 3 1.3 3 3v9c0 1.7-1.3 3-3 3h-3c-1.7 0-3-1.3-3-3v-9c0-1.7 1.3-3 3-3zm-3-3h9c1.7 0 3 1.3 3 3s-1.3 3-3 3h-9c-1.7 0-3-1.3-3-3s1.3-3 3-3z" clip-rule="evenodd" fill="#4fb5d7" fill-rule="evenodd"/><path d="M206.2 400.9l-2.1-6c-.6-1.8-2.3-3-4.2-3h-12.1v4.5h12.1l2.1 6h-14.2v4.5h14.2c1.5 0 2.8-.7 3.7-1.9.8-1.2 1-2.7.5-4.1z" fill="#4fb5d7"/><g fill="#a38269"><path d="M97.1 420.5l-2.4-7.5c-.6-1.9-2.3-3.1-4.3-3.1h-16.3v4.5h16.3l2.4 7.5h-18.7v4.5h18.7c1.4 0 2.8-.7 3.6-1.8.9-1.2 1.2-2.7.7-4.1zm-17-45.1l3.7 9h-7.5l3.8-9m0-4.5c-1.8 0-3.5 1.1-4.2 2.8l-3.7 9c-.6 1.4-.4 3 .4 4.2.8 1.2 2.2 2 3.7 2h7.5c1.5 0 2.9-.8 3.7-2 .8-1.3 1-2.8.4-4.2l-3.7-9c-.6-1.7-2.3-2.8-4.1-2.8z"/><path d="M41.9 394.9h18c.8 0 1.5.7 1.5 1.5v12c0 .8-.7 1.5-1.5 1.5h-18c-.8 0-1.5-.7-1.5-1.5v-12c0-.9.6-1.5 1.5-1.5z" clip-rule="evenodd" fill-rule="evenodd"/><path d="M70.4 390.4c0-2.5-1.4-4.5-3.9-4.5h-35.1c-2.5 0-4.5 2-4.5 4.5s2 4.5 4.5 4.5v10.6h-21.6c-2.9 0-6 2.1-6 5v20.8c0 2.9 1.6 5.7 4.5 5.7h3.6s1.2-.3 1.2-.6c-.4-1-.6-2-.6-3.2 0-4.5 3.7-7.4 8.3-7.4 4.5 0 8.2 2.8 8.2 7.4 0 1.1-.2 2.1-.6 3.1.2.1-.1.6.1.6h12c.3 0 .2-.4 0-.7-1.3-1.9-2.1-4.2-2.1-6.7 0-6.5 5.1-11 11.7-11s12.3 4.5 12.3 11c0 2.4-1.1 5.5-2.4 7.4h6.6c2.9 0 3.9-2.9 4-5.7-.1 0-.2-40.8-.2-40.8zm-4.5 40.8c0 .4-.3.7-.7.7h-.7c.2-.9.3-1.8.3-2.7 0-7.8-6.7-13.3-14.5-13.3-7.9 0-13.5 5.6-14 13.3-.1 1-.2 1.8-.3 3.2h-4.5c-.5-5.3-5.1-9-10.6-9s-10 3.3-10.5 8.5h-.8c-.4 0-.7-.3-.7-.7v-20.8c0-.4-.4-.5 0-.5h25.5c1.2 0 1.5-1.2 1.5-2.5v-14.8c0-1.2-1-2.2-2.2-2.2h32.2c-.1.2 0 40.8 0 40.8zm-45-3.3c-3.3 0-6 2.7-6 6s2.7 6 6 6 6-2.7 6-6c0-3.4-2.7-6-6-6zm29.2-7.5c-5.4 0-9.7 4.4-9.7 9.7 0 5.4 4.4 9.7 9.7 9.7 5.4 0 9.7-4.4 9.7-9.7.1-5.4-4.3-9.7-9.7-9.7zm0 14.9c-2.9 0-5.2-2.4-5.2-5.2 0-2.9 2.4-5.2 5.2-5.2 2.9 0 5.2 2.4 5.2 5.2.1 2.9-2.3 5.2-5.2 5.2z"/><path d="M13.4 393.4h3c1.7 0 3 1.3 3 3v9c0 1.7-1.3 3-3 3h-3c-1.7 0-3-1.3-3-3v-9c0-1.7 1.3-3 3-3zm-3-3h9c1.7 0 3 1.3 3 3s-1.3 3-3 3h-9c-1.7 0-3-1.3-3-3s1.3-3 3-3z" clip-rule="evenodd" fill-rule="evenodd"/><path d="M92.6 400.9l-2.1-6c-.6-1.8-2.3-3-4.2-3h-12.2v4.5h12.1l2.1 6h-14.2v4.5h14.2c1.5 0 2.8-.7 3.7-1.9.9-1.2 1.1-2.7.6-4.1z"/></g><path d="M353.6 195h58.1v45h-58.1zm-33 0h26.4v53h-26.4z" fill="#fff"/><path d="M368.5 246h30v3h-30v-3zm6-4.5h18v4.5h-18v-4.5zm-13.6-39.4h43.8v30.9h-43.8v-30.9zm3.8 3.8h36.1v23.1h-36.1v-23.1zm-26.2 20.6c.8 0 1.5.7 1.5 1.5v1.5c0 .8-.7 1.5-1.5 1.5s-1.5-.7-1.5-1.5v-1.5c0-.8.7-1.5 1.5-1.5zm0-6c.8 0 1.5.7 1.5 1.5s-.7 1.5-1.5 1.5-1.5-.7-1.5-1.5.7-1.5 1.5-1.5zm-13.5-10.5h18c.8 0 1.5.7 1.5 1.5s-.7 1.5-1.5 1.5h-18c-.8 0-1.5-.7-1.5-1.5s.7-1.5 1.5-1.5z" clip-rule="evenodd" fill="#4fb5d7" fill-rule="evenodd"/><path style="text-indent:0;text-align:start;line-height:normal;text-transform:none;block-progression:tb;-inkscape-font-specification:Sans" d="M323.594 193c-2.767 0-5 2.233-5 5v48c0 2.72 2.28 5 5 5h21.094c2.72 0 5-2.28 5-5v-49.5c0-.68-.123-1.41-.563-2.063-.439-.652-1.149-1.078-1.719-1.25-1.14-.345-1.947-.188-2.719-.188h-21.094zm0 4h21.094c.594 0 .735.023 1 .031v48.969c0 .68-.32 1-1 1h-21.094c-.68 0-1-.32-1-1v-48c0-.433.567-1 1-1z" color="#000" fill="#4fb5d7" overflow="visible" enable-background="accumulate" font-family="Sans"/><path d="M408.7 242h-52.1c-2.8 0-5-2.2-5-5v-39c0-2.8 2.2-5 5-5h52.1c2.8 0 5 2.2 5 5v39c0 2.8-2.2 5-5 5zm-52.1-45c-.6 0-1 .4-1 1v39c0 .6.4 1 1 1h52.1c.6 0 1-.4 1-1v-39c0-.6-.4-1-1-1h-52.1z" fill="#4fb5d7"/><g fill="#a38269"><path d="M74.4 234.8c1.7-1.7 4.6-1.7 6.3 0l10.5 10.5c1.7 1.7 1.7 4.6 0 6.3-1.7 1.7-4.6 1.7-6.3 0l-10.5-10.5c-1.7-1.7-1.7-4.6 0-6.3zm.3-14l2.1-2.1-31-31.1-2.1 2.1 31 31.1zm-2.6 9.1l2.1-2.1-37.1-37-2.1 2.1 37.1 37zm-5.8 5.8l2.1-2.1-37.6-37.7-2.1 2.1 37.6 37.7zm-8.8 3.4l2.1-2.1-32.3-32.3-2.1 2.1 32.3 32.3zm-5.8 0l-2.1-2.1 25.5-25.5 2.1 2.1-25.5 25.5zm-7.5-4.5l-2.1-2.1 28.5-28.5 2.1 2.1-28.5 28.5zm-6.1-5.7l-2.1-2.1 29-28.8 2.1 2.1-29 28.8zm-10.4-13.8l-2.1-2.1 25.5-25.5 2.1 2.1-25.5 25.5zm4.3 7.9l-2.1-2.1 28.6-28.7 2.1 2.1-28.6 28.7z" clip-rule="evenodd" fill-rule="evenodd"/><path d="M46.1 190c7 0 14.2 3.2 19.7 8.8 4.9 4.9 8 11.1 8.7 17.4.6 6.1-1.1 11.5-4.9 15.3-3.3 3.3-7.8 5-12.9 5-7 0-14.2-3.2-19.7-8.8-10-10-11.7-24.7-3.7-32.7 3.2-3.2 7.6-5 12.8-5m0-3c-5.7 0-11.1 1.9-15 5.9-9.2 9.2-7.5 25.7 3.7 36.9 6.4 6.4 14.4 9.7 21.9 9.7 5.7 0 11.1-1.9 15-5.9 9.2-9.2 7.5-25.7-3.7-36.9-6.4-6.4-14.4-9.7-21.9-9.7z"/><path d="M35.9 242.2c-.9-.9-2-1.3-3.3-1.3-1.2 0-2.4.5-3.3 1.3-1.8 1.8-1.8 4.7 0 6.5l3.5 3.5c3-1.1 5.4-3.5 6.5-6.5l-3.4-3.5zm-7.9 7.9c-2.6-2.6-2.6-6.8 0-9.3 1.2-1.2 2.9-1.9 4.7-1.9 1.8 0 3.4.7 4.7 1.9l2.7 2.7c.1-.6.1-1.1.1-1.7 0-6.2-5-11.2-11.2-11.2-6.2 0-11.2 5-11.2 11.2 0 6.2 5 11.2 11.2 11.2.6 0 1.2-.1 1.8-.2l-2.8-2.7z" clip-rule="evenodd" fill-rule="evenodd"/></g><path d="M255.4 246h30v3h-30v-3zm6-4.5h18v4.5h-18v-4.5zm-13.6-39.4h43.8v30.9h-43.8v-30.9zm3.8 3.8h36.1v23.1h-36.1v-23.1zm-26.2 20.6c.8 0 1.5.7 1.5 1.5v1.5c0 .8-.7 1.5-1.5 1.5s-1.5-.7-1.5-1.5v-1.5c0-.8.7-1.5 1.5-1.5zm0-6c.8 0 1.5.7 1.5 1.5s-.7 1.5-1.5 1.5-1.5-.7-1.5-1.5.7-1.5 1.5-1.5zm-13.5-10.5h18c.8 0 1.5.7 1.5 1.5s-.7 1.5-1.5 1.5h-18c-.8 0-1.5-.7-1.5-1.5s.7-1.5 1.5-1.5z" clip-rule="evenodd" fill="#a38269" fill-rule="evenodd"/><path style="text-indent:0;text-align:start;line-height:normal;text-transform:none;block-progression:tb;-inkscape-font-specification:Sans" d="M210.594 193c-2.798 0-5 2.317-5 5v48c0 2.72 2.28 5 5 5h21.094c2.72 0 5-2.28 5-5v-49.5c0-.68-.123-1.41-.563-2.063-.439-.652-1.149-1.078-1.719-1.25-1.14-.345-1.947-.188-2.719-.188h-21.094zm0 4h21.094c.594 0 .735.023 1 .031v48.969c0 .68-.32 1-1 1h-21.094c-.68 0-1-.32-1-1v-48c0-.517.398-1 1-1z" color="#000" fill="#a38269" overflow="visible" enable-background="accumulate" font-family="Sans"/><path d="M295.6 242h-52.1c-2.8 0-5-2.2-5-5v-39c0-2.8 2.2-5 5-5h52.1c2.8 0 5 2.2 5 5v39c0 2.8-2.2 5-5 5zm-52-45c-.6 0-1 .4-1 1v39c0 .6.4 1 1 1h52.1c.6 0 1-.4 1-1v-39c0-.6-.4-1-1-1h-52.1z" fill="#a38269"/><path d="M148 54.4h29.7v11.4h-29.7zm-37.1-32.8h31.1v44.3h-31.1z" clip-rule="evenodd" fill="#fff" fill-rule="evenodd"/><path d="M111.9 19.5h30c1.7 0 3 1.3 3 3v43.5c0 1.7-1.3 3-3 3h-30c-1.7 0-3-1.3-3-3v-43.5c0-1.7 1.3-3 3-3zm1.5 4.5h27v40.5h-27v-40.5z" clip-rule="evenodd" fill="#4fb5d7" fill-rule="evenodd"/><path d="M115.1 51h-1.8c-.8 0-1.5-.8-1.4-1.6 0-.9.7-1.5 1.6-1.5 13.1.6 26.2-7.6 26.9-13.5.1-.9.9-1.5 1.7-1.3.8.1 1.4.9 1.3 1.8-1 7.3-15.4 16.1-28.3 16.1z" fill="#4fb5d7"/><path d="M133.6 51c2.9 0 5.2 2.4 5.2 5.2 0 2.8-2.4 5.2-5.2 5.2-2.9 0-5.2-2.4-5.2-5.2 0-2.8 2.3-5.2 5.2-5.2zm0 3c1.2 0 2.2 1 2.2 2.2 0 1.2-1 2.2-2.2 2.2-1.2 0-2.2-1-2.2-2.2 0-1.2 1-2.2 2.2-2.2zm-10.5 0c1.2 0 2.2 1 2.2 2.2 0 1.2-1 2.2-2.2 2.2-1.2 0-2.2-1-2.2-2.2 0-1.2 1-2.2 2.2-2.2zm-.7-54h9c1.7 0 3 1.3 3 3v15h-15v-15c0-1.7 1.3-3 3-3zm27 42h27c1.7 0 3 1.3 3 3v6h-33v-6c0-1.7 1.3-3 3-3zm-3 10.5v13.5c0 1.7 1.3 3 3 3h27c1.7 0 3-1.3 3-3v-13.5h-33zm28.5 12h-24v-7.5h7.5v4.5h13.5v-4.5h3v7.5z" clip-rule="evenodd" fill="#4fb5d7" fill-rule="evenodd"/><path d="M330.4 15.1h33.4v44h-33.4zm-34.5 19.5h46.8v32.1h-46.8z" fill="#fff"/><path d="M340.8 23.1c1.7 0 3 1.3 3 3s-1.3 3-3 3-3-1.3-3-3c.1-1.6 1.4-3 3-3zm15 0c1.7 0 3 1.3 3 3s-1.3 3-3 3-3-1.3-3-3c0-1.6 1.4-3 3-3zm-29.9 19.5c1.7 0 3 1.3 3 3s-1.3 3-3 3-3-1.3-3-3 1.3-3 3-3zm-15 0c1.7 0 3 1.3 3 3s-1.3 3-3 3-3-1.3-3-3 1.3-3 3-3zm-13.7 12h43v1.493h-43zm0 2.986l43 .021v1.493l-43-.014zm-1.3-25.486h45.1c1.7 0 3 1.3 3 3v31.5c0 1.7-1.3 3-3 3h-45.2c-1.7 0-3-1.3-3-3v-31.5c.1-1.6 1.4-3 3.1-3zm1.3 4.5h43v28.5h-43zm45.1-14.6v-13.9c0-1.7 1.3-3 3-3h6c1.7 0 3 1.3 3 3v13.9h3v-13.9c0-3.3-2.7-6-6-6h-6c-3.3 0-6 2.7-6 6v13.9zm-29.9 19.5v-13.9c0-1.7 1.3-3 3-3h6c1.7 0 3 1.3 3 3v13.8h3v-13.8c0-3.3-2.7-6-6-6h-6c-3.3 0-6 2.7-6 6v13.8h3zm50.9-28.9h-30c-1.7 0-3 1.3-3 3v14h4.5v-12.5h27v37.5h-14.8v4.5h16.4c1.7 0 3-1.3 3-3v-40.5c-.1-1.6-1.4-3-3.1-3zm-16.3 34.1l14.8-14.914v-1.971l-14.8 14.786zm0 4.2l14.8-14.829v-2.064l-14.8 14.793z" fill="#4fb5d7" fill-rule="evenodd"/><g fill="#a38269"><path d="M21.4 20.9h30c1.7 0 3 1.3 3 3v43.5c0 1.7-1.3 3-3 3h-30c-1.7 0-3-1.3-3-3v-43.5c0-1.6 1.3-3 3-3zm1.5 4.5h27v40.5h-27v-40.5z" clip-rule="evenodd" fill-rule="evenodd"/><path d="M24.6 52.4h-1.8c-.8 0-1.5-.8-1.4-1.6 0-.9.7-1.5 1.6-1.5 13.1.6 26.2-7.6 26.9-13.5.1-.9.9-1.5 1.7-1.3.8.1 1.4.9 1.3 1.8-1 7.4-15.3 16.1-28.3 16.1z"/><path d="M43.1 52.4c2.9 0 5.2 2.4 5.2 5.2 0 2.8-2.4 5.2-5.2 5.2-2.9 0-5.2-2.4-5.2-5.2 0-2.8 2.3-5.2 5.2-5.2zm0 3c1.2 0 2.2 1 2.2 2.2 0 1.2-1 2.2-2.2 2.2-1.2 0-2.2-1-2.2-2.2 0-1.2 1-2.2 2.2-2.2zm-10.5 0c1.2 0 2.2 1 2.2 2.2 0 1.2-1 2.2-2.2 2.2-1.2 0-2.2-1-2.2-2.2 0-1.2 1-2.2 2.2-2.2zm-.7-54h9c1.7 0 3 1.3 3 3v15h-15v-15c0-1.6 1.3-3 3-3zm27 42h27c1.7 0 3 1.3 3 3v6h-33v-6c0-1.6 1.3-3 3-3zm-3 10.5v13.5c0 1.7 1.3 3 3 3h27c1.7 0 3-1.3 3-3v-13.5h-33zm28.5 12h-24v-7.5h7.5v4.5h13.5v-4.5h3v7.5z" clip-rule="evenodd" fill-rule="evenodd"/></g><path d="M247.4 23.1c1.7 0 3 1.3 3 3s-1.3 3-3 3-3-1.3-3-3c0-1.6 1.3-3 3-3zm15 0c1.7 0 3 1.3 3 3s-1.3 3-3 3-3-1.3-3-3c0-1.6 1.3-3 3-3zm-30 19.5c1.7 0 3 1.3 3 3s-1.3 3-3 3-3-1.3-3-3 1.3-3 3-3zm-15 0c1.7 0 3 1.3 3 3s-1.3 3-3 3-3-1.3-3-3 1.3-3 3-3zm-13.7 12l43 .007v1.493h-43zm0 2.986l43 .014v1.5l-43-.014zm-1.3-25.486h45.2c1.7 0 3 1.3 3 3v31.5c0 1.7-1.3 3-3 3h-45.2c-1.7 0-3-1.3-3-3v-31.5c0-1.6 1.3-3 3-3zm1.3 4.5h43v28.5h-43zm45.2-14.6v-13.9c0-1.7 1.3-3 3-3h6c1.7 0 3 1.3 3 3v13.9h3v-13.9c0-3.3-2.7-6-6-6h-6c-3.3 0-6 2.7-6 6v13.9zm-30 19.5v-13.9c0-1.7 1.3-3 3-3h6c1.7 0 3 1.3 3 3v13.8h3v-13.8c0-3.3-2.7-6-6-6h-6c-3.3 0-6 2.7-6 6v13.8h3zm51-28.9h-30c-1.7 0-3 1.3-3 3v14h4.5v-12.5h27v37.5h-14.9v4.5h16.4c1.7 0 3-1.3 3-3v-40.5c0-1.6-1.4-3-3-3zm-16.4 34.1l14.9-15.007v-2.021l-14.9 14.929zm0 4.2l14.9-14.814v-2.193l-14.9 14.907z" clip-rule="evenodd" fill="#a38269" fill-rule="evenodd"/><g><path d="M340.9 115.8v10.5c0 6.6-6.5 16.5-19.5 16.5h-1.5c-13.1 0-19.5-9.9-19.5-16.5v-10.5c2.5 1 4.4 1.5 5.8 1.5 8.1 0 3.6-13.5 9.2-13.5h10.5c5.6 0 .2 13.4 8.9 13.4 1.5.1 3.5-.3 6.1-1.4zm-4 10.5v-5.2c-.8.1-1.5.2-2.1.2-8.4 0-9.2-7.7-9.7-11.3l-.3-2.1h-8.5c-.2.7-.4 1.7-.5 2.5-.6 3.6-1.8 11-9.6 11l-1.8-.1v5.1c0 4.3 4.5 12.5 15.5 12.5h1.5c10.9-.1 15.5-8.2 15.5-12.6z" fill="#4fb5d7"/><path d="M336.9 121.1v5.2c0 4.3-4.5 12.5-15.5 12.5h-1.5c-11 0-15.5-8.1-15.5-12.5v-5.1c.6.1 1.2.1 1.8.1 7.8 0 9-7.5 9.6-11 .1-.8.3-1.8.5-2.5h8.5l.3 2.1c.4 3.7 1.3 11.3 9.7 11.3.6.1 1.3 0 2.1-.1z" fill="#fff"/></g><path d="M304.9 94.8c1.7 0 3 1.3 3 3v13.5c0 1.7-1.3 3-3 3s-3-1.3-3-3v-13.5c0-1.6 1.3-3 3-3zm31.5 0c1.7 0 3 1.3 3 3v13.5c0 1.7-1.3 3-3 3s-3-1.3-3-3v-13.5c0-1.6 1.3-3 3-3zm-15.7 40.5s-13.1-8.2-6.4-12.5c3.8-2.5 6.3 2.2 6.3 2.2s2.5-4.7 6.3-2.2c6.7 4.4-6.2 12.5-6.2 12.5" clip-rule="evenodd" fill="#4fb5d7" fill-rule="evenodd"/><path d="M339.4 156.3l-18 3h-1.5l-18-3v-4.5l18.7 2.9 18.7-2.9v4.5zm-18-11.5h-1.5c-7 0-12.3-2.7-15.9-6.3l-2.1 10.3 18 3h1.5l18-3-2.1-10.3c-3.6 3.7-8.9 6.3-15.9 6.3z" clip-rule="evenodd" fill="#4fb5d7" fill-rule="evenodd"/><circle r="2" cy="110.4" cx="304.9" clip-rule="evenodd" fill="#fff" fill-rule="evenodd"/><circle r="2" cy="110.4" cx="336.4" clip-rule="evenodd" fill="#fff" fill-rule="evenodd"/><path d="M178.7 149.1h-1.5c-1 0-4.9-1.9-6-3l-8.2-5c-.7-.7-.9-1.6-.8-2.5 0 0 1.5-3.4 1.5-6.2 0-9.1-1.5-26.8-1.5-26.8 0-1.7 1.3-3 3-3h4.5c1.7 0 3 1.3 3 3l-1.5 32.3 6 5.2c2.4 2.1 2.8 4.6 1.5 6z" clip-rule="evenodd" fill="#fff" fill-rule="evenodd"/><g><path d="M155.2 151.6v7.3l-10.1 1.1-.9-2c-.4-.9-1.3-1.5-2.3-1.5-1 0-1.9.6-2.3 1.5l-.9 2-10.1-1.1v-7.3h26.6z" fill="#fff"/><path d="M157.7 161.1l-14.2 1.5-1.6-3.8-1.6 3.8-14.2-1.5v-12h31.5v12zm-12.6-1.2l10.1-1.1v-7.3h-26.5v7.3l10.1 1.1.9-2c.4-.9 1.3-1.5 2.3-1.5 1 0 1.9.6 2.3 1.5l.8 2z" fill="#4fb5d7"/></g><path d="M126.2 146.1h31.5v1.5h-31.5v-1.5z" clip-rule="evenodd" fill="#4fb5d7" fill-rule="evenodd"/><g><path d="M159.4 96.2l-1.7 7.9-2.9-.6 1.6-7.3zm-1.7 46.9h-31.5s1-1.8 1.8-5l2.7.5h22.5l-.1-.1 2.9-.1c.9 3 1.7 4.7 1.7 4.7z" fill="#4fb5d7"/><path d="M153.2 138.6h-22.5s3-3.6 3-10.3c0-6.8-3-16.7-3-16.7s6.8 4.5 11.1 4.5c4.7 0 11.4-4.5 11.4-4.5s-3 9.5-3 16.1c0 6.2 2.5 10.1 2.9 10.8.1 0 .1.1.1.1z" fill="#fff"/><path d="M154.1 106.7l.7-3.2 2.9.6s-3 13.5-3 23.6c0 4.4.7 8 1.4 10.7l-2.9.1c-.5-.7-2.9-4.5-2.9-10.8 0-6.6 3-16.1 3-16.1s-6.7 4.5-11.4 4.5c-4.3 0-11.1-4.5-11.1-4.5s3 9.9 3 16.7c0 6.7-3 10.3-3 10.3l-2.7-.5c.6-2.5 1.2-5.8 1.2-9.8 0-10.3-3-24.2-3-24.2l2.8-.7.8 3.3c3.3 2.2 8.3 4.9 12 4.9 4 0 9-2.8 12.2-4.9zm-26.8-10.5l1.8 7.2-2.8.7-2-7.9z" fill="#4fb5d7"/></g><path d="M163.7 132.4c0 .6-.1 1.3-.2 1.9h7.9l.2-4.6h-7.9v2.7zm-.1-4.7h8.1l.5-11.3h-9.2c.3 3.6.5 7.7.6 11.3zm9-19.6l.1-2.6c0-1.7-1.3-3-3-3h-4.5c-1.7 0-3 1.3-3 3 0 0 .1 1 .2 2.6h10.2zm-9.7 6.2h9.4l.2-3.9h-9.9c.1 1.2.2 2.5.3 3.9zm14.3 28.8l-6-5.2.1-1.6h-8.2c-.4 1.3-.8 2.3-.8 2.3-.1.9.1 1.8.8 2.5l8.2 5c1.1 1.1 5 3 6 3h1.5c1.2-1.4.8-3.9-1.6-6z" clip-rule="evenodd" fill="#4fb5d7" fill-rule="evenodd"/><path d="M142.7 121.3l-6 3.7v-7.5l6 3.8zm-1.5 0l6 3.7v-7.5l-6 3.8z" fill="#4fb5d7"/><g fill="#a38269"><path d="M59.3 152.1v6.3l-9.3 1-.7-1.7c-.5-1.1-1.6-1.8-2.8-1.8-1.2 0-2.3.7-2.8 1.8l-.7 1.7-9.3-1v-6.3h25.6m3-3h-31.5v12l14.2 1.5 1.6-3.7 1.6 3.7 14.2-1.5v-12h-.1z"/><path d="M30.8 146.1h31.5v1.5h-31.5v-1.5z" clip-rule="evenodd" fill-rule="evenodd"/><path d="M47.3 121.3l-6 3.7v-7.5l6 3.8zm-1.5 0l6 3.7v-7.5l-6 3.8z"/><path d="M62.3 104.1s-3 13.5-3 23.6c0 9.4 3 15.4 3 15.4h-31.5s3-5.7 3-14.8c0-10.3-3-24.2-3-24.2l-2-7.9h3l2.6 10.5c3.3 2.2 8.3 4.9 12 4.9 4 0 9-2.7 12.3-4.9l2.3-10.5h3l-1.7 7.9zm-24 24.2c0 6.7-3 10.3-3 10.3h22.5s-3-4-3-10.9c0-6.6 3-16.1 3-16.1s-6.7 4.5-11.4 4.5c-4.3 0-11.1-4.5-11.1-4.5s3 9.9 3 16.7z" clip-rule="evenodd" fill-rule="evenodd"/><path d="M68.3 132.4c0 .6-.1 1.3-.2 1.9h7.9l.2-4.6h-7.9v2.7zm-.1-4.7h8.1l.5-11.3h-9.2c.3 3.6.5 7.7.6 11.3zm9-19.6l.1-2.6c0-1.7-1.3-3-3-3h-4.5c-1.7 0-3 1.3-3 3 0 0 .1 1 .2 2.6h10.2zm-9.7 6.2h9.4l.2-3.9h-9.9c.1 1.2.2 2.5.3 3.9zm14.3 28.8l-6-5.2.1-1.6h-8.2c-.4 1.3-.8 2.3-.8 2.3-.1.9.1 1.8.8 2.5l8.2 5c1.1 1.1 5 3 6 3h1.5c1.2-1.4.8-3.9-1.6-6z" clip-rule="evenodd" fill-rule="evenodd"/></g><path d="M240 135.3s-13.1-8.2-6.4-12.5c3.8-2.5 6.3 2.2 6.3 2.2s2.5-4.7 6.3-2.2c6.7 4.4-6.2 12.5-6.2 12.5" clip-rule="evenodd" fill="#a38269" fill-rule="evenodd"/><path d="M258.7 156.3l-18 3h-1.5l-18-3v-4.5l18.7 2.9 18.7-2.9v4.5z" clip-rule="evenodd" fill="#a38269" fill-rule="evenodd"/><path d="M244.1 107.8l.3 2.1c.4 3.7 1.3 11.3 9.7 11.3.7 0 1.4-.1 2.1-.2v5.2c0 4.4-4.5 12.5-15.5 12.5h-1.5c-11 0-15.5-8.1-15.5-12.5v-5.1c.6.1 1.2.1 1.8.1 7.8 0 9-7.5 9.6-11 .1-.8.3-1.8.5-2.5h8.5m1.1-3.9h-10.5c-5.6 0-1.1 13.5-9.2 13.5-1.5 0-3.4-.4-5.8-1.5v10.5c0 6.6 6.4 16.5 19.5 16.5h1.5c13 0 19.5-9.9 19.5-16.5v-10.5c-2.6 1-4.6 1.4-6.1 1.4-8.7.1-3.3-13.4-8.9-13.4z" fill="#a38269"/><path d="M240.7 144.8h-1.5c-7 0-12.3-2.7-15.9-6.3l-2.1 10.3 18 3h1.5l18-3-2.1-10.3c-3.6 3.7-9 6.3-15.9 6.3zm-16.5-50c-1.7 0-3 1.3-3 3v13.5c0 1.7 1.3 3 3 3s3-1.3 3-3v-13.5c0-1.6-1.4-3-3-3zm0 17.6c-1.1 0-2-.9-2-2s.9-2 2-2 2 .9 2 2-.9 2-2 2zm31.5-17.6c-1.7 0-3 1.3-3 3v13.5c0 1.7 1.3 3 3 3s3-1.3 3-3v-13.5c0-1.6-1.4-3-3-3zm0 17.6c-1.1 0-2-.9-2-2s.9-2 2-2 2 .9 2 2-.9 2-2 2z" clip-rule="evenodd" fill="#a38269" fill-rule="evenodd"/><path d="M215.8 321.1l-17.6-19.4c-.4-.4-1.1-.5-1.6-.2l-6.5 3.8 4.7-8.2c.6-1.3.2-2.9-1-3.9l-16.6-13.6c-.6-.5-1.3-.8-2.1-.8h-4.1c-.9 0-1.8.4-2.5 1.1-.5.6-.8 1.3-.9 2v.4l-.3.3c-1.2 1.1-3.5 2.5-8.7 2.5-5.2 0-7.4-1.4-8.7-2.5l-.3-.3v-.4c0-.8-.4-1.5-.9-2-.6-.7-1.5-1.1-2.5-1.1h-4.2c-.8 0-1.5.3-2.1.8l-16.6 13.6c-1.2 1-1.6 2.6-.9 4l6.9 12c.8 1.7 1.3 2.2 2.3 2.2h6.9l.1.8c.1.6.3 1.5.5 2.4.5 2.1 1 4.8 1 6.8 0 6.9-1.2 13.3-1.5 14.5-.2 1 .1 2 .8 2.7.6.7 1.6 1.2 2.6 1.2h31.1l1.5 5.1c.2.6.9 1 1.5.9l17.5-4.9c.6-.2.9-.7.9-1.3l-.5-8.6 7.2 4.7c.5.3 1.2.2 1.6-.2l13-12.7c.4-.4.4-1.2 0-1.7z" fill="#fff"/><path d="M216.5 320.5l-17.6-19.4c-.7-.8-1.9-1-2.8-.4l-3.3 1.9 2.9-5c.8-1.8.3-3.9-1.2-5.2l-16.6-13.6c-.8-.6-1.7-1-2.7-1h-4.2c-1.2 0-2.4.5-3.2 1.4-.7.7-1.1 1.7-1.1 2.7-1 .9-2.9 2.2-8 2.2s-7-1.4-8-2.2c-.1-1-.5-1.9-1.1-2.7-.8-.9-2-1.4-3.2-1.4h-4.2c-1 0-2 .3-2.7 1l-16.6 13.6c-1.5 1.3-2 3.4-1.2 5.2l6.9 12.1c.7 1.5 1.5 2.7 3.2 2.7h6c.3 2.1 1.5 6.2 1.5 9.1 0 7.5-1.5 14.3-1.5 14.4-.2 1.3.2 2.5 1 3.5s2 1.5 3.3 1.5h30.3l1.3 4.4c.3 1 1.2 1.6 2.2 1.6l.6-.1 17.5-4.9c1-.3 1.7-1.2 1.6-2.3l-.3-6.6 5.6 3.6c.9.6 2.1.5 2.8-.3l13-12.7c.6-.9.6-2.2-.2-3.1zm-56.4 15.8h-18s1.3-7 1.3-14.9c0-6.1-1.4-13.6-1.4-13.6h-9.7l-6.9-12.1 16.7-13.4h4.5l-.3.1c0 3.3 4.7 6 12.4 6h1.5v47.9zm4.5 0h-1.5v-48.2l1.5-.3v48.5zm3-49.6c2.2-1.1 3.4-2.6 3.4-4.3l-.4-.1h4.5l16.6 13.4-6.4 11.1-1.7 1h-8.6s-.4 2.3-.8 5.4l-6.7 3.9v-30.4zm0 49.6v-11.6l3.4 11.6h-3.4zm9.7 5.5l-1.1-3.8 14.5-3.6.2 3.7-13.6 3.7zm16.6-15c-.7-.5-1.6-.5-2.4-.1-.7.4-1.2 1.2-1.1 2.1l.1 2.6-15.2 3.8-4.3-14.8 13.9-8h.7c1.4 0 2.2-.8 2.8-2l8.4-4.8 10.9 12-11.9 10.4-1.9-1.2zm7.7 5l-3.3-2.1 11.3-10 2.1 2.3-10.1 9.8zm-8.5-19.5c-1.7 0-3 1.3-3 3s1.3 3 3 3 3-1.3 3-3c0-1.6-1.3-3-3-3z" fill="#4fb5d7"/><path d="M384.6 324.3h-24.7l-19.2 1s-1.8-14.2 2.3-17.5c4.1-3.3 16.9-4 16.9-4v-24.3h24.7v44.8z" fill="#fff"/><path d="M351.6 286.6c2.5 0 4.5 2 4.5 4.5s-2 4.5-4.5 4.5-4.5-2-4.5-4.5 2-4.5 4.5-4.5zm9-1.5h6v4.5h-6v-4.5zm9 0h6v4.5h-6v-4.5zm9 0h6v4.5h-6v-4.5z" clip-rule="evenodd" fill="#4fb5d7" fill-rule="evenodd"/><path d="M382.3 327.1h-39c-4.5 0-6.7-3.7-6.7-8.2 0-13 11-16.3 21-17.2v-20.3c0-4.5-.8-3.7 3.7-3.7h22.5c4.5 0 3.7-.8 3.7 3.7v37.5c.1 4.5-.6 8.2-5.2 8.2zm-22.5-21c-6.6 0-18.7.9-18.7 12.7 0 2.1 2.4 3.7 4.5 3.7h36c2.1 0 1.5-1.7 1.5-3.7v-34.5c0-2.1-.2-2.2-2.2-2.2h-16.5c-2.1 0-2.2.2-2.2 2.2v21.7h-2.4z" fill="#4fb5d7"/><path d="M367.4 339h24.7l19.2 1s7.8-7.6 0-14.7c-3.9-3.5-18.2-1.1-18.2-1.1l-.9-9.7h-24.7v24.5z" fill="#fff"/><path d="M396.4 333.1l-2.8-.9 6.2-9.6 2.8.9-6.2 9.6zm-6 0l-2.8-.9 6.2-9.6 2.8.9-6.2 9.6z" clip-rule="evenodd" fill="#4fb5d7" fill-rule="evenodd"/><path d="M369.6 342.1h39.8c4.5 0 6.7-3.7 6.7-8.2 0-13-11.7-14-21-11.1v-6.8c0-4.5.8-3.7-3.7-3.7h-22.5c-4.5 0-3.7-.8-3.7 3.7v18c-.1 4.4-.1 8.1 4.4 8.1zm23.3-15c6.6 0 18.7-5.2 18.7 6.7 0 2.1-2.4 2.2-4.5 2.2h-36c-2.1 0-1.5-.2-1.5-2.2v-15c0-2.1.2-2.2 2.2-2.2h16.5c2.1 0 2.2.2 2.2 2.2v8.2h2.4z" fill="#4fb5d7"/><g fill="#a38269"><path d="M296.9 333.1l-2.8-.9 6.2-9.6 2.8.9-6.2 9.6zm-6 0l-2.8-.9 6.2-9.6 2.8.9-6.2 9.6z" clip-rule="evenodd" fill-rule="evenodd"/><path d="M270.1 342.1h39.8c4.5 0 6.7-3.7 6.7-8.2 0-13-11.7-14-21-11.1v-6.8c0-4.5.8-3.7-3.7-3.7h-22.5c-4.5 0-3.7-.8-3.7 3.7v18c0 4.4-.1 8.1 4.4 8.1zm23.3-15c6.6 0 18.7-5.2 18.7 6.7 0 2.1-2.4 2.2-4.5 2.2h-36c-2.1 0-1.5-.2-1.5-2.2v-15c0-2.1.2-2.2 2.2-2.2h16.5c2.1 0 2.2.2 2.2 2.2v8.2h2.4z"/><path d="M252.1 286.6c2.5 0 4.5 2 4.5 4.5s-2 4.5-4.5 4.5-4.5-2-4.5-4.5 2-4.5 4.5-4.5zm9-1.5h6v4.5h-6v-4.5zm9 0h6v4.5h-6v-4.5zm9 0h6v4.5h-6v-4.5z" clip-rule="evenodd" fill-rule="evenodd"/><path d="M282.9 327.1h-39c-4.5 0-6.7-3.7-6.7-8.2 0-13 11-16.3 21-17.2v-20.3c0-4.5-.8-3.7 3.7-3.7h22.5c4.5 0 3.7-.8 3.7 3.7v37.5c0 4.5-.7 8.2-5.2 8.2zm-22.5-21c-6.6 0-18.7.9-18.7 12.7 0 2.1 2.4 3.7 4.5 3.7h36c2.1 0 1.5-1.7 1.5-3.7v-34.5c0-2.1-.2-2.2-2.2-2.2h-16.5c-2.1 0-2.2.2-2.2 2.2v21.7h-2.4z"/></g><g><path fill="#fff" d="M141.1 190.1c7 0 14.2 3.2 19.7 8.8 4.9 4.9 8 11.1 8.7 17.4.6 6.1-1.1 11.5-4.9 15.3-3.3 3.3-7.8 5-12.9 5-7 0-14.2-3.2-19.7-8.8-10-10-11.7-24.7-3.7-32.7 3.2-3.3 7.6-5 12.8-5"/><path fill-rule="evenodd" clip-rule="evenodd" fill="#A38269" d="M258.7 430.3l12.3-12.4 1.7 3.6-10.8 12-3.2-3.2zm51.4 3.2h7.5v1.5h-7.5v-1.5zm1.5-2.9h7.5v1.5h-7.5v-1.5zm1.5-3h7.5v1.5h-7.5v-1.5zm1.5-3h7.5v1.5h-7.5v-1.5zm1.5-3h7.5v1.5h-7.5v-1.5zm1.5-3h7.5v1.5h-7.5v-1.5zm1.4-3h7.5v1.5h-7.5v-1.5z"/><path fill="#A38269" d="M325.8 402.2h-11.2v-17.1c0-4.6-3.7-8.3-8.2-8.3h-25.4c-4.5 0-8.2 3.7-8.2 8.3v17.1h-6.8c-1.2 0-2.2 1-2.2 2.2 0 1.2 1 2.2 2.2 2.2h59.7c1.2 0 2.2-1 2.2-2.2.1-1.2-.9-2.2-2.1-2.2zm-48.6-17.1c0-2.1 1.7-3.8 3.7-3.8h25.4c2.1 0 3.7 1.7 3.7 3.8v17.1h-32.8v-17.1zm16.2 8.2c-5.2 0-10.2-1.4-12.8-5.3-.7-1-.4-2.4.6-3.1 1-.7 2.4-.4 3.1.6 1.3 2 4.1 3.3 9 3.3s8.3-1.3 9.1-2.6c.7-1 2.1-1.3 3.1-.6 1 .7 1.3 2.1.6 3.1-2.7 4.2-10.4 4.6-12.7 4.6z"/><path fill-rule="evenodd" clip-rule="evenodd" fill="#A38269" d="M316.1 415.6h-25.5l-8.2 16.4-1.7 3h27.8v-1.5l9-17.9h-1.4zm-4.5 3l-6.7 13.4h-3l6.7-13.4h3zm-7.5 0l-6.7 13.4h-3l6.7-13.4h3zm-10.4 0h3l-6.7 13.4h-3l6.7-13.4zm-12.8 13.4l2.3-4.4-6-12h3l4.5 9 2.2-4.6-2.2-4.4h3l.7 1.4 2.1-4.4h-19.2z"/><path fill="#A38269" d="M254.4 426l1.1 1.1c1.3 1.3 3-.8 5.3-3.2l7.4-8.3c.1-.6-.3-1.7-.7-2.8l-13.1 13.2zm12.4-16.3v-16.4c-.3-1.2-1.8-1.8-3-1.5-1.2.3-1.8 1.8-1.5 3v7.5l-16.9-12.8c-.9-.9-2.3-.9-3.2 0-.9.9-.9 2.3 0 3.2l10.3 8.8c-.5.1-1 .4-1.5.6l-13-11.6c-.9-.9-2.3-.9-3.2 0-.9.9-.9 2.3 0 3.2l12.9 11.4-1.1 1.1-11.8-10.4c-.9-.9-2.3-.9-3.2 0-.9.9-.9 2.3 0 3.2l11.8 10.4c-.4.4-.7.8-.9 1.2l-7.6-6.3c-.9-.9-2.3-.9-3.2 0-.9.9-.1 3 .8 3.8l12.4 8.3 2.7 2.7 5.5 5.6 13.8-13.8c-.1-.5-.1-.9-.1-1.2z"/><path fill-rule="evenodd" clip-rule="evenodd" fill="#fff" d="M444.5 415.6h-7.5l-9 17.9v1.5h7.5l9-17.9zm-36.1-3h-19.2l9.7 19.4zm-14.3-32.8h35.4v24.8h-35.4z"/><path fill-rule="evenodd" clip-rule="evenodd" fill="#4FB5D7" d="M376.7 430.3l12.3-12.4 1.7 3.6-10.8 12-3.2-3.2zm51.3 3.2h7.5v1.5h-7.5v-1.5zm1.5-3h7.5v1.5h-7.5v-1.5zm1.5-3h7.5v1.5h-7.5v-1.5zm1.5-3h7.5v1.5h-7.5v-1.5zm1.5-3h7.5v1.5h-7.5v-1.5zm1.5-2.9h7.5v1.5h-7.5v-1.5zm1.5-3h7.5v1.5h-7.5v-1.5z"/><path fill="#4FB5D7" d="M443.7 402.1h-11.2v-17.1c0-4.6-3.7-8.3-8.2-8.3h-25.4c-4.5 0-8.2 3.7-8.2 8.3v17.1h-6.7c-1.2 0-2.2 1-2.2 2.2 0 1.2 1 2.2 2.2 2.2h59.7c1.2 0 2.2-1 2.2-2.2 0-1.2-1-2.2-2.2-2.2zm-48.5-17.1c0-2.1 1.7-3.8 3.7-3.8h25.4c2.1 0 3.7 1.7 3.7 3.8v17.1h-32.8v-17.1zm16.1 8.2c-5.2 0-10.2-1.4-12.8-5.3-.7-1-.4-2.4.6-3.1 1-.7 2.4-.4 3.1.6 1.3 2 4.1 3.3 9 3.3s8.3-1.3 9.1-2.6c.7-1 2.1-1.3 3.1-.6 1 .7 1.3 2.1.6 3.1-2.7 4.3-10.4 4.6-12.7 4.6z"/><path fill-rule="evenodd" clip-rule="evenodd" fill="#4FB5D7" d="M398.9 432l2.3-4.4-6-12h3l4.5 8.9 2.2-4.5-2.2-4.4h2.9l.7 1.3 2.1-4.3h-19.2z"/><path fill="#fff" d="M372.4 426l1.1 1.1c1.3 1.3 3-.8 5.3-3.2l7.4-8.3c.1-.6-.3-1.7-.7-2.8l-13.1 13.2zm12.3-16.4v-16.4c-.3-1.2-1.8-1.8-3-1.5-1.2.3-1.8 1.8-1.5 3v7.5l-16.9-12.8c-.9-.9-2.3-.9-3.2 0-.9.9-.9 2.3 0 3.2l10.3 8.8c-.5.1-1 .4-1.5.6l-13-11.6c-.9-.9-2.3-.9-3.2 0-.9.9-.9 2.3 0 3.2l12.9 11.4-1.1 1.1-11.8-10.4c-.9-.9-2.3-.9-3.2 0-.9.9-.9 2.3 0 3.2l11.8 10.4c-.4.4-.7.8-.9 1.2l-7.6-6.3c-.9-.9-2.3-.9-3.2 0-.9.9-.1 3 .8 3.8l12.4 8.3 2.7 2.7 5.5 5.6 13.8-13.8c0-.5-.1-.9-.1-1.2z"/><path fill-rule="evenodd" clip-rule="evenodd" fill="#fff" d="M434.1 416.3h-23.3l-9.7 17.5h23.3z"/><path fill-rule="evenodd" clip-rule="evenodd" fill="#4FB5D7" d="M434 415.6h-25.5l-8.2 16.4-1.7 3h27l9.8-19.4h-1.4zm-4.5 3l-6.7 13.4h-3l6.7-13.4h3zm-7.4 0l-6.7 13.4h-3l6.7-13.4h3zm-10.5 0h3l-6.7 13.4h-3l6.7-13.4z"/><g fill="#4FB5D7"><path fill-rule="evenodd" clip-rule="evenodd" d="M169.4 234.9c1.7-1.7 4.6-1.7 6.3 0l10.5 10.5c1.7 1.7 1.7 4.6 0 6.3-1.7 1.7-4.6 1.7-6.3 0l-10.5-10.5c-1.7-1.8-1.7-4.6 0-6.3zm.3-14.1l2.1-2.1-31-31.1-2.1 2.1 31 31.1zm-2.6 9.2l2.1-2.1-37.1-37-2.1 2.1 37.1 37zm-5.8 5.7l2.1-2.1-37.6-37.7-2.1 2.1 37.6 37.7zm-8.8 3.5l2.1-2.1-32.3-32.3-2.1 2.1 32.3 32.3zm-5.8-.1l-2.1-2.1 25.5-25.5 2.1 2.1-25.5 25.5zm-7.5-4.5l-2.1-2.1 28.5-28.5 2.1 2.1-28.5 28.5zm-6.1-5.7l-2.1-2.1 29-28.8 2.1 2.1-29 28.8zm-10.4-13.8l-2.1-2.1 25.5-25.5 2.1 2.1-25.5 25.5zm4.3 7.9l-2.1-2.1 28.6-28.7 2.1 2.1-28.6 28.7z"/><path d="M141.1 190.1c7 0 14.2 3.2 19.7 8.8 4.9 4.9 8 11.1 8.7 17.4.6 6.1-1.1 11.5-4.9 15.3-3.3 3.3-7.8 5-12.9 5-7 0-14.2-3.2-19.7-8.8-10-10-11.7-24.7-3.7-32.7 3.2-3.3 7.6-5 12.8-5m0-3c-5.7 0-11.1 1.9-15 5.9-9.2 9.2-7.5 25.7 3.7 36.9 6.4 6.4 14.4 9.7 21.9 9.7 5.7 0 11.1-1.9 15-5.9 9.2-9.2 7.5-25.7-3.7-36.9-6.4-6.4-14.5-9.7-21.9-9.7z"/><path d="M130.9 242.3c-.9-.9-2-1.3-3.3-1.3-1.2 0-2.4.5-3.3 1.3-1.8 1.8-1.8 4.7 0 6.5l3.5 3.5c3-1.1 5.4-3.5 6.5-6.5l-3.4-3.5zm-7.9 7.9c-2.6-2.6-2.6-6.8 0-9.3 1.2-1.2 2.9-1.9 4.7-1.9 1.8 0 3.4.7 4.7 1.9l2.7 2.7c.1-.6.1-1.1.1-1.7 0-6.2-5-11.2-11.2-11.2-6.2 0-11.2 5-11.2 11.2 0 6.2 5 11.2 11.2 11.2.6 0 1.2-.1 1.8-.2l-2.8-2.7z" fill-rule="evenodd" clip-rule="evenodd"/></g><path fill="#fff" d="M140.2 280.3h6.4l4.9 5h12.6l5.9-5h5.7l16.4 13 2.2 3.4-7.4 14 8.3-10.5 19.4 19-13.6 14.4-9.8-5.1.3 11.1-18.6 4.3-1.7-6.2-31 .3v-28.3l-9.1-.3-7.7-12.4z"/><path fill-rule="evenodd" clip-rule="evenodd" fill="#4FB5D7" d="M164.1 285.3h2.9v51.4h-2.9v-51.4zm-4.4 0h2.9v51.4h-2.9v-51.4z"/><path fill="#4FB5D7" d="M174.4 282.3l16.3 13.1-6.8 11.8h-9.5s-1.4 7.2-1.4 13.3c0 7.8 1.4 14.6 1.4 14.6h-32.3s1.3-6.8 1.3-14.6c0-6-1.4-13.3-1.4-13.3h-9.5l-6.8-11.8 16.3-13.1h4.1c0 3.3 4.6 6 12.1 6s12.1-2.6 12.1-5.9l-.4-.1h4.5m0-4.4h-4c-1.2 0-2.3.5-3.1 1.4-.7.7-1 1.6-1.1 2.6-1 .8-2.9 2.2-7.8 2.2-5 0-6.9-1.3-7.8-2.2-.1-1-.4-1.9-1.1-2.6-.8-.9-1.9-1.4-3.1-1.4h-4.4c-1 0-1.9.3-2.7 1l-16.3 13.3c-1.5 1.2-2 3.3-1.2 5.1l6.8 11.8c.7 1.5 1.5 2.6 3.1 2.6h5.9c.3 2 1.5 6.1 1.5 8.9 0 7.4-1.4 14-1.4 14.1-.2 1.2.2 2.5 1 3.4.8 1 2 1.5 3.3 1.5h32.6c1.3 0 2.4-.5 3.3-1.5.8-1 1.2-2.2 1-3.4 0-.1-1.5-6.8-1.5-14.1 0-2.8 1.2-6.9 1.5-8.9h5.9c1.7 0 2.4-1.1 3.1-2.6l6.8-11.8c.8-1.8.3-3.8-1.2-5.1l-16.3-13.3c-.9-.7-1.8-1-2.8-1z"/><g fill="#4FB5D7"><path d="M180.5 313.7z"/><circle cx="192.1" cy="314.7" r="2.9"/><path d="M215 319.7l-17.2-19c-.7-.7-1.7-.9-2.6-.5l-2.5 3.1 3 1.7 10.7 11.7-11.7 10.3-1.9-1.2c-.7-.5-1.6-.5-2.3-.1-.7.4-1.1 1.2-1.1 2l.1 2.5-9.1 2.3c.1.7.2 1.3.3 1.6v.2c.1.4.1.7.1 1.1l8.8-2.2.2 3.6-17.6 4.8.7 2.3c.3 1 1.2 1.6 2.1 1.6.2 0 .4 0 .6-.1l17.1-4.8c1-.3 1.7-1.2 1.6-2.2l-.3-6.5 5.4 3.5c.9.6 2 .5 2.8-.3l12.7-12.4c.9-.8.9-2.1.1-3zm-14.6 11.1l-3.2-2.1 11.1-9.8 2 2.2-9.9 9.7z"/></g><path fill-rule="evenodd" clip-rule="evenodd" fill="#A38269" d="M47.8 285.7h2.9v51.4h-2.9v-51.4zm-4.4 0h2.9v51.4h-2.9v-51.4z"/><path fill="#A38269" d="M58.1 282.8l16.3 13.1-6.8 11.8h-9.6s-1.4 7.2-1.4 13.3c0 7.8 1.4 14.6 1.4 14.6h-32.3s1.3-6.8 1.3-14.6c0-6-1.4-13.3-1.4-13.3h-9.5l-6.8-11.8 16.3-13.1h4.1c0 3.3 4.6 6 12.1 6s12.1-2.6 12.1-5.9l-.4-.1h4.6m-.1-4.5h-4c-1.2 0-2.3.5-3.1 1.4-.7.7-1 1.6-1.1 2.6-1 .8-2.9 2.2-7.8 2.2-5 0-6.9-1.3-7.8-2.2-.1-1-.4-1.9-1.1-2.6-.8-.9-1.9-1.4-3.1-1.4h-4.2c-1 0-1.9.3-2.7 1l-16.4 13.3c-1.5 1.2-2 3.3-1.2 5.1l6.8 11.8c.7 1.5 1.5 2.6 3.1 2.6h5.9c.3 2 1.5 6.1 1.5 8.9 0 7.4-1.4 14-1.4 14.1-.2 1.2.2 2.5 1 3.4.8 1 2 1.5 3.3 1.5h32.6c1.3 0 2.4-.5 3.3-1.5.8-1 1.2-2.2 1-3.4 0-.1-1.5-6.8-1.5-14.1 0-2.8 1.2-6.9 1.5-8.9h5.9c1.7 0 2.4-1.1 3.1-2.6l6.8-11.8c.8-1.8.3-3.8-1.2-5.1l-16.3-13.3c-.9-.6-1.9-1-2.9-1z"/><g fill="#A38269"><path d="M64.1 314.2z"/><circle cx="75.7" cy="315.1" r="2.9"/><path d="M98.6 320.1l-17.2-19c-.7-.7-1.7-.9-2.6-.5l-2.5 3.1 3 1.7 10.7 11.8-11.7 10.3-1.9-1.2c-.7-.5-1.6-.5-2.3-.1-.7.4-1.1 1.2-1.1 2l.1 2.5-9.1 2.3c.1.7.2 1.3.3 1.6v.2c.1.4.1.7.1 1.1l8.8-2.2.2 3.6-17.6 4.8.7 2.3c.3 1 1.2 1.6 2.1 1.6.2 0 .4 0 .6-.1l17.1-4.8c1-.3 1.7-1.2 1.6-2.2l-.3-6.5 5.4 3.5c.9.6 2 .5 2.8-.3l12.7-12.4c.9-.8.9-2.2.1-3.1zm-14.6 11.1l-3.2-2.1 11.1-9.8 2 2.2-9.9 9.7z"/></g></g></svg>