<svg xmlns="http://www.w3.org/2000/svg" viewBox="0 0 446 530.9" enable-background="new 0 0 446 530.9"><g><path fill-rule="evenodd" clip-rule="evenodd" fill="#fff" d="M4322.8 4398.4h-1.5c-1 0-4.9-1.9-6-3l-8.2-5c-.7-.7-.9-1.6-.8-2.5 0 0 1.5-3.4 1.5-6.2 0-9.1-1.5-26.8-1.5-26.8 0-1.7 1.3-3 3-3h4.5c1.7 0 3 1.3 3 3l-1.5 32.3 6 5.2c2.4 2.2 2.8 4.6 1.5 6zM4583.2 4794.3h23.4l8.1-16.5h-23.4z"/><path fill="#fff" d="M4590.7 4651.8h-24.7l-19.2 1s-1.8-14.2 2.3-17.5c4.1-3.3 16.9-4 16.9-4v-24.3h24.7v44.8zM4569 4480.9h58.1v45h-58.1zM4536.1 4480.9h26.4v53h-26.4z"/><g><path fill="#4FB5D7" d="M4602.7 4365.1v10.5c0 6.6-6.5 16.5-19.5 16.5h-1.5c-13.1 0-19.5-9.9-19.5-16.5v-10.5c2.5 1 4.4 1.5 5.8 1.5 8.1 0 3.6-13.5 9.2-13.5h10.5c5.6 0 .2 13.5 8.9 13.5 1.5 0 3.5-.4 6.1-1.5zm-4 10.5v-5.2c-.8.1-1.5.2-2.1.2-8.4 0-9.2-7.7-9.7-11.4l-.3-2.1h-8.5c-.2.7-.4 1.7-.5 2.5-.6 3.6-1.8 11-9.6 11-.6 0-1.2 0-1.8-.1v5.1c0 4.4 4.6 12.5 15.5 12.5h1.5c11 0 15.5-8.1 15.5-12.5z"/><path fill="#fff" d="M4598.7 4370.4v5.2c0 4.4-4.5 12.5-15.5 12.5h-1.5c-10.9 0-15.5-8.1-15.5-12.5v-5.1c.6.1 1.2.1 1.8.1 7.8 0 9-7.5 9.6-11 .1-.8.3-1.8.5-2.5h8.5l.3 2.1c.4 3.7 1.3 11.4 9.7 11.4.7 0 1.4-.1 2.1-.2z"/></g><path fill="#fff" d="M4579.5 4227.1h33.4v44h-33.4zM4545 4246.6h46.8v32.1h-46.8zM4334 4766.5h-16.8v-11.9h13.4zM4337.7 4784.7h-20.5v-11.8h17.1z"/><g><path fill="#4FB5D7" d="M4331.1 4744.1c.6 1.4.4 3-.4 4.2-.8 1.3-2.2 2-3.7 2h-7.5c-1.5 0-2.9-.8-3.7-2-.8-1.3-1-2.8-.4-4.2l3.8-9c.7-1.7 2.3-2.8 4.1-2.8s3.5 1.1 4.1 2.8l3.7 9zm-4.2 1.8l-3.8-9-3.8 9h7.6z"/><path fill="#fff" d="M4323.2 4736.9l3.7 9h-7.5z"/></g><g><path fill="#fff" d="M4308.9 4751.8v40.8c0 .4-.3.7-.8.7h-.7c.2-.9.3-1.8.3-2.7 0-7.8-6.7-13.4-14.5-13.4-7.2 0-12.5 4.7-13.7 11.5-.1.6-.2 1.3-.2 1.9-.1 1-.2 1.8-.3 3.2h-4.5c-.5-5.3-5.1-9-10.6-9s-10 3.3-10.5 8.5h-.7c-.4 0-.8-.3-.8-.7v-20.8c0-.4-.4-.5 0-.5h25.5c1.3 0 1.5-1.2 1.5-2.5v-14.8c0-1.2-1-2.2-2.3-2.2h32.3z"/><path fill="#4FB5D7" d="M4305.3 4790.9c0-6.5-5.7-11-12.3-11-6 0-10.7 3.7-11.6 9.2l-2-.4c1.2-6.8 6.5-11.5 13.7-11.5 7.9 0 14.5 5.6 14.5 13.4 0 .9-.1 1.8-.3 2.7h.7c.4 0 .8-.3.8-.7 0 0-.1-40.6 0-40.8h-32.2c1.3 0 2.3 1 2.3 2.2v14.8c0 1.2-.3 2.5-1.5 2.5h-25.5c-.4 0 0 .1 0 .5v20.8c0 .4.3.7.8.7h.7l2.1.4v.8c0 1.1.2 2.2.6 3.2 0 .2.5.6-1.2.6h-3.6c-2.9 0-4.5-2.9-4.5-5.7v-20.8c0-2.9 3.1-5 6-5h21.6v-10.6c-2.5 0-4.5-2-4.5-4.4 0-2.5 2-4.5 4.5-4.5h35.1c2.5 0 3.9 2 3.9 4.5 0 .1.1 40.9.1 40.9-.1 2.7-1.1 5.7-4 5.7h-6.6c1.3-1.9 2.4-5 2.4-7.5zM4283.5 4797.7c.2.3.3.7 0 .7h-12l-.1-.6c.4-.9.6-2 .6-3.1 0-4.5-3.7-7.4-8.2-7.4-4.3 0-7.8 2.5-8.2 6.5l-2.1-.4c.5-5.3 5-8.5 10.5-8.5s10 3.7 10.6 9h4.5c.1-1.4.2-2.1.3-3.2 0-.6.1-1.3.2-1.9l2 .4c-.1.6-.1 1.2-.1 1.8-.2 2.4.6 4.7 2 6.7z"/></g><g><path fill="#4FB5D7" d="M4293.2 4781.8c5.4 0 9.8 4.4 9.8 9.8s-4.4 9.7-9.8 9.7-9.8-4.4-9.8-9.7c0-5.4 4.4-9.8 9.8-9.8zm5.2 9.8c0-2.9-2.4-5.3-5.3-5.3s-5.3 2.3-5.3 5.3c0 2.9 2.4 5.2 5.3 5.2s5.3-2.3 5.3-5.2z"/><path fill="#fff" d="M4293.2 4786.3c2.9 0 5.3 2.3 5.3 5.3 0 2.9-2.4 5.2-5.3 5.2s-5.3-2.4-5.3-5.2c0-2.9 2.4-5.3 5.3-5.3z"/></g><path fill="#fff" d="M4340.6 4648.7l-17.6-19.4c-.4-.4-1.1-.5-1.6-.2l-6.5 3.8 4.7-8.2c.6-1.3.2-2.9-1-3.9l-16.6-13.6c-.6-.5-1.3-.8-2.1-.8h-4.1c-.9 0-1.8.4-2.5 1.1-.5.6-.8 1.3-.9 2v.4l-.3.3c-1.2 1.1-3.5 2.5-8.7 2.5-5.2 0-7.4-1.4-8.7-2.5l-.3-.3v-.4c0-.8-.4-1.5-.9-2-.6-.7-1.5-1.1-2.5-1.1h-4.2c-.8 0-1.5.3-2.1.8l-16.6 13.6c-1.2 1-1.6 2.6-.9 4l6.9 12c.8 1.7 1.3 2.2 2.3 2.2h6.9l.1.8c.1.6.3 1.5.5 2.4.5 2.1 1 4.8 1 6.8 0 6.9-1.2 13.3-1.5 14.5-.2 1 .1 2 .8 2.7.6.7 1.6 1.2 2.6 1.2h31.1l1.5 5.1c.2.6.9 1 1.5.9l17.5-4.9c.6-.2.9-.7.9-1.3l-.5-8.6 7.2 4.7c.5.3 1.2.2 1.6-.2l13-12.7c.4-.5.5-1.2 0-1.7z"/><circle fill-rule="evenodd" clip-rule="evenodd" fill="#fff" cx="4269.7" cy="4527.7" r="11.3"/><path fill-rule="evenodd" clip-rule="evenodd" fill="#fff" d="M4271.9 4478.8c9.2-9.2 25.7-7.5 36.9 3.7s12.9 27.8 3.7 36.9c-9.2 9.2-25.7 7.5-36.9-3.7s-12.9-27.7-3.7-36.9zM4298.3 4266.4h29.7v11.4h-29.7zM4261.2 4233.6h31.1v44.3h-31.1z"/><path fill-rule="evenodd" clip-rule="evenodd" fill="#4FB5D7" d="M4558.6 4791.9l12.4-12.5 1.7 3.7-10.9 12-3.2-3.2zM4581.7 4793.6h27v3h-27v-3zM4590.7 4777.1h25.5l-1.5 3h-24v-3zM4610.2 4795.1h7.5v1.5h-7.5v-1.5zM4611.7 4792.1h7.5v1.5h-7.5v-1.5zM4613.2 4789.1h7.5v1.5h-7.5v-1.5zM4614.7 4786.1h7.5v1.5h-7.5v-1.5zM4616.2 4783.1h7.5v1.5h-7.5v-1.5zM4617.7 4780.1h7.5v1.5h-7.5v-1.5zM4619.2 4777.1h7.5v1.5h-7.5v-1.5zM4590.7 4777.1h4.5l-9 18h-4.5l9-18zM4598.2 4777.1h4.5l-9 18h-4.5l9-18zM4605.7 4777.1h4.5l-9 18h-4.5l9-18zM4613.2 4777.1h4.5l-9 18h-4.5l9-18zM4566 4763.6h60c1.2 0 2.2 1 2.2 2.2 0 1.2-1 2.3-2.2 2.3h-60c-1.2 0-2.3-1-2.3-2.3 0-1.2 1.1-2.2 2.3-2.2z"/><g><path fill="#4FB5D7" d="M4614.7 4746.4v17.8c0 3.4-4.7 3.9-6.7 3.9h-28.5c-2 0-6.7-.2-6.7-3.9v-17.8c0-4.6 3.7-8.3 8.3-8.3h25.5c4.4 0 8.1 3.7 8.1 8.3zm-4.5 17.8v-17.8c0-2.1-1.7-3.8-3.8-3.8h-25.4c-2.1 0-3.8 1.7-3.8 3.8v17.8c0 .5.1.6.1.6.1.1.6.2 2.1.2h28.5c1.5 0 2-.1 2.2-.2.1-.1.1-.2.1-.6z"/><path fill="#fff" d="M4610.2 4746.4v17.8c0 .4-.1.5 0 .6-.2.1-.7.2-2.2.2h-28.5c-1.5 0-2.1-.1-2.1-.2 0 0-.1-.1-.1-.6v-17.8c0-2.1 1.7-3.8 3.8-3.8h25.5c2 0 3.6 1.7 3.6 3.8z"/></g><path fill="#4FB5D7" d="M4593.4 4754.6c-5.2 0-10.2-1.4-12.8-5.3-.7-1-.4-2.4.6-3.1 1-.7 2.4-.4 3.1.6 1.3 2 4.2 3.3 9.1 3.3 4.9 0 8.3-1.3 9.2-2.6.7-1 2.1-1.3 3.1-.6 1 .7 1.3 2.1.6 3.1-2.8 4.3-10.5 4.6-12.9 4.6z"/><g><path fill="#4FB5D7" d="M4347.1 4887.6c1.1.7 1.3 2.1.7 3.1-.4.7-1.1 1-1.9 1-.4 0-.8-.1-1.2-.4l-5.5-3.6v-3.9c0-.8-.8-2-1.5-2.4l9.4 6.2zM4310.1 4863.2l27.7 18.2-26.8-16.8c-.1-.2-.1-.5-.3-.7-.2-.3-.4-.5-.6-.7zM4336.1 4918.3c.8 0 1.5.7 1.5 1.5s-.7 1.5-1.5 1.5h-1.5v-3h1.5zM4336.1 4921.3c.8 0 1.5-.7 1.5-1.5h1.5v4.5c0 2.9-2.7 4.5-5.6 4.5h-7.3c-1.2 0-2-.3-2-1.5v-7.3c.1.7.7 1.3 1.5 1.3h3v3h4.9c.4 0 1.1-1.1 1.1-1.5v-1.5h1.4zM4334.7 4885.3l-26.5-17.2.6-.4 30.4 20v32h-1.5c0-.8-.7-1.5-1.5-1.5h-1.5v-32.9zM4328.7 4918.3h6v3h-6z"/><path fill="#fff" d="M4328.7 4921.3h6v1.5c0 .4-.7 1.5-1.1 1.5h-4.9v-3z"/><path fill="#4FB5D7" d="M4328.7 4918.3v3h-3c-.8 0-1.4-.6-1.5-1.3v-.4c.1-.7.7-1.3 1.5-1.3h3zM4328.7 4901.8v16.5h-3c-.8 0-1.4.5-1.5 1.3v-16.3h-10.5v16.3h-.4c0-.8-.7-1.5-1.5-1.5h-2.6v-16.9c0-1.3 1-2.3 2.2-2.3h14.3c1.2-.1 3 1.7 3 2.9zM4324.2 4919.6v.4-.2-.2zM4313.7 4919.6v6.2c0 1.3-1.1 3-2.3 3h-27c-2.9 0-5.3-2.4-5.3-5.2v-3.8c0 .8.7 1.5 1.5 1.5h3v2.3c0 .4.3.8.8.8l24.7-.2v-3h2.6c.8 0 1.5-.7 1.5-1.5h.5z"/><path fill="#fff" d="M4312.2 4883.1c0 2.1-1.7 3.8-3.8 3.8s-3.8-1.7-3.8-3.8 1.7-3.8 3.8-3.8 3.8 1.7 3.8 3.8z"/><path fill="#4FB5D7" d="M4309.2 4921.1v-3.1h2.6c.8 0 1.5.7 1.5 1.5s-.7 1.5-1.5 1.5l-2.6.1zM4310.9 4864.6l26.8 16.8c.7.4 1.5 1.6 1.5 2.4v3.9l-30.4-20 1.2-.8c.8-.4 1.2-1.4.9-2.3zM4309.3 4863.6c-.6-.4-1.4-.5-2-.2l.4-.3c.1-.1.2-.1.3-.1l.2-.1h1.4s.1 0 .2.1c.1 0 .2.1.3.2l.1.1.6.6.3.7-1.8-1zM4309.7 4863l-.2-.1c0 .1.1.1.2.1zM4309.5 4862.9h-.2.2zM4309.3 4862.9h-.3.3z"/><path fill="#fff" d="M4309.2 4921.1v3l-24.7.2c-.4 0-.8-.3-.8-.8v-2.3l25.5-.1z"/><path fill="#4FB5D7" d="M4309.2 4918.1v3l-25.5.2v-3zM4309.3 4863.6l1.6 1c.2.9-.1 1.9-1 2.4l-1.2.8-1.2-.8c-1-.7-1.3-2.1-.6-3.1l.4-.5c.7-.3 1.4-.2 2 .2zM4308.5 4862.8h-.3c.1.1.2.1.3 0zM4308.2 4862.9c-.1 0-.1 0-.2.1.1-.1.2-.1.2-.1zM4308.2 4868.2l-.9.6.9-.6zM4312.2 4883.1c0-2.1-1.7-3.8-3.8-3.8s-3.8 1.7-3.8 3.8 1.7 3.8 3.8 3.8 3.8-1.7 3.8-3.8zm3-.2c0 3.8-3 6.9-6.8 6.9-3.7 0-6.8-3.1-6.8-6.9 0-3.8 3.8-6.6 7.1-6.6s6.5 2.8 6.5 6.6zM4307.5 4863.2l.2-.1-.4.3c-.1 0-.1 0-.2.1l.4-.3zM4307.5 4867l1.2.8-.6.4-.9.6-28.1 18.5v-3.4c0-.8 0-2 .6-2.4l7.8-5.1 19.6-12.9s.1-.1.2-.1c-.2.1-.3.3-.4.5-.7 1-.4 2.4.6 3.1zM4307.1 4863.5l-19.6 12.9 19.4-12.7c.1-.2.2-.2.2-.2z"/><path fill="#fff" d="M4289.7 4915.3h13.5c.8 0 1.5-.7 1.5-1.5v-12c0-.8-.7-1.5-1.5-1.5h-13.5c-.8 0-1.5.7-1.5 1.5v12c0 .8.6 1.5 1.5 1.5zm19.5 2.8l-25.5.2v-33.3l23.6-16.3.9-.6 26.5 17.2v33h-6v-16.5c0-1.3-1.8-3-3-3h-14.3c-1.2 0-2.2 1-2.2 2.3v17zm-.8-28.3c3.7 0 6.8-3.1 6.8-6.9 0-3.8-3.1-6.6-6.4-6.6s-7.1 2.8-7.1 6.6 3 6.9 6.7 6.9zM4291.2 4903.3h10.5v9h-10.5z"/><path fill="#4FB5D7" d="M4291.2 4912.3h10.5v-9h-10.5v9zm12 3h-13.5c-.8 0-1.5-.7-1.5-1.5v-12c0-.8.7-1.5 1.5-1.5h13.5c.8 0 1.5.7 1.5 1.5v12c0 .8-.7 1.5-1.5 1.5zM4287.5 4876.3l-7.8 5.1 7.8-5.1zM4283.7 4918.3v3h-3c-.8 0-1.5-.7-1.5-1.5s.7-1.5 1.5-1.5h3zM4283.7 4885v33.3h-3c-.8 0-1.5.7-1.5 1.5v-32.6l28.1-18.5-23.6 16.3zM4279.8 4881.4c-.6.4-.6 1.6-.6 2.4v3.4l-6.3 4.1c-.4.3-.8.4-1.2.4-.7 0-1.5-.4-1.9-1-.7-1.1-.4-2.5.7-3.1l9.3-6.2zM4255.2 4922c0-.8-.7-1.5-1.5-1.5v-.7h10.5l-6.5-9.1c-.3-.5-1.2-.9-1-1.4.3-.5.9-1.5 1.5-1.5h3l-5.9-7.6c-.3-.5-.5-1-.1-1.4.2-.2.9 0 1.5 0h3v1.5h-1.5l7.1 8.5c.3.3.5.7.5 1.1 0 .8-.7.9-1.6.9h-3l7.3 9.5c.3.5.4 1.1.1 1.6-.3.5-.8.9-1.3.9h-12v-.8zM4255.2 4922.8v4.6c0 .8-.7 1.4-1.5 1.4s-1.5-.6-1.5-1.4v-4.6h3zM4255.2 4922v.8h-3v-.8c0-.8.7-1.5 1.5-1.5s1.5.7 1.5 1.5z"/><path fill="#fff" d="M4252.1 4900.2c.3-.5.5-.9.1-1.4 0-.1-.6-.1-1.5 0h-3l6-6.3 6 6.3h-3c-.6 0-1.3-.2-1.5 0-.4.4-.2.9.1 1.4l5.9 7.6h-3c-.6 0-1.2 1-1.5 1.5-.3.5.6 1 1 1.4l6.5 9.1h-21l6-9c.3-.5 1.8-1 1.5-1.5-.3-.5-.9-1.5-1.5-1.5h-3l5.9-7.6z"/><path fill="#4FB5D7" d="M4249.2 4907.8c.6 0 1.2 1 1.5 1.5.3.5-1.2 1-1.5 1.5l-6 9h10.5v.7c-.8 0-1.5.7-1.5 1.5v.8h-12c-.6 0-1.1-.3-1.3-.9-.3-.5-.2-1.2.1-1.6l7.2-9.5h-1.5c-.6 0-2.6 0-2.8-.2-.4-.4 1-2.3 1.3-2.8l6-7.5v-1.5h1.5c.9-.1 1.5-.1 1.5 0 .4.4.2.9-.1 1.4l-5.9 7.6h3zM4244.7 4897.3l7.5-7.5c1-1.6 1.9-1.6 3 0l7.5 7.5c.4.3.8 1.5.8 2 0 .8-1.4 1-2.3 1h-1.5v-1.5l-6-6.3-6 6.3h1.5v1.5h-3c-.6 0-1.1-.1-1.5 0-.6.1-1.9-1.7 0-3z"/></g><path fill="#4FB5D7" d="M4340.2 4782l-2.4-7.5c-.6-1.9-2.3-3.1-4.3-3.1h-16.3v4.5h16.3l2.4 7.5h-18.7v4.5h18.7c1.4 0 2.8-.7 3.6-1.8.9-1.3 1.1-2.8.7-4.1z"/><path fill-rule="evenodd" clip-rule="evenodd" fill="#4FB5D7" d="M4284.9 4756.4h18c.8 0 1.5.7 1.5 1.5v12c0 .8-.7 1.5-1.5 1.5h-18c-.8 0-1.5-.7-1.5-1.5v-12c0-.9.7-1.5 1.5-1.5z"/><path fill="#4FB5D7" d="M4263.9 4789.3c-3.3 0-6 2.7-6 6s2.7 6 6 6 6-2.7 6-6-2.7-6-6-6z"/><path fill-rule="evenodd" clip-rule="evenodd" fill="#4FB5D7" d="M4256.4 4754.9h3c1.7 0 3 1.3 3 3v9c0 1.7-1.3 3-3 3h-3c-1.7 0-3-1.3-3-3v-9c0-1.7 1.4-3 3-3zM4253.4 4751.9h9c1.7 0 3 1.3 3 3s-1.3 3-3 3h-9c-1.7 0-3-1.3-3-3s1.4-3 3-3zM4557.7 4614.1c2.5 0 4.5 2 4.5 4.5s-2 4.5-4.5 4.5-4.5-2-4.5-4.5 2.1-4.5 4.5-4.5zM4566.7 4612.6h6v4.5h-6v-4.5zM4575.7 4612.6h6v4.5h-6v-4.5zM4584.7 4612.6h6v4.5h-6v-4.5z"/><path fill="#4FB5D7" d="M4588.5 4654.6h-39c-4.5 0-6.7-3.7-6.7-8.2 0-13 11-16.3 21-17.2v-20.3c0-4.5-.8-3.7 3.8-3.7h22.5c4.5 0 3.7-.8 3.7 3.7v37.5c-.1 4.5-.8 8.2-5.3 8.2zm-22.5-21c-6.6 0-18.7.9-18.7 12.7 0 2.1 2.4 3.7 4.5 3.7h36c2.1 0 1.5-1.7 1.5-3.7v-34.5c0-2.1-.2-2.3-2.3-2.3h-16.5c-2.1 0-2.3.2-2.3 2.3v21.7h-2.2z"/><path fill-rule="evenodd" clip-rule="evenodd" fill="#4FB5D7" d="M4583.9 4531.9h30v3h-30v-3zM4589.9 4527.4h18v4.5h-18v-4.5zM4576.3 4487.9h43.8v30.9h-43.8v-30.9zm3.8 3.9h36.1v23.1h-36.1v-23.1zM4553.9 4512.4c.8 0 1.5.7 1.5 1.5v1.5c0 .8-.7 1.5-1.5 1.5s-1.5-.7-1.5-1.5v-1.5c0-.9.7-1.5 1.5-1.5zM4553.9 4506.4c.8 0 1.5.7 1.5 1.5s-.7 1.5-1.5 1.5-1.5-.7-1.5-1.5c0-.9.7-1.5 1.5-1.5zM4540.4 4495.9h18c.8 0 1.5.7 1.5 1.5s-.7 1.5-1.5 1.5h-18c-.8 0-1.5-.7-1.5-1.5 0-.9.7-1.5 1.5-1.5z"/><path clip-rule="evenodd" stroke="#4FB5D7" stroke-width="4" stroke-miterlimit="10" d="M4539 4480.9h21.1c1.7 0 3-.2 3 1.5v49.5c0 1.7-1.3 3-3 3h-21.1c-1.7 0-3-1.3-3-3v-48c.1-1.7 1.4-3 3-3z" fill="none"/><path fill="#4FB5D7" d="M4624.1 4527.9h-52.1c-2.8 0-5-2.2-5-5v-39c0-2.8 2.2-5 5-5h52.1c2.8 0 5 2.2 5 5v39c0 2.7-2.2 5-5 5zm-52.1-45c-.6 0-1 .4-1 1v39c0 .6.4 1 1 1h52.1c.6 0 1-.4 1-1v-39c0-.6-.4-1-1-1h-52.1z"/><path fill-rule="evenodd" clip-rule="evenodd" fill="#4FB5D7" d="M4315.2 4520.7c1.7-1.7 4.6-1.7 6.3 0l10.5 10.5c1.7 1.7 1.7 4.6 0 6.3-1.7 1.7-4.6 1.7-6.3 0l-10.5-10.5c-1.7-1.8-1.7-4.6 0-6.3zM4311.9 4503.1l2.1-2.1-25.2-25.2-2.1 2.1 25.2 25.2zM4312 4515l2.1-2.1-35.6-35.6-2.1 2.1 35.6 35.6zM4306 4520.9l2.1-2.1-35.6-35.6-2.1 2.1 35.6 35.6zM4294.1 4520.9l2.1-2.1-25.2-25.2-2.1 2.1 25.2 25.2zM4292.5 4524.9l-2.1-2.1 25.5-25.5 2.1 2.1-25.5 25.5zM4285 4520.4l-2.1-2.1 28.5-28.5 2.1 2.1-28.5 28.5zM4279 4514.4l-2.1-2.1 28.5-28.5 2.1 2.1-28.5 28.5zM4268.5 4500.9l-2.1-2.1 25.5-25.5 2.1 2.1-25.5 25.5zM4274.5 4506.9l-2.1-2.1 25.5-25.5 2.1 2.1-25.5 25.5z"/><path fill="#4FB5D7" d="M4286.9 4475.4c7.1 0 14.4 3.3 20.1 8.9 5 5 8.1 11.3 8.8 17.7.6 6.2-1.2 11.8-5.1 15.7-3.4 3.4-8 5.2-13.3 5.2-7.1 0-14.4-3.3-20.1-8.9-10.2-10.2-11.9-25.2-3.7-33.4 3.4-3.4 8-5.2 13.3-5.2m0-2.5c-5.7 0-11.1 1.9-15 5.9-9.2 9.2-7.5 25.7 3.7 36.9 6.4 6.4 14.4 9.7 21.9 9.7 5.7 0 11.1-1.9 15-5.9 9.2-9.2 7.5-25.7-3.7-36.9-6.4-6.4-14.4-9.7-21.9-9.7z"/><g><path fill="#fff" d="M4299.3 4400.9v7.3l-10.1 1.1-.9-2c-.4-.9-1.3-1.5-2.3-1.5-1 0-1.9.6-2.3 1.5l-.9 2-10.1-1.1v-7.3h26.6z"/><path fill="#4FB5D7" d="M4284.5 4400.9h-11.7v7.3l10.1 1.1.9-2c.4-.9 1.3-1.5 2.3-1.5 1 0 1.9.6 2.3 1.5l.9 2 10.1-1.1v-7.3h-14.899999999999999zm-14.2-2.5h31.5v12l-14.2 1.5-1.6-3.8-1.6 3.8-14.2-1.5v-12z"/></g><path fill-rule="evenodd" clip-rule="evenodd" fill="#4FB5D7" d="M4270.3 4395.4h31.5v1.5h-31.5v-1.5z"/><g><path fill="#4FB5D7" d="M4303.5 4345.5l-1.7 7.9-2.9-.6 1.6-7.3zM4301.8 4392.4h-31.5s.9-1.8 1.8-5l2.7.5h22.5l-.1-.1 2.9-.1c.9 3 1.7 4.7 1.7 4.7z"/><path fill="#fff" d="M4297.3 4387.9h-22.5s3-3.6 3-10.3c0-6.8-3-16.7-3-16.7s6.8 4.5 11.1 4.5c4.7 0 11.4-4.5 11.4-4.5s-3 9.5-3 16.1c0 6.2 2.5 10.1 2.9 10.8.1 0 .1.1.1.1z"/><path fill="#4FB5D7" d="M4298.2 4356l.7-3.2 2.9.6s-3 13.5-3 23.6c0 4.4.7 8 1.4 10.7l-2.9.1c-.5-.7-2.9-4.5-2.9-10.8 0-6.6 3-16.1 3-16.1s-6.7 4.5-11.4 4.5c-4.3 0-11.1-4.5-11.1-4.5s3 9.9 3 16.7c0 6.7-3 10.3-3 10.3l-2.7-.5c.6-2.5 1.2-5.8 1.2-9.8 0-10.3-3-24.2-3-24.2l2.8-.7.8 3.3c3.3 2.2 8.3 4.9 12 4.9 4 0 8.9-2.7 12.2-4.9zM4271.4 4345.5l1.8 7.2-2.9.7-1.9-7.9z"/></g><path fill-rule="evenodd" clip-rule="evenodd" fill="#4FB5D7" d="M4566.7 4344.1c1.7 0 3 1.3 3 3v13.5c0 1.7-1.3 3-3 3s-3-1.3-3-3v-13.5c0-1.6 1.4-3 3-3zM4598.2 4344.1c1.7 0 3 1.3 3 3v13.5c0 1.7-1.3 3-3 3s-3-1.3-3-3v-13.5c0-1.6 1.4-3 3-3zM4582.5 4384.6s-13.1-8.2-6.4-12.5c3.8-2.5 6.3 2.2 6.3 2.2s2.5-4.7 6.3-2.2c6.8 4.4-6.2 12.5-6.2 12.5"/><path fill-rule="evenodd" clip-rule="evenodd" fill="#4FB5D7" d="M4601.2 4405.6l-18 3h-1.5l-18-3v-4.5l18.7 2.9 18.7-2.9v4.5zM4583.2 4394.1h-1.5c-7 0-12.3-2.7-15.9-6.3l-2.1 10.3 18 3h1.5l18-3-2.1-10.3c-3.5 3.7-8.9 6.3-15.9 6.3zM4262.2 4231.5h30c1.7 0 3 1.3 3 3v43.5c0 1.7-1.3 3-3 3h-30c-1.7 0-3-1.3-3-3v-43.5c0-1.7 1.3-3 3-3zm1.5 4.5h27v40.5h-27v-40.5z"/><path fill="#4FB5D7" d="M4265.4 4263h-1.8c-.8 0-1.5-.8-1.4-1.6 0-.9.7-1.5 1.6-1.5 13.1.6 26.2-7.6 26.9-13.5.1-.9.9-1.5 1.7-1.3.8.1 1.4.9 1.3 1.8-1 7.3-15.3 16.1-28.3 16.1z"/><path fill-rule="evenodd" clip-rule="evenodd" fill="#4FB5D7" d="M4283.9 4263c2.9 0 5.2 2.4 5.2 5.2 0 2.9-2.4 5.2-5.2 5.2-2.9 0-5.2-2.4-5.2-5.2 0-2.9 2.3-5.2 5.2-5.2zm0 3c1.2 0 2.2 1 2.2 2.2 0 1.2-1 2.3-2.2 2.3-1.2 0-2.3-1-2.3-2.3.1-1.2 1.1-2.2 2.3-2.2zM4273.4 4266c1.2 0 2.2 1 2.2 2.2 0 1.2-1 2.3-2.2 2.3-1.2 0-2.3-1-2.3-2.3.1-1.2 1.1-2.2 2.3-2.2zM4272.7 4212h9c1.7 0 3 1.3 3 3v15h-15v-15c0-1.7 1.3-3 3-3zM4299.7 4254h27c1.7 0 3 1.3 3 3v6h-33v-6c0-1.7 1.3-3 3-3zM4296.7 4264.5v13.5c0 1.7 1.3 3 3 3h27c1.7 0 3-1.3 3-3v-13.5h-33zm28.5 12h-24v-7.5h7.5v4.5h13.5v-4.5h3v7.5z"/><g fill-rule="evenodd" clip-rule="evenodd" fill="#4FB5D7"><path d="M4307.8 4381.7c0 .6-.1 1.3-.2 1.9h7.9l.2-4.6h-7.9v2.7zM4307.7 4377h8.1l.5-11.3h-9.2c.3 3.6.5 7.7.6 11.3zM4316.7 4357.5l.1-2.6c0-1.7-1.3-3-3-3h-4.5c-1.7 0-3 1.3-3 3 0 0 .1 1 .2 2.6h10.2zM4307 4363.7h9.4l.2-3.9h-9.9c.1 1.1.2 2.4.3 3.9zM4321.3 4392.4l-6-5.2.1-1.6h-8.2c-.4 1.3-.8 2.3-.8 2.3-.1.9.1 1.8.8 2.5l8.2 5c1.1 1.1 5 3 6 3h1.5c1.2-1.4.8-3.8-1.6-6z"/></g><g fill-rule="evenodd" clip-rule="evenodd" fill="#4FB5D7"><path d="M4276.7 4528.1c-.9-.9-2-1.3-3.3-1.3-1.2 0-2.4.5-3.3 1.3-1.8 1.8-1.8 4.7 0 6.5l3.5 3.5c3-1.1 5.4-3.5 6.5-6.5l-3.4-3.5zM4268.8 4536c-2.6-2.6-2.6-6.8 0-9.3 1.2-1.2 2.9-1.9 4.7-1.9 1.8 0 3.4.7 4.7 1.9l2.7 2.7c.1-.6.1-1.1.1-1.7 0-6.2-5-11.2-11.2-11.2s-11.2 5-11.2 11.2 5 11.2 11.2 11.2c.6 0 1.2-.1 1.8-.2l-2.8-2.7z"/></g><path fill="#4FB5D7" d="M4335.7 4762.4l-2.1-6c-.6-1.8-2.3-3-4.2-3h-12.1v4.5h12.1l2.1 6h-14.2v4.5h14.2c1.5 0 2.8-.7 3.7-1.9.7-1.2 1-2.8.5-4.1z"/><path fill-rule="evenodd" clip-rule="evenodd" fill="#4FB5D7" d="M4590 4235.1c1.7 0 3 1.3 3 3s-1.3 3-3 3-3-1.3-3-3c0-1.6 1.3-3 3-3zM4605 4235.1c1.7 0 3 1.3 3 3s-1.3 3-3 3-3-1.3-3-3c0-1.6 1.3-3 3-3zM4575 4254.6c1.7 0 3 1.3 3 3s-1.3 3-3 3-3-1.3-3-3 1.3-3 3-3zM4560 4254.6c1.7 0 3 1.3 3 3s-1.3 3-3 3-3-1.3-3-3 1.3-3 3-3zM4545 4266.6h45v1.5h-45v-1.5zM4545 4269.6h45v1.5h-45v-1.5zM4545 4244.1h45.2c1.7 0 3 1.3 3 3v31.5c0 1.7-1.3 3-3 3h-45.2c-1.7 0-3-1.3-3-3v-31.5c0-1.6 1.3-3 3-3zm1.3 4.5h43v28.5h-43v-28.5zM4591.5 4234v-13.9c0-1.7 1.3-3 3-3h6c1.7 0 3 1.3 3 3v13.9h3v-13.9c0-3.3-2.7-6-6-6h-6c-3.3 0-6 2.7-6 6v13.9h3zM4561.5 4253.5v-13.8c0-1.7 1.3-3 3-3h6c1.7 0 3 1.3 3 3v13.8h3v-13.8c0-3.3-2.7-6-6-6h-6c-3.3 0-6 2.7-6 6v13.8h3zM4612.5 4224.6h-30c-1.7 0-3 1.3-3 3v14h4.5v-12.5h27v37.5h-14.9v4.5h16.4c1.7 0 3-1.3 3-3v-40.5c0-1.6-1.4-3-3-3zM4596.1 4258.7l16.8-16.8-1.1-1-15.7 15.7zM4596.1 4262.9l18.9-18.8-1.1-1.1-17.8 17.8z"/><circle fill-rule="evenodd" clip-rule="evenodd" fill="#fff" cx="4566.7" cy="4359.7" r="2"/><circle fill-rule="evenodd" clip-rule="evenodd" fill="#fff" cx="4598.2" cy="4359.7" r="2"/><path fill="#4FB5D7" d="M4286.8 4370.6l-6 3.7v-7.5l6 3.8zM4285.3 4370.6l6 3.7v-7.5l-6 3.8zM4341.3 4648l-17.6-19.4c-.7-.8-1.9-1-2.8-.4l-3.3 1.9 2.9-5c.8-1.8.3-3.9-1.2-5.2l-16.6-13.6c-.8-.6-1.7-1-2.7-1h-4.1c-1.2 0-2.4.5-3.2 1.4-.7.7-1.1 1.7-1.1 2.7-1 .9-2.9 2.2-8 2.2s-7-1.4-8-2.2c-.1-1-.5-1.9-1.1-2.7-.8-.9-2-1.4-3.2-1.4h-4.2c-1 0-2 .3-2.7 1l-16.6 13.6c-1.5 1.3-2 3.4-1.2 5.2l6.9 12.1c.7 1.5 1.5 2.7 3.2 2.7h6c.3 2.1 1.5 6.2 1.5 9.1 0 7.5-1.5 14.3-1.5 14.4-.2 1.3.2 2.5 1 3.5s2 1.5 3.3 1.5h30.3l1.3 4.4c.3 1 1.2 1.6 2.2 1.6l.6-.1 17.5-4.9c1-.3 1.7-1.2 1.6-2.3l-.3-6.6 5.6 3.6c.9.6 2.1.5 2.8-.3l13-12.7c.5-.8.6-2.2-.3-3.1zm-56.4 15.9h-18s1.3-7 1.3-14.9c0-6.1-1.4-13.6-1.4-13.6h-9.7l-6.9-12.1 16.7-13.4h4.5l-.3.1c0 3.3 4.7 6 12.4 6h1.5v47.9zm4.5 0h-1.5v-48.2l1.5-.3v48.5zm3-49.6c2.2-1.1 3.4-2.6 3.4-4.3l-.4-.1h4.5l16.6 13.4-6.4 11.1-1.7 1h-8.6s-.4 2.3-.8 5.4l-6.7 3.9v-30.4zm0 49.6v-11.6l3.4 11.6h-3.4zm9.7 5.4l-1.1-3.8 14.5-3.6.2 3.7-13.6 3.7zm16.6-15c-.7-.5-1.6-.5-2.4-.1-.7.4-1.2 1.2-1.1 2.1l.1 2.6-15.2 3.8-4.3-14.8 13.9-8h.7c1.4 0 2.2-.8 2.8-2l8.4-4.8 10.9 12-11.9 10.6-1.9-1.4zm7.7 5l-3.3-2.1 11.3-10 2.1 2.3-10.1 9.8zm-8.5-19.4c-1.7 0-3 1.3-3 3s1.3 3 3 3 3-1.3 3-3-1.3-3-3-3z"/><path fill="#fff" d="M4573.6 4666.5h24.7l19.2 1s7.8-7.6 0-14.7c-3.9-3.5-18.2-1.1-18.2-1.1l-.9-9.7h-24.7v24.5z"/><path fill-rule="evenodd" clip-rule="evenodd" fill="#4FB5D7" d="M4602.6 4660.6l-2.8-.9 6.2-9.6 2.8.9-6.2 9.6zM4596.6 4660.6l-2.8-.9 6.2-9.6 2.8.9-6.2 9.6z"/><path fill="#4FB5D7" d="M4575.7 4669.6h39.8c4.5 0 6.7-3.7 6.7-8.2 0-13-11.7-14-21-11.1v-6.8c0-4.5.8-3.7-3.7-3.7h-22.5c-4.5 0-3.7-.8-3.7 3.7v18c0 4.4-.1 8.1 4.4 8.1zm23.3-15c6.6 0 18.7-5.2 18.7 6.7 0 2.1-2.4 2.2-4.5 2.2h-36c-2.1 0-1.5-.2-1.5-2.2v-15c0-2.1.2-2.2 2.2-2.2h16.5c2.1 0 2.2.2 2.2 2.2v8.2h2.4z"/><path fill-rule="evenodd" clip-rule="evenodd" fill="#fff" d="M4566.7 4754.6v16.5c-.1 1.5 1.7 4.7 1.5 6l-7.5 8.3c-2.4 2.4-4.1 4.5-5.3 3.2l-8-8.1-2.7-2.7-12.5-8.3c-.9-.9-1.7-3-.8-3.9.9-.9 2.3-.9 3.2 0l7.7 6.3c.3-.4.5-.9.9-1.2l-11.8-10.4c-.9-.9-.9-2.3 0-3.2.9-.9 2.3-.9 3.2 0l11.8 10.4 1.1-1.1-12.9-11.5c-.9-.9-.9-2.3 0-3.2s2.3-.9 3.2 0l13.1 11.6c.5-.3 1-.5 1.5-.6l-10.3-8.8c-.9-.9-.9-2.3 0-3.2s2.3-.9 3.2 0l17 12.8v-7.5c-.3-1.2.3-2.7 1.5-3 1.1-.2 2.6.4 2.9 1.6zM4605.7 4792.1h-23.4l-8.1-16.5h23.5z"/><path fill-rule="evenodd" clip-rule="evenodd" fill="#4FB5D7" d="M4598.2 4774.1h-25.5l1.5 3h24v-3zM4598.2 4774.1h-4.5l9 18h4.5l-9-18zM4590.7 4774.1h-4.5l9 18h4.5l-9-18zM4583.2 4774.1h-4.5l9 18h4.5l-9-18zM4575.7 4774.1h-4.5l9 18h4.5l-9-18zM4607.2 4790.6h-27v3h27v-3z"/><path fill-rule="evenodd" clip-rule="evenodd" fill="#fff" d="M4554.5 4880h52.9v44.9h-52.9z"/><path fill="#A38269" d="M4130.8 4891.8c-.7 0-1.5-.4-1.9-1-.7-1.1-.4-2.5.7-3.1l37.2-24.4c1-.7 2.4-.4 3.1.7s.4 2.5-.7 3.1l-37.2 24.4c-.3.1-.8.3-1.2.3zM4205.1 4891.8c-.4 0-.8-.1-1.2-.4l-37.2-24.4c-1-.7-1.3-2.1-.7-3.1s2.1-1.3 3.1-.7l37.2 24.4c1 .7 1.3 2.1.7 3.1-.4.7-1.1 1.1-1.9 1.1zM4192.7 4928.8h-7.3c-1.2 0-2-.2-2-1.5v-24h-10.5v22.5c0 1.3-1.1 3-2.3 3h-27c-2.9 0-5.3-2.3-5.3-5.2v-39.8c0-.8 0-2 .6-2.4l27.2-17.9c.7-.5 1.7-.5 2.4 0l28.4 17.9c.7.4 1.4 1.6 1.4 2.4v40.5c.1 2.9-2.7 4.5-5.6 4.5zm-4.8-4.5h4.9c.4 0 1.1-1 1.1-1.5v-37.5l-26.5-17.2-24.5 16.9v38.5c0 .4.3.7.8.7l24.7-.2v-23c0-1.3 1-2.3 2.2-2.3h14.3c1.2 0 3 1.7 3 3v22.6zM4162.4 4915.3h-13.5c-.8 0-1.5-.7-1.5-1.5v-12c0-.8.7-1.5 1.5-1.5h13.5c.8 0 1.5.7 1.5 1.5v12c0 .8-.7 1.5-1.5 1.5zm-12-3h10.5v-9h-10.5v9zM4171 4921.1l-31.1.2c-.8 0-1.5-.7-1.5-1.5s.7-1.5 1.5-1.5l31.1-.3c.8 0 1.5.7 1.5 1.5 0 .9-.7 1.6-1.5 1.6zM4195.3 4921.3h-10.5c-.8 0-1.5-.7-1.5-1.5s.7-1.5 1.5-1.5h10.5c.8 0 1.5.7 1.5 1.5s-.6 1.5-1.5 1.5zM4167.6 4889.8c-3.7 0-6.8-3.1-6.8-6.9 0-3.8 3.8-6.6 7.1-6.6s6.4 2.8 6.4 6.6c.1 3.8-2.9 6.9-6.7 6.9zm0-10.5c-2.1 0-3.8 1.7-3.8 3.8 0 2.1 1.7 3.8 3.8 3.8 2.1 0 3.8-1.7 3.8-3.8 0-2.1-1.7-3.8-3.8-3.8zM4126.4 4922.8h-27c-.6 0-1.1-.3-1.3-.9-.3-.5-.2-1.2.1-1.7l7.2-9.5h-1.5c-.6 0-2.6 0-2.8-.2-.4-.4 1-2.3 1.3-2.8l6-7.5h-3c-.6 0-1.1-.1-1.5 0-.6.1-1.9-1.8 0-3l7.5-7.5c1-1.6 1.9-1.6 3 0l7.5 7.5c.4.3.8 1.5.8 2 0 .8-1.4 1-2.3 1h-3l7.1 8.5c.3.3.5.7.5 1.1 0 .8-.7.9-1.6.9h-3l7.3 9.5c.3.5.4 1.1.1 1.7-.3.6-.8.9-1.4.9zm-24-3h21l-6.5-9c-.3-.5-1.2-1-1-1.4.3-.5.9-1.5 1.5-1.5h3l-5.9-7.6c-.3-.5-.5-1-.1-1.4.2-.2.9 0 1.5 0h3l-6-6.3-6 6.3h3c.9-.1 1.5-.1 1.5 0 .4.4.2.9-.1 1.4l-5.9 7.6h3c.6 0 1.2 1 1.5 1.5.3.5-1.2 1-1.5 1.5l-6 8.9zM4112.9 4928.8c-.8 0-1.5-.6-1.5-1.4v-5.4c0-.8.7-1.5 1.5-1.5s1.5.7 1.5 1.5v5.4c0 .8-.7 1.4-1.5 1.4zM4199.4 4782l-2.4-7.5c-.6-1.9-2.3-3.1-4.3-3.1h-16.3v4.5h16.3l2.4 7.5h-18.7v4.5h18.7c1.4 0 2.8-.7 3.6-1.8.9-1.3 1.1-2.8.7-4.1zM4182.4 4736.9l3.7 9h-7.5l3.8-9m0-4.5c-1.8 0-3.5 1.1-4.2 2.8l-3.7 9c-.6 1.4-.4 3 .4 4.2.8 1.3 2.2 2 3.7 2h7.5c1.5 0 2.9-.8 3.7-2 .8-1.3 1-2.8.4-4.2l-3.7-9c-.7-1.7-2.3-2.8-4.1-2.8z"/><path fill-rule="evenodd" clip-rule="evenodd" fill="#A38269" d="M4144.1 4756.4h18c.8 0 1.5.7 1.5 1.5v12c0 .8-.7 1.5-1.5 1.5h-18c-.8 0-1.5-.7-1.5-1.5v-12c0-.9.7-1.5 1.5-1.5z"/><path fill="#A38269" d="M4172.6 4751.8c0-2.5-1.4-4.5-3.9-4.5h-35.1c-2.5 0-4.5 2-4.5 4.5s2 4.5 4.5 4.5v10.6h-21.6c-2.9 0-6 2.1-6 5v20.8c0 2.9 1.6 5.7 4.5 5.7h3.6s1.2-.3 1.2-.6c-.4-1-.6-2-.6-3.2 0-4.5 3.7-7.4 8.3-7.4 4.5 0 8.2 2.8 8.2 7.4 0 1.1-.2 2.1-.6 3.1.2.1-.1.6.1.6h12c.3 0 .2-.4 0-.7-1.3-1.9-2.1-4.2-2.1-6.7 0-6.5 5.1-11 11.7-11s12.3 4.5 12.3 11c0 2.4-1.1 5.5-2.4 7.4h6.6c2.9 0 3.9-2.9 4-5.7 0 .1-.2-40.7-.2-40.8zm-4.5 40.8c0 .4-.3.7-.8.7h-.7c.2-.9.3-1.8.3-2.7 0-7.8-6.7-13.3-14.5-13.3s-13.5 5.6-14 13.3c-.1 1-.2 1.8-.3 3.2h-4.5c-.5-5.3-5.1-9-10.6-9-5.4 0-10 3.3-10.5 8.5h-.7c-.4 0-.8-.3-.8-.7v-20.8c0-.4-.4-.5 0-.5h25.5c1.2 0 1.5-1.2 1.5-2.5v-14.8c0-1.2-1-2.2-2.2-2.2h32.2c.1.2.1 40.8.1 40.8zM4123.1 4789.3c-3.3 0-6 2.7-6 6s2.7 6 6 6 6-2.7 6-6-2.7-6-6-6zM4152.4 4781.8c-5.4 0-9.7 4.4-9.7 9.7s4.4 9.7 9.7 9.7 9.7-4.4 9.7-9.7-4.3-9.7-9.7-9.7zm0 15c-2.9 0-5.2-2.4-5.2-5.2 0-2.9 2.4-5.2 5.2-5.2s5.2 2.4 5.2 5.2c0 2.9-2.3 5.2-5.2 5.2z"/><path fill-rule="evenodd" clip-rule="evenodd" fill="#A38269" d="M4115.6 4754.9h3c1.7 0 3 1.3 3 3v9c0 1.7-1.3 3-3 3h-3c-1.7 0-3-1.3-3-3v-9c0-1.7 1.4-3 3-3zM4112.6 4751.9h9c1.7 0 3 1.3 3 3s-1.3 3-3 3h-9c-1.7 0-3-1.3-3-3s1.4-3 3-3zM4174.4 4520.7c1.7-1.7 4.6-1.7 6.3 0l10.5 10.5c1.7 1.7 1.7 4.6 0 6.3-1.7 1.7-4.6 1.7-6.3 0l-10.5-10.5c-1.7-1.8-1.7-4.6 0-6.3zM4171.1 4503.1l2.1-2.1-25.2-25.2-2.1 2.1 25.2 25.2zM4171.2 4515l2.1-2.1-35.6-35.6-2.1 2.1 35.6 35.6zM4165.2 4520.9l2.1-2.1-35.6-35.6-2.1 2.1 35.6 35.6zM4153.3 4520.9l2.1-2.1-25.2-25.2-2.1 2.1 25.2 25.2zM4151.7 4524.9l-2.1-2.1 25.5-25.5 2.1 2.1-25.5 25.5zM4144.2 4520.4l-2.1-2.1 28.5-28.5 2.1 2.1-28.5 28.5zM4138.2 4514.4l-2.1-2.1 28.5-28.5 2.1 2.1-28.5 28.5zM4127.7 4500.9l-2.1-2.1 25.5-25.5 2.1 2.1-25.5 25.5zM4133.7 4506.9l-2.1-2.1 25.5-25.5 2.1 2.1-25.5 25.5z"/><path fill="#A38269" d="M4146.1 4475.4c7.1 0 14.4 3.3 20.1 8.9 5 5 8.1 11.3 8.8 17.7.6 6.2-1.2 11.8-5.1 15.7-3.4 3.4-8 5.2-13.3 5.2-7.1 0-14.4-3.3-20.1-8.9-10.2-10.2-11.9-25.2-3.7-33.4 3.4-3.4 8-5.2 13.3-5.2m0-2.5c-5.7 0-11.1 1.9-15 5.9-9.2 9.2-7.5 25.7 3.7 36.9 6.4 6.4 14.4 9.7 21.9 9.7 5.7 0 11.1-1.9 15-5.9 9.2-9.2 7.5-25.7-3.7-36.9-6.4-6.4-14.4-9.7-21.9-9.7zM4158.5 4400.9v7.2l-10.1 1.1-.9-2c-.4-.9-1.3-1.5-2.3-1.5-1 0-1.9.6-2.3 1.5l-.9 2-10.1-1.1v-7.2h26.6m2.5-2.5h-31.5v12l14.2 1.5 1.6-3.8 1.6 3.8 14.2-1.5v-12h-.1z"/><path fill-rule="evenodd" clip-rule="evenodd" fill="#A38269" d="M4129.5 4395.4h31.5v1.5h-31.5v-1.5z"/><path fill="#A38269" d="M4146 4370.6l-6 3.7v-7.5l6 3.8zM4144.5 4370.6l6 3.7v-7.5l-6 3.8z"/><path fill-rule="evenodd" clip-rule="evenodd" fill="#A38269" d="M4161 4353.4s-3 13.5-3 23.6c0 9.4 3 15.4 3 15.4h-31.5s3-5.7 3-14.8c0-10.3-3-24.2-3-24.2l-2-7.9h3l2.6 10.5c3.3 2.2 8.3 4.9 12 4.9 4 0 9-2.7 12.3-4.9l2.3-10.5h3l-1.7 7.9zm-24 24.2c0 6.7-3 10.3-3 10.3h22.5s-3-4-3-10.9c0-6.6 3-16.1 3-16.1s-6.7 4.5-11.4 4.5c-4.3 0-11.1-4.5-11.1-4.5s3 9.9 3 16.7zM4121.4 4232.9h30c1.7 0 3 1.3 3 3v43.5c0 1.7-1.3 3-3 3h-30c-1.7 0-3-1.3-3-3v-43.5c0-1.6 1.3-3 3-3zm1.5 4.5h27v40.5h-27v-40.5z"/><path fill="#A38269" d="M4124.6 4264.4h-1.8c-.8 0-1.5-.8-1.4-1.6 0-.9.7-1.5 1.6-1.5 13.1.6 26.2-7.6 26.9-13.5.1-.9.9-1.5 1.7-1.3.8.1 1.4.9 1.3 1.8-1 7.4-15.3 16.1-28.3 16.1z"/><path fill-rule="evenodd" clip-rule="evenodd" fill="#A38269" d="M4143.1 4264.4c2.9 0 5.2 2.4 5.2 5.2 0 2.9-2.4 5.2-5.2 5.2s-5.2-2.4-5.2-5.2c0-2.8 2.3-5.2 5.2-5.2zm0 3c1.2 0 2.2 1 2.2 2.2 0 1.2-1 2.3-2.2 2.3s-2.2-1-2.2-2.3c0-1.2 1-2.2 2.2-2.2zM4132.6 4267.4c1.2 0 2.2 1 2.2 2.2 0 1.2-1 2.3-2.2 2.3-1.2 0-2.3-1-2.3-2.3.1-1.2 1.1-2.2 2.3-2.2zM4131.9 4213.4h9c1.7 0 3 1.3 3 3v15h-15v-15c0-1.6 1.3-3 3-3zM4158.9 4255.4h27c1.7 0 3 1.3 3 3v6h-33v-6c0-1.6 1.3-3 3-3zM4155.9 4265.9v13.5c0 1.7 1.3 3 3 3h27c1.7 0 3-1.3 3-3v-13.5h-33zm28.5 12h-24v-7.5h7.5v4.5h13.5v-4.5h3v7.5z"/><g fill-rule="evenodd" clip-rule="evenodd" fill="#A38269"><path d="M4167 4381.7c0 .6-.1 1.3-.2 1.9h7.9l.2-4.6h-7.9v2.7zM4166.9 4377h8.1l.5-11.3h-9.2c.3 3.6.5 7.7.6 11.3zM4175.9 4357.5l.1-2.6c0-1.7-1.3-3-3-3h-4.5c-1.7 0-3 1.3-3 3 0 0 .1 1 .2 2.6h10.2zM4166.2 4363.7h9.4l.2-3.9h-9.9c.1 1.1.2 2.4.3 3.9zM4180.5 4392.4l-6-5.2.1-1.6h-8.2c-.4 1.3-.8 2.3-.8 2.3-.1.9.1 1.8.8 2.5l8.2 5c1.1 1.1 5 3 6 3h1.5c1.2-1.4.8-3.8-1.6-6z"/></g><g fill-rule="evenodd" clip-rule="evenodd" fill="#A38269"><path d="M4135.9 4528.1c-.9-.9-2-1.3-3.3-1.3-1.2 0-2.4.5-3.3 1.3-1.8 1.8-1.8 4.7 0 6.5l3.5 3.5c3-1.1 5.4-3.5 6.5-6.5l-3.4-3.5zM4128 4536c-2.6-2.6-2.6-6.8 0-9.3 1.2-1.2 2.9-1.9 4.7-1.9 1.8 0 3.4.7 4.7 1.9l2.7 2.7c.1-.6.1-1.1.1-1.7 0-6.2-5-11.2-11.2-11.2s-11.2 5-11.2 11.2 5 11.2 11.2 11.2c.6 0 1.2-.1 1.8-.2l-2.8-2.7z"/></g><path fill="#A38269" d="M4194.9 4762.4l-2.1-6c-.6-1.8-2.3-3-4.2-3h-12.1v4.5h12.1l2.1 6h-14.2v4.5h14.2c1.5 0 2.8-.7 3.7-1.9.7-1.2 1-2.8.5-4.1z"/><path fill-rule="evenodd" clip-rule="evenodd" fill="#A38269" d="M4457.4 4864.1c-1.7 0-16.5 10.9-16.5 12.6v1.6c0 1.7 1.3 0 3 0l16.5-.7v-10.3c0-1.8-1.3-3.2-3-3.2zM4425.9 4864.1c1.7 0 16.5 10.3 16.5 12v1.5c0 1.7-2.8 0-4.5 0h-15c.1 0 0-1.2 0-4.5v-6c0-1.7 1.4-3 3-3zM4436.2 4881.7h10.9v42.2h-10.9zM4463 4898.6v25.3h-42.9v-25.3h-5.1v27.2c0 1.7 1.3 3 3 3h47.1c1.7 0 3-1.3 3-3v-27.2h-5.1zM4465.1 4877.6h-47.1c-1.7 0-3 1.3-3 3v13.5h18.200000000000003v-3.2h-13.3v-9h44.1v9h-14.1v3.2h18.2v-13.5c0-1.7-1.3-3-3-3z"/><path fill-rule="evenodd" clip-rule="evenodd" fill="#4FB5D7" d="M4596.7 4864.1c-1.7 0-16.5 10.9-16.5 12.6v1.6c0 1.7 1.3 0 3 0l16.5-.7v-10.3c0-1.8-1.4-3.2-3-3.2zM4565.2 4864.1c1.7 0 16.5 10.3 16.5 12v1.5c0 1.7-2.8 0-4.5 0h-15c.1 0 0-1.2 0-4.5v-6c0-1.7 1.3-3 3-3zM4575.5 4881.7h10.9v42.2h-10.9zM4602.3 4898.6v25.3h-42.9v-25.3h-5.1v27.2c0 1.7 1.3 3 3 3h47.1c1.7 0 3-1.3 3-3v-27.2h-5.1zM4604.4 4877.6h-47.1c-1.7 0-3 1.3-3 3v13.5h18.200000000000003v-3.2h-13.3v-9h44.1v9h-14.1v3.2h18.2v-13.5c0-1.7-1.4-3-3-3z"/><path fill-rule="evenodd" clip-rule="evenodd" fill="#A38269" d="M4417.8 4791.9l12.4-12.5 1.7 3.7-10.9 12-3.2-3.2zM4466.4 4790.6h-27v3h27v-3zM4457.4 4774.1h-25.5l1.5 3h24v-3zM4457.4 4774.1h-4.5l9 18h4.5l-9-18zM4449.9 4774.1h-4.5l9 18h4.5l-9-18zM4442.4 4774.1h-4.5l9 18h4.5l-9-18zM4434.9 4774.1h-4.5l9 18h4.5l-9-18zM4440.9 4793.6h27v3h-27v-3zM4449.9 4777.1h25.5l-1.5 3h-24v-3zM4469.4 4795.1h7.5v1.5h-7.5v-1.5zM4470.9 4792.1h7.5v1.5h-7.5v-1.5zM4472.4 4789.1h7.5v1.5h-7.5v-1.5zM4473.9 4786.1h7.5v1.5h-7.5v-1.5zM4475.4 4783.1h7.5v1.5h-7.5v-1.5zM4476.9 4780.1h7.5v1.5h-7.5v-1.5zM4478.4 4777.1h7.5v1.5h-7.5v-1.5zM4449.9 4777.1h4.5l-9 18h-4.5l9-18zM4457.4 4777.1h4.5l-9 18h-4.5l9-18zM4464.9 4777.1h4.5l-9 18h-4.5l9-18zM4472.4 4777.1h4.5l-9 18h-4.5l9-18zM4425.9 4754.6v16.5c-.1 1.5 1.7 4.7 1.5 6l-7.5 8.3c-2.4 2.4-4.1 4.5-5.3 3.2l-8-8.1-2.7-2.7-12.5-8.3c-.9-.9-1.7-3-.8-3.9.9-.9 2.3-.9 3.2 0l7.7 6.3c.3-.4.5-.9.9-1.2l-11.8-10.4c-.9-.9-.9-2.3 0-3.2.9-.9 2.3-.9 3.2 0l11.8 10.4 1.1-1.1-12.9-11.5c-.9-.9-.9-2.3 0-3.2s2.3-.9 3.2 0l13.1 11.6c.5-.3 1-.5 1.5-.6l-10.3-8.8c-.9-.9-.9-2.3 0-3.2s2.3-.9 3.2 0l17 12.8v-7.5c-.3-1.2.3-2.7 1.5-3 1.1-.2 2.6.4 2.9 1.6zM4425.2 4763.6h60c1.2 0 2.2 1 2.2 2.2 0 1.2-1 2.3-2.2 2.3h-60c-1.2 0-2.3-1-2.3-2.3 0-1.2 1.1-2.2 2.3-2.2z"/><path fill="#A38269" d="M4467.2 4768.1h-28.5c-2 0-6.7-.2-6.7-3.9v-17.8c0-4.6 3.7-8.3 8.2-8.3h25.5c4.5 0 8.2 3.7 8.2 8.3v17.8c0 3.3-4.7 3.9-6.7 3.9zm-27-3.1h27c1.5 0 2-.1 2.2-.2v-18.400000000000002c0-2.1-1.7-3.8-3.7-3.8h-25.5c-2.1 0-3.7 1.7-3.7 3.8v17.8c0 .5.1.6.1.6.1 0 .6.2 2.1.2h1.5zM4452.6 4754.6c-5.2 0-10.2-1.4-12.8-5.3-.7-1-.4-2.4.6-3.1 1-.7 2.4-.4 3.1.6 1.3 2 4.2 3.3 9.1 3.3 4.9 0 8.3-1.3 9.2-2.6.7-1 2.1-1.3 3.1-.6 1 .7 1.3 2.1.6 3.1-2.8 4.3-10.5 4.6-12.9 4.6z"/><path fill-rule="evenodd" clip-rule="evenodd" fill="#A38269" d="M4461.8 4660.6l-2.8-.9 6.2-9.6 2.8.9-6.2 9.6zM4455.8 4660.6l-2.8-.9 6.2-9.6 2.8.9-6.2 9.6z"/><path fill="#A38269" d="M4434.9 4669.6h39.8c4.5 0 6.7-3.7 6.7-8.2 0-13-11.7-14-21-11.1v-6.8c0-4.5.8-3.7-3.7-3.7h-22.5c-4.5 0-3.7-.8-3.7 3.7v18c0 4.4-.1 8.1 4.4 8.1zm23.3-15c6.6 0 18.7-5.2 18.7 6.7 0 2.1-2.4 2.2-4.5 2.2h-36c-2.1 0-1.5-.2-1.5-2.2v-15c0-2.1.2-2.2 2.2-2.2h16.5c2.1 0 2.2.2 2.2 2.2v8.2h2.4z"/><path fill-rule="evenodd" clip-rule="evenodd" fill="#A38269" d="M4416.9 4614.1c2.5 0 4.5 2 4.5 4.5s-2 4.5-4.5 4.5-4.5-2-4.5-4.5 2.1-4.5 4.5-4.5zM4425.9 4612.6h6v4.5h-6v-4.5zM4434.9 4612.6h6v4.5h-6v-4.5zM4443.9 4612.6h6v4.5h-6v-4.5z"/><path fill="#A38269" d="M4447.7 4654.6h-39c-4.5 0-6.7-3.7-6.7-8.2 0-13 11-16.3 21-17.2v-20.3c0-4.5-.8-3.7 3.8-3.7h22.5c4.5 0 3.7-.8 3.7 3.7v37.5c-.1 4.5-.8 8.2-5.3 8.2zm-22.5-21c-6.6 0-18.7.9-18.7 12.7 0 2.1 2.4 3.7 4.5 3.7h36c2.1 0 1.5-1.7 1.5-3.7v-34.5c0-2.1-.2-2.3-2.3-2.3h-16.5c-2.1 0-2.3.2-2.3 2.3v21.7h-2.2z"/><path fill-rule="evenodd" clip-rule="evenodd" fill="#A38269" d="M4442.9 4531.9h30v3h-30v-3zM4448.9 4527.4h18v4.5h-18v-4.5zM4435.3 4487.9h43.8v30.9h-43.8v-30.9zm3.9 3.9h36.1v23.1h-36.1v-23.1zM4412.9 4512.4c.8 0 1.5.7 1.5 1.5v1.5c0 .8-.7 1.5-1.5 1.5s-1.5-.7-1.5-1.5v-1.5c0-.9.7-1.5 1.5-1.5zM4412.9 4506.4c.8 0 1.5.7 1.5 1.5s-.7 1.5-1.5 1.5-1.5-.7-1.5-1.5c0-.9.7-1.5 1.5-1.5zM4399.4 4495.9h18c.8 0 1.5.7 1.5 1.5s-.7 1.5-1.5 1.5h-18c-.8 0-1.5-.7-1.5-1.5 0-.9.7-1.5 1.5-1.5z"/><path clip-rule="evenodd" stroke="#A38269" stroke-width="4" stroke-miterlimit="10" d="M4398.1 4480.9h21.1c1.7 0 3-.2 3 1.5v49.5c0 1.7-1.3 3-3 3h-21.1c-1.7 0-3-1.3-3-3v-48c0-1.7 1.3-3 3-3z" fill="none"/><path fill="#A38269" d="M4483.2 4527.9h-52.1c-2.8 0-5-2.2-5-5v-39c0-2.8 2.2-5 5-5h52.1c2.8 0 5 2.2 5 5v39c0 2.7-2.3 5-5 5zm-52.1-45c-.6 0-1 .4-1 1v39c0 .6.4 1 1 1h52.1c.6 0 1-.4 1-1v-39c0-.6-.4-1-1-1h-52.1z"/><path fill-rule="evenodd" clip-rule="evenodd" fill="#A38269" d="M4441.7 4384.6s-13.1-8.2-6.4-12.5c3.8-2.5 6.3 2.2 6.3 2.2s2.5-4.7 6.3-2.2c6.8 4.4-6.2 12.5-6.2 12.5"/><path fill-rule="evenodd" clip-rule="evenodd" fill="#A38269" d="M4460.4 4405.6l-18 3h-1.5l-18-3v-4.5l18.7 2.9 18.7-2.9v4.5z"/><path fill="#A38269" d="M4445.8 4357.1l.3 2.1c.4 3.7 1.3 11.3 9.7 11.3.7 0 1.4-.1 2.1-.2v5.2c0 4.4-4.5 12.5-15.5 12.5h-1.5c-11 0-15.5-8.1-15.5-12.5v-5.1c.6.1 1.2.1 1.8.1 7.8 0 9-7.5 9.6-11 .1-.8.3-1.8.5-2.5h8.5m1.1-3.9h-10.5c-5.6 0-1.1 13.5-9.2 13.5-1.5 0-3.4-.4-5.8-1.5v10.5c0 6.6 6.4 16.5 19.5 16.5h1.5c13 0 19.5-9.9 19.5-16.5v-10.5c-2.6 1-4.6 1.4-6.1 1.4-8.7.1-3.2-13.4-8.9-13.4z"/><path fill-rule="evenodd" clip-rule="evenodd" fill="#A38269" d="M4442.4 4394.1h-1.5c-7 0-12.3-2.7-15.9-6.3l-2.1 10.3 18 3h1.5l18-3-2.1-10.3c-3.5 3.7-8.9 6.3-15.9 6.3zM4449.2 4235.1c1.7 0 3 1.3 3 3s-1.3 3-3 3-3-1.3-3-3c0-1.6 1.3-3 3-3zM4464.2 4235.1c1.7 0 3 1.3 3 3s-1.3 3-3 3-3-1.3-3-3c0-1.6 1.3-3 3-3zM4434.2 4254.6c1.7 0 3 1.3 3 3s-1.3 3-3 3-3-1.3-3-3 1.3-3 3-3zM4419.2 4254.6c1.7 0 3 1.3 3 3s-1.3 3-3 3-3-1.3-3-3 1.3-3 3-3zM4404.2 4266.6h45v1.5h-45v-1.5zM4404.2 4269.6h45v1.5h-45v-1.5zM4404.2 4244.1h45.2c1.7 0 3 1.3 3 3v31.5c0 1.7-1.3 3-3 3h-45.2c-1.7 0-3-1.3-3-3v-31.5c0-1.6 1.3-3 3-3zm1.3 4.5h43v28.5h-43v-28.5zM4450.7 4234v-13.9c0-1.7 1.3-3 3-3h6c1.7 0 3 1.3 3 3v13.9h3v-13.9c0-3.3-2.7-6-6-6h-6c-3.3 0-6 2.7-6 6v13.9h3zM4420.7 4253.5v-13.8c0-1.7 1.3-3 3-3h6c1.7 0 3 1.3 3 3v13.8h3v-13.8c0-3.3-2.7-6-6-6h-6c-3.3 0-6 2.7-6 6v13.8h3zM4471.7 4224.6h-30c-1.7 0-3 1.3-3 3v14h4.5v-12.5h27v37.5h-14.9v4.5h16.4c1.7 0 3-1.3 3-3v-40.5c0-1.6-1.4-3-3-3zM4455.3 4258.7l16.8-16.8-1.1-1-15.7 15.7zM4455.3 4262.9l18.9-18.8-1.1-1.1-17.8 17.8zM4425.9 4344.1c-1.7 0-3 1.3-3 3v13.5c0 1.7 1.3 3 3 3s3-1.3 3-3v-13.5c0-1.6-1.3-3-3-3zm0 17.6c-1.1 0-2-.9-2-2s.9-2 2-2 2 .9 2 2-.8 2-2 2zM4457.4 4344.1c-1.7 0-3 1.3-3 3v13.5c0 1.7 1.3 3 3 3s3-1.3 3-3v-13.5c0-1.6-1.3-3-3-3zm0 17.6c-1.1 0-2-.9-2-2s.9-2 2-2 2 .9 2 2-.9 2-2 2z"/><path fill="#A38269" d="M4200.5 4648l-17.6-19.4c-.7-.8-1.9-1-2.8-.4l-3.3 1.9 2.9-5c.8-1.8.3-3.9-1.2-5.2l-16.6-13.6c-.8-.6-1.7-1-2.7-1h-4.1c-1.2 0-2.4.5-3.2 1.4-.7.7-1.1 1.7-1.1 2.7-1 .9-2.9 2.2-8 2.2s-7-1.4-8-2.2c-.1-1-.5-1.9-1.1-2.7-.8-.9-2-1.4-3.2-1.4h-4.2c-1 0-2 .3-2.7 1l-16.6 13.6c-1.5 1.3-2 3.4-1.2 5.2l6.9 12.1c.7 1.5 1.5 2.7 3.2 2.7h6c.3 2.1 1.5 6.2 1.5 9.1 0 7.5-1.5 14.3-1.5 14.4-.2 1.3.2 2.5 1 3.5s2 1.5 3.3 1.5h30.3l1.3 4.4c.3 1 1.2 1.6 2.2 1.6l.6-.1 17.5-4.9c1-.3 1.7-1.2 1.6-2.3l-.3-6.6 5.6 3.6c.9.6 2.1.5 2.8-.3l13-12.7c.5-.8.5-2.2-.3-3.1zm-56.4 15.9h-18s1.3-7 1.3-14.9c0-6.1-1.4-13.6-1.4-13.6h-9.7l-6.9-12.1 16.7-13.4h4.5l-.3.1c0 3.3 4.7 6 12.4 6h1.5v47.9zm4.5 0h-1.5v-48.2l1.5-.3v48.5zm3-49.6c2.2-1.1 3.4-2.6 3.4-4.3l-.4-.1h4.5l16.6 13.4-6.4 11.1-1.7 1h-8.6s-.4 2.3-.8 5.4l-6.7 3.9v-30.4zm0 49.6v-11.6l3.4 11.6h-3.4zm9.7 5.4l-1.1-3.8 14.5-3.6.2 3.7-13.6 3.7zm16.6-15c-.7-.5-1.6-.5-2.4-.1-.7.4-1.2 1.2-1.1 2.1l.1 2.6-15.2 3.8-4.3-14.8 13.9-8h.7c1.4 0 2.2-.8 2.8-2l8.4-4.8 10.9 12-11.9 10.6-1.9-1.4zm7.7 5l-3.3-2.1 11.3-10 2.1 2.3-10.1 9.8zm-8.5-19.4c-1.7 0-3 1.3-3 3s1.3 3 3 3 3-1.3 3-3-1.3-3-3-3z"/><g><path fill="#4FB5D7" d="M194.9 465.1l27.7 18.2-26.8-16.8c-.1-.2-.1-.5-.3-.7-.2-.4-.4-.6-.6-.7z"/><path fill="#fff" d="M193.2 481.2c2.1 0 3.8 1.7 3.8 3.8s-1.7 3.8-3.8 3.8c-2.1 0-3.8-1.7-3.8-3.8s1.8-3.8 3.8-3.8z"/><path fill="#4FB5D7" d="M193 464.7c-.1 0-.1 0-.2.1.1 0 .2-.1.2-.1zM194.1 465.4c-.6-.4-1.4-.5-2.1-.2l.4-.3c.1-.1.2-.1.3-.1.1 0 .1 0 .2-.1h1.2999999999999998c.1 0 .1 0 .2.1.1 0 .2.1.3.2l.1.1.6.6.3.7-1.6-1zM194.3 464.8h-.2c.1-.1.1 0 .2 0zM210.5 520.2h3v3h-3c-.8 0-1.4-.6-1.5-1.3v-.4c.1-.8.7-1.3 1.5-1.3zM193.2 488.7c2.1 0 3.8-1.7 3.8-3.8s-1.7-3.8-3.8-3.8c-2.1 0-3.8 1.7-3.8 3.8s1.8 3.8 3.8 3.8zm6.8-3.9c0 3.8-3 6.9-6.8 6.9-3.7 0-6.8-3.1-6.8-6.9 0-3.8 3.8-6.6 7.1-6.6s6.5 2.8 6.5 6.6zM213.5 520.2h-3c-.8 0-1.4.5-1.5 1.3v-16.3h-10.5v16.3h-.4c0-.8-.7-1.5-1.5-1.5h-2.6v-17c0-1.3 1-2.3 2.2-2.3h14.3c1.2 0 3 1.8 3 3v16.5zM220.9 520.2c.8 0 1.5.7 1.5 1.5s-.7 1.5-1.5 1.5h-1.5v-3h1.5zM194.1 465.4l1.6 1c.2.9-.1 1.9-.9 2.4l-1.2.8-1.2-.8c-1-.7-1.3-2.1-.6-3.1l.4-.5c.6-.3 1.3-.2 1.9.2z"/><path fill="#fff" d="M219.5 520.2h-6v-16.5c0-1.3-1.8-3-3-3h-14.3c-1.2 0-2.2 1-2.2 2.3v17l-25.5.2v-33.3l23.6-16.3.9-.6 26.5 17.1v33.1zm-31.5-18.1h-13.5c-.8 0-1.5.7-1.5 1.5v12c0 .8.7 1.5 1.5 1.5h13.5c.8 0 1.5-.7 1.5-1.5v-12c0-.8-.7-1.5-1.5-1.5zm12-17.3c0-3.8-3.1-6.6-6.4-6.6s-7.1 2.8-7.1 6.6 3 6.9 6.8 6.9c3.7 0 6.7-3.1 6.7-6.9z"/><path fill="#4FB5D7" d="M192.3 465l.2-.1-.4.3-.2.1.4-.3zM194.5 464.9l-.2-.1s.1 0 .2.1zM172.3 478.1l-7.8 5.1 7.8-5.1zM224 485.7v4l-30.4-20 1.2-.8c.8-.5 1.2-1.5.9-2.4l26.8 16.8c.7.4 1.5 1.6 1.5 2.4zM194.1 464.7h-.2.2zM174.5 502.1h13.5c.8 0 1.5.7 1.5 1.5v12c0 .8-.7 1.5-1.5 1.5h-13.5c-.8 0-1.5-.7-1.5-1.5v-12c0-.8.6-1.5 1.5-1.5zm12 3h-10.5v9h10.5v-9zM155.2 489.4l9.4-6.1c-.6.4-.6 1.6-.6 2.4v3.4l-6.3 4.1c-.4.3-.8.4-1.2.4-.7 0-1.4-.4-1.9-1-.8-1.1-.5-2.5.6-3.2zM194 523l-25.5.1v-3l25.5-.2zM192.3 468.8l1.2.8-.5.4-.9.6-28.1 18.5v-3.4c0-.8 0-2 .6-2.4l7.8-5.1 19.6-12.9s.1-.1.2-.1c-.2.1-.3.3-.4.5-.8 1-.5 2.4.5 3.1z"/><path fill="#fff" d="M219.5 524.7c0 .4-.7 1.5-1.1 1.5h-4.9v-3h6v1.5zM176 505.1h10.5v9h-10.5z"/><path fill="#4FB5D7" d="M213.5 520.2h6v3h-6zM193 470l-.9.6.9-.6zM196.6 519.9c.8 0 1.5.7 1.5 1.5s-.7 1.5-1.5 1.5h-2.6v-3h2.6zM164 489.1l28.1-18.5-23.6 16.3v33.3h-3c-.9 0-1.5.7-1.5 1.5v-32.6zM193.6 469.6l30.4 20v32h-1.5c0-.8-.7-1.5-1.5-1.5h-1.5v-33l-26.5-17.1.6-.4zM191.9 465.3l-19.6 12.9 19.4-12.7.2-.2zM222.5 521.6h1.5v4.5c0 2.9-2.7 4.5-5.6 4.5h-7.4c-1.2 0-2-.3-2-1.5v-7.3c.1.7.7 1.3 1.5 1.3h3v3h4.9c.4 0 1.1-1 1.1-1.5v-1.5h1.5c.8 0 1.5-.6 1.5-1.5zM209 521.4v.4-.2-.2zM198.5 521.4v6.2c0 1.3-1.1 3-2.3 3h-27c-2.9 0-5.3-2.3-5.3-5.2v-3.8c0 .8.7 1.5 1.5 1.5h3v2.3c0 .4.3.8.8.8l24.8-.2v-3h2.6c.8 0 1.5-.7 1.5-1.5h.4zM193.3 464.7h-.3.3zM229.5 493.2l-5.5-3.6v-4c0-.8-.8-2-1.4-2.4l9.4 6.2c1.1.7 1.3 2.1.7 3.1-.4.7-1.1 1-1.9 1-.5.1-.9 0-1.3-.3zM168.5 523.1h-3c-.9 0-1.5-.7-1.5-1.5s.7-1.5 1.5-1.5h3v3z"/><path fill="#fff" d="M168.5 523.1l25.5-.1v3l-24.7.2c-.4 0-.8-.3-.8-.8v-2.3z"/><path fill="#4FB5D7" d="M159.2 522.1c.3.5.4 1.1.1 1.7-.3.5-.8.9-1.3.9h-12v-.8c0-.8-.7-1.5-1.5-1.5v-.7h10.5l-6.5-9c-.3-.5-1.2-1-1-1.5.3-.5.9-1.5 1.5-1.5h3l-5.9-7.6c-.3-.5-.5-1-.1-1.4.2-.2.9 0 1.5 0h3v1.5h-1.5l7.1 8.5c.3.3.5.7.5 1.1 0 .8-.7.9-1.6.9h-3l7.2 9.4z"/><path fill="#fff" d="M148.4 512.6l6.5 9h-20.9l6-9c.3-.5 1.8-1 1.5-1.5-.3-.5-.9-1.5-1.5-1.5h-3l5.9-7.6c.3-.5.4-1 .1-1.4-.1-.1-.7-.1-1.5 0h-3l6-6.3 6 6.3h-3c-.6 0-1.3-.2-1.5 0-.4.4-.2.9.1 1.4l5.9 7.6h-3c-.6 0-1.2 1-1.5 1.5-.3.6.6 1 .9 1.5z"/><path fill="#4FB5D7" d="M153.5 499.2c.3.3.8 1.5.8 2 0 .8-1.4 1-2.3 1h-1.5v-1.5l-6-6.3-6 6.3h1.4v1.5h-2.9c-.6 0-1.1-.1-1.5 0-.6.1-1.9-1.8 0-3l7.5-7.5c1-1.6 1.9-1.6 3 0l7.5 7.5zM146 524.7v4.6c0 .8-.7 1.4-1.5 1.4s-1.5-.6-1.5-1.4v-4.6h3zM146 523.8v.8h-3v-.8c0-.8.7-1.5 1.5-1.5s1.5.7 1.5 1.5zM144.5 521.7v.7c-.8 0-1.5.7-1.5 1.5v.8h-12c-.6 0-1.1-.3-1.3-.9-.3-.5-.2-1.2.1-1.7l7.2-9.5h-1.5c-.6 0-2.6 0-2.8-.2-.4-.4 1-2.3 1.3-2.8l6-7.5h-.1v-1.5h1.6c.8-.1 1.4-.1 1.5 0 .4.4.2.9-.1 1.4l-5.9 7.6h3c.6 0 1.2 1 1.5 1.5.3.5-1.2 1-1.5 1.5l-6 9h10.5z"/></g><g fill="#A38269"><path d="M26.9 493.6c-.7 0-1.5-.4-1.9-1-.7-1.1-.4-2.5.7-3.1l37.2-24.5c1-.7 2.4-.4 3.1.7.7 1.1.4 2.5-.7 3.1l-37.2 24.4c-.3.3-.7.4-1.2.4zM101.2 493.6c-.4 0-.8-.1-1.2-.4l-37.2-24.4c-1-.7-1.3-2.1-.7-3.1.7-1.1 2.1-1.3 3.1-.7l37.2 24.4c1 .7 1.3 2.1.7 3.1-.4.7-1.1 1.1-1.9 1.1zM88.9 530.7h-7.3c-1.2 0-2-.2-2-1.5v-24h-10.6v22.5c0 1.3-1.1 3-2.3 3h-27c-2.9 0-5.3-2.3-5.3-5.2v-39.8c0-.8 0-2 .6-2.4l27.2-17.9c.7-.5 1.7-.5 2.4 0l28.4 17.8c.7.4 1.4 1.6 1.4 2.4v40.5c.1 3-2.7 4.6-5.5 4.6zm-4.9-4.5h4.9c.4 0 1.1-1 1.1-1.5v-37.5l-26.5-17.2-24.5 16.9v38.5c0 .4.3.7.8.7l24.7-.2v-23c0-1.3 1-2.3 2.2-2.3h14.3c1.2 0 3 1.7 3 3v22.6zM58.5 517.1h-13.5c-.8 0-1.5-.7-1.5-1.5v-12c0-.8.7-1.5 1.5-1.5h13.5c.8 0 1.5.7 1.5 1.5v12c0 .9-.7 1.5-1.5 1.5zm-12-3h10.5v-9h-10.5v9zM67.1 523l-31.1.1c-.8 0-1.5-.7-1.5-1.5s.7-1.5 1.5-1.5l31.1-.3c.8 0 1.5.7 1.5 1.5 0 1-.7 1.7-1.5 1.7zM91.5 523.1h-10.5c-.8 0-1.5-.7-1.5-1.5s.7-1.5 1.5-1.5h10.5c.8 0 1.5.7 1.5 1.5 0 .9-.7 1.5-1.5 1.5zM63.8 491.7c-3.7 0-6.8-3.1-6.8-6.9 0-3.8 3.8-6.6 7.1-6.6s6.4 2.8 6.4 6.6-3 6.9-6.7 6.9zm0-10.5c-2.1 0-3.8 1.7-3.8 3.8 0 2.1 1.7 3.8 3.8 3.8 2.1 0 3.8-1.7 3.8-3.8-.1-2.1-1.8-3.8-3.8-3.8zM28.5 524.7h-27c-.6 0-1.1-.3-1.3-.9-.3-.5-.2-1.2.1-1.7l7.2-9.5h-1.5c-.6 0-2.6 0-2.8-.2-.4-.4 1-2.3 1.3-2.8l6-7.5h-3c-.6 0-1.1-.1-1.5 0-.6.1-1.9-1.8 0-3l7.5-7.5c1-1.6 1.9-1.6 3 0l7.5 7.5c.4.3.8 1.5.8 2 0 .8-1.4 1-2.3 1h-3l7.1 8.5c.3.3.5.7.5 1.1 0 .8-.7.9-1.6.9h-3l7.3 9.5c.3.5.4 1.1.1 1.7-.3.5-.8.9-1.4.9zm-24-3h21l-6.5-9c-.3-.5-1.2-1-1-1.4.3-.5.9-1.5 1.5-1.5h3l-5.9-7.6c-.3-.5-.5-1-.1-1.4.2-.2.9 0 1.5 0h3l-6-6.3-6 6.3h3c.9-.1 1.5-.1 1.5 0 .4.4.2.9-.1 1.4l-5.9 7.6h3c.6 0 1.2 1 1.5 1.5.3.5-1.2 1-1.5 1.5l-6 8.9zM15 530.7c-.8 0-1.5-.6-1.5-1.4v-5.4c0-.8.7-1.5 1.5-1.5s1.5.7 1.5 1.5v5.4c0 .7-.7 1.4-1.5 1.4z"/></g><g fill-rule="evenodd" clip-rule="evenodd" fill="#A38269"><path d="M325.9 525.7h-42.9v-25.3h-5.1v27.2c0 1.7 1.3 3 3 3h47.1c1.7 0 3-1.3 3-3v-27.2h-5.1v25.3zM328 479.4h-4.7v-10.3c0-1.7-1.3-3.2-3-3.2-1.4 0-12.1 7.7-15.5 11.2-2.6-2.9-14.5-11.2-16-11.2-1.7 0-3 1.3-3 3v6c0 3.3.1 4.5 0 4.5h-4.9c-1.7 0-3 1.3-3 3v13.5h18.200000000000003v-3.2h-12.9v-9h15.9v42h10.9v-42h16v9h-13.2v3.2h18.2v-13.5c0-1.6-1.3-3-3-3z"/></g><path fill-rule="evenodd" clip-rule="evenodd" fill="#fff" d="M381 481.9h42.9v44.9h-42.9z"/><path fill-rule="evenodd" clip-rule="evenodd" fill="#4FB5D7" d="M397.1 483.5h10.9v42.2h-10.9z"/><g fill-rule="evenodd" clip-rule="evenodd" fill="#4FB5D7"><path d="M423.9 525.7h-42.9v-25.3h-5.1v27.2c0 1.7 1.3 3 3 3h47.1c1.7 0 3-1.3 3-3v-27.2h-5.1v25.3zM426 479.4h-4.7v-10.3c0-1.7-1.3-3.2-3-3.2-1.4 0-12.1 7.7-15.5 11.2-2.6-2.9-14.5-11.2-16-11.2-1.7 0-3 1.3-3 3v6c0 3.3.1 4.5 0 4.5h-4.9c-1.7 0-3 1.3-3 3v13.5h18.200000000000003v-3.2h-13.1v-9h42.9v9h-13.1v3.2h18.2v-13.5c0-1.6-1.3-3-3-3z"/></g><path fill="#fff" d="M204.6 405h-16.9v-11.9h13.4zM208.2 423.2h-20.5v-11.8h17.1z"/><g><path fill="#4FB5D7" d="M201.6 382.6c.6 1.4.4 3-.4 4.2-.8 1.3-2.2 2-3.7 2h-7.5c-1.5 0-2.9-.8-3.7-2-.8-1.3-1-2.8-.4-4.2l3.8-9c.7-1.7 2.3-2.8 4.2-2.8 1.8 0 3.4 1.1 4.1 2.8l3.6 9zm-4.2 1.8l-3.8-9-3.8 9h7.6z"/><path fill="#fff" d="M193.7 375.4l3.7 9h-7.5z"/></g><g><path fill="#fff" d="M179.4 390.4v40.8c0 .4-.3.7-.8.7h-.6c.2-.9.3-1.8.3-2.7 0-7.8-6.7-13.4-14.5-13.4-7.2 0-12.5 4.7-13.7 11.4-.1.6-.2 1.3-.2 1.9-.1 1-.2 1.8-.3 3.2h-4.6c-.5-5.3-5.1-9-10.6-9-5.4 0-10 3.3-10.5 8.5h-.7c-.4 0-.8-.3-.8-.7v-20.8c0-.4-.4-.5 0-.5h25.5c1.3 0 1.5-1.2 1.5-2.5v-14.8c0-1.2-1-2.2-2.3-2.2l32.3.1z"/><path fill="#4FB5D7" d="M126 433.1c0 1.1.2 2.2.6 3.2 0 .2.5.6-1.2.6h-3.6c-2.9 0-4.5-2.9-4.5-5.7v-20.8c0-2.9 3.1-5 6-5h21.7v-10.6c-2.5 0-4.5-2-4.5-4.5 0-2.4 2-4.4 4.5-4.4h35c2.5 0 3.9 2 3.9 4.4 0 .1.1 40.9.1 40.9-.1 2.7-1.1 5.7-4 5.7h-6.6c1.3-1.9 2.4-5 2.4-7.4 0-6.5-5.7-11-12.3-11-6 0-10.7 3.7-11.6 9.2l-2-.4c1.2-6.8 6.5-11.4 13.7-11.4 7.9 0 14.5 5.6 14.5 13.4 0 .9-.1 1.8-.3 2.7h.7c.4 0 .8-.3.8-.7 0 0-.1-40.6 0-40.8h-32.2c1.3 0 2.3 1 2.3 2.2v14.8c0 1.2-.3 2.5-1.5 2.5h-25.5c-.4 0 0 .1 0 .5v20.8c0 .4.3.7.8.7h.7l2.1.4v.7zM142.5 433.1c0-4.5-3.7-7.4-8.2-7.4-4.3 0-7.8 2.5-8.2 6.5l-2.1-.4c.5-5.3 5.1-8.5 10.5-8.5s10.1 3.7 10.6 9h4.5c.1-1.4.2-2.1.3-3.2 0-.7.1-1.3.2-1.9l2 .4c-.1.6-.1 1.2-.1 1.8 0 2.5.8 4.8 2.1 6.7.2.3.3.7 0 .7h-12.1l-.1-.6c.3-.9.6-2 .6-3.1z"/></g><g><path fill="#4FB5D7" d="M163.7 420.3c5.4 0 9.8 4.4 9.8 9.8s-4.4 9.7-9.8 9.7-9.8-4.4-9.8-9.7c0-5.4 4.4-9.8 9.8-9.8zm5.2 9.8c0-2.9-2.4-5.3-5.3-5.3s-5.3 2.4-5.3 5.3 2.3 5.2 5.3 5.2 5.3-2.3 5.3-5.2z"/><path fill="#fff" d="M163.7 424.8c2.9 0 5.3 2.4 5.3 5.3s-2.4 5.2-5.3 5.2-5.3-2.3-5.3-5.2c0-2.9 2.4-5.3 5.3-5.3z"/></g><path fill="#4FB5D7" d="M210.7 420.5l-2.4-7.5c-.6-1.9-2.3-3.1-4.3-3.1h-16.3v4.5h16.3l2.4 7.5h-18.7v4.5h18.7c1.4 0 2.8-.7 3.6-1.8.9-1.2 1.2-2.7.7-4.1z"/><path fill-rule="evenodd" clip-rule="evenodd" fill="#4FB5D7" d="M155.5 394.9h18c.8 0 1.5.7 1.5 1.5v12c0 .8-.7 1.5-1.5 1.5h-18c-.8 0-1.5-.7-1.5-1.5v-12c0-.9.6-1.5 1.5-1.5z"/><path fill="#4FB5D7" d="M134.5 427.9c-3.3 0-6 2.7-6 6s2.7 6 6 6 6-2.7 6-6c0-3.4-2.7-6-6-6z"/><path fill-rule="evenodd" clip-rule="evenodd" fill="#4FB5D7" d="M127 393.4h3c1.7 0 3 1.3 3 3v9c0 1.7-1.3 3-3 3h-3c-1.7 0-3-1.3-3-3v-9c0-1.7 1.3-3 3-3zM124 390.4h9c1.7 0 3 1.3 3 3s-1.3 3-3 3h-9c-1.7 0-3-1.3-3-3s1.3-3 3-3z"/><path fill="#4FB5D7" d="M206.2 400.9l-2.1-6c-.6-1.8-2.3-3-4.2-3h-12.1v4.5h12.1l2.1 6h-14.2v4.5h14.2c1.5 0 2.8-.7 3.7-1.9.8-1.2 1-2.7.5-4.1z"/><g fill="#A38269"><path d="M97.1 420.5l-2.4-7.5c-.6-1.9-2.3-3.1-4.3-3.1h-16.3v4.5h16.3l2.4 7.5h-18.7v4.5h18.7c1.4 0 2.8-.7 3.6-1.8.9-1.2 1.2-2.7.7-4.1zM80.1 375.4l3.7 9h-7.5l3.8-9m0-4.5c-1.8 0-3.5 1.1-4.2 2.8l-3.7 9c-.6 1.4-.4 3 .4 4.2.8 1.2 2.2 2 3.7 2h7.5c1.5 0 2.9-.8 3.7-2 .8-1.3 1-2.8.4-4.2l-3.7-9c-.6-1.7-2.3-2.8-4.1-2.8z"/><path fill-rule="evenodd" clip-rule="evenodd" d="M41.9 394.9h18c.8 0 1.5.7 1.5 1.5v12c0 .8-.7 1.5-1.5 1.5h-18c-.8 0-1.5-.7-1.5-1.5v-12c0-.9.6-1.5 1.5-1.5z"/><path d="M70.4 390.4c0-2.5-1.4-4.5-3.9-4.5h-35.1c-2.5 0-4.5 2-4.5 4.5s2 4.5 4.5 4.5v10.6h-21.6c-2.9 0-6 2.1-6 5v20.8c0 2.9 1.6 5.7 4.5 5.7h3.6s1.2-.3 1.2-.6c-.4-1-.6-2-.6-3.2 0-4.5 3.7-7.4 8.3-7.4 4.5 0 8.2 2.8 8.2 7.4 0 1.1-.2 2.1-.6 3.1.2.1-.1.6.1.6h12c.3 0 .2-.4 0-.7-1.3-1.9-2.1-4.2-2.1-6.7 0-6.5 5.1-11 11.7-11s12.3 4.5 12.3 11c0 2.4-1.1 5.5-2.4 7.4h6.6c2.9 0 3.9-2.9 4-5.7-.1 0-.2-40.8-.2-40.8zm-4.5 40.8c0 .4-.3.7-.7.7h-.7c.2-.9.3-1.8.3-2.7 0-7.8-6.7-13.3-14.5-13.3-7.9 0-13.5 5.6-14 13.3-.1 1-.2 1.8-.3 3.2h-4.5c-.5-5.3-5.1-9-10.6-9s-10 3.3-10.5 8.5h-.8c-.4 0-.7-.3-.7-.7v-20.8c0-.4-.4-.5 0-.5h25.5c1.2 0 1.5-1.2 1.5-2.5v-14.8c0-1.2-1-2.2-2.2-2.2h32.2c-.1.2 0 40.8 0 40.8zM20.9 427.9c-3.3 0-6 2.7-6 6s2.7 6 6 6 6-2.7 6-6c0-3.4-2.7-6-6-6zM50.1 420.4c-5.4 0-9.7 4.4-9.7 9.7 0 5.4 4.4 9.7 9.7 9.7 5.4 0 9.7-4.4 9.7-9.7.1-5.4-4.3-9.7-9.7-9.7zm0 14.9c-2.9 0-5.2-2.4-5.2-5.2 0-2.9 2.4-5.2 5.2-5.2 2.9 0 5.2 2.4 5.2 5.2.1 2.9-2.3 5.2-5.2 5.2z"/><path fill-rule="evenodd" clip-rule="evenodd" d="M13.4 393.4h3c1.7 0 3 1.3 3 3v9c0 1.7-1.3 3-3 3h-3c-1.7 0-3-1.3-3-3v-9c0-1.7 1.3-3 3-3zM10.4 390.4h9c1.7 0 3 1.3 3 3s-1.3 3-3 3h-9c-1.7 0-3-1.3-3-3s1.3-3 3-3z"/><path d="M92.6 400.9l-2.1-6c-.6-1.8-2.3-3-4.2-3h-12.2v4.5h12.1l2.1 6h-14.2v4.5h14.2c1.5 0 2.8-.7 3.7-1.9.9-1.2 1.1-2.7.6-4.1z"/></g><path fill="#fff" d="M353.6 195h58.1v45h-58.1zM320.6 195h26.4v53h-26.4z"/><path fill-rule="evenodd" clip-rule="evenodd" fill="#4FB5D7" d="M368.5 246h30v3h-30v-3zM374.5 241.5h18v4.5h-18v-4.5zM360.9 202.1h43.8v30.9h-43.8v-30.9zm3.8 3.8h36.1v23.1h-36.1v-23.1zM338.5 226.5c.8 0 1.5.7 1.5 1.5v1.5c0 .8-.7 1.5-1.5 1.5s-1.5-.7-1.5-1.5v-1.5c0-.8.7-1.5 1.5-1.5zM338.5 220.5c.8 0 1.5.7 1.5 1.5s-.7 1.5-1.5 1.5-1.5-.7-1.5-1.5.7-1.5 1.5-1.5zM325 210h18c.8 0 1.5.7 1.5 1.5s-.7 1.5-1.5 1.5h-18c-.8 0-1.5-.7-1.5-1.5s.7-1.5 1.5-1.5z"/><path clip-rule="evenodd" stroke="#4FB5D7" stroke-width="4" stroke-miterlimit="10" d="M323.6 195h21.1c1.7 0 3-.2 3 1.5v49.5c0 1.7-1.3 3-3 3h-21.1c-1.7 0-3-1.3-3-3v-48c0-1.6 1.4-3 3-3z" fill="none"/><path fill="#4FB5D7" d="M408.7 242h-52.1c-2.8 0-5-2.2-5-5v-39c0-2.8 2.2-5 5-5h52.1c2.8 0 5 2.2 5 5v39c0 2.8-2.2 5-5 5zm-52.1-45c-.6 0-1 .4-1 1v39c0 .6.4 1 1 1h52.1c.6 0 1-.4 1-1v-39c0-.6-.4-1-1-1h-52.1z"/><g fill="#A38269"><path fill-rule="evenodd" clip-rule="evenodd" d="M74.4 234.8c1.7-1.7 4.6-1.7 6.3 0l10.5 10.5c1.7 1.7 1.7 4.6 0 6.3-1.7 1.7-4.6 1.7-6.3 0l-10.5-10.5c-1.7-1.7-1.7-4.6 0-6.3zM74.7 220.8l2.1-2.1-31-31.1-2.1 2.1 31 31.1zM72.1 229.9l2.1-2.1-37.1-37-2.1 2.1 37.1 37zM66.3 235.7l2.1-2.1-37.6-37.7-2.1 2.1 37.6 37.7zM57.5 239.1l2.1-2.1-32.3-32.3-2.1 2.1 32.3 32.3zM51.7 239.1l-2.1-2.1 25.5-25.5 2.1 2.1-25.5 25.5zM44.2 234.6l-2.1-2.1 28.5-28.5 2.1 2.1-28.5 28.5zM38.1 228.9l-2.1-2.1 29-28.8 2.1 2.1-29 28.8zM27.7 215.1l-2.1-2.1 25.5-25.5 2.1 2.1-25.5 25.5zM32 223l-2.1-2.1 28.6-28.7 2.1 2.1-28.6 28.7z"/><path d="M46.1 190c7 0 14.2 3.2 19.7 8.8 4.9 4.9 8 11.1 8.7 17.4.6 6.1-1.1 11.5-4.9 15.3-3.3 3.3-7.8 5-12.9 5-7 0-14.2-3.2-19.7-8.8-10-10-11.7-24.7-3.7-32.7 3.2-3.2 7.6-5 12.8-5m0-3c-5.7 0-11.1 1.9-15 5.9-9.2 9.2-7.5 25.7 3.7 36.9 6.4 6.4 14.4 9.7 21.9 9.7 5.7 0 11.1-1.9 15-5.9 9.2-9.2 7.5-25.7-3.7-36.9-6.4-6.4-14.4-9.7-21.9-9.7z"/><g fill-rule="evenodd" clip-rule="evenodd"><path d="M35.9 242.2c-.9-.9-2-1.3-3.3-1.3-1.2 0-2.4.5-3.3 1.3-1.8 1.8-1.8 4.7 0 6.5l3.5 3.5c3-1.1 5.4-3.5 6.5-6.5l-3.4-3.5zM28 250.1c-2.6-2.6-2.6-6.8 0-9.3 1.2-1.2 2.9-1.9 4.7-1.9 1.8 0 3.4.7 4.7 1.9l2.7 2.7c.1-.6.1-1.1.1-1.7 0-6.2-5-11.2-11.2-11.2-6.2 0-11.2 5-11.2 11.2 0 6.2 5 11.2 11.2 11.2.6 0 1.2-.1 1.8-.2l-2.8-2.7z"/></g></g><path fill-rule="evenodd" clip-rule="evenodd" fill="#A38269" d="M255.4 246h30v3h-30v-3zM261.4 241.5h18v4.5h-18v-4.5zM247.8 202.1h43.8v30.9h-43.8v-30.9zm3.8 3.8h36.1v23.1h-36.1v-23.1zM225.4 226.5c.8 0 1.5.7 1.5 1.5v1.5c0 .8-.7 1.5-1.5 1.5s-1.5-.7-1.5-1.5v-1.5c0-.8.7-1.5 1.5-1.5zM225.4 220.5c.8 0 1.5.7 1.5 1.5s-.7 1.5-1.5 1.5-1.5-.7-1.5-1.5.7-1.5 1.5-1.5zM211.9 210h18c.8 0 1.5.7 1.5 1.5s-.7 1.5-1.5 1.5h-18c-.8 0-1.5-.7-1.5-1.5s.7-1.5 1.5-1.5z"/><path clip-rule="evenodd" stroke="#A38269" stroke-width="4" stroke-miterlimit="10" d="M210.6 195h21.1c1.7 0 3-.2 3 1.5v49.5c0 1.7-1.3 3-3 3h-21.1c-1.7 0-3-1.3-3-3v-48c0-1.6 1.3-3 3-3z" fill="none"/><path fill="#A38269" d="M295.6 242h-52.1c-2.8 0-5-2.2-5-5v-39c0-2.8 2.2-5 5-5h52.1c2.8 0 5 2.2 5 5v39c0 2.8-2.2 5-5 5zm-52-45c-.6 0-1 .4-1 1v39c0 .6.4 1 1 1h52.1c.6 0 1-.4 1-1v-39c0-.6-.4-1-1-1h-52.1z"/><path fill-rule="evenodd" clip-rule="evenodd" fill="#fff" d="M148 54.4h29.7v11.4h-29.7zM110.9 21.6h31.1v44.3h-31.1z"/><path fill-rule="evenodd" clip-rule="evenodd" fill="#4FB5D7" d="M111.9 19.5h30c1.7 0 3 1.3 3 3v43.5c0 1.7-1.3 3-3 3h-30c-1.7 0-3-1.3-3-3v-43.5c0-1.7 1.3-3 3-3zm1.5 4.5h27v40.5h-27v-40.5z"/><path fill="#4FB5D7" d="M115.1 51h-1.8c-.8 0-1.5-.8-1.4-1.6 0-.9.7-1.5 1.6-1.5 13.1.6 26.2-7.6 26.9-13.5.1-.9.9-1.5 1.7-1.3.8.1 1.4.9 1.3 1.8-1 7.3-15.4 16.1-28.3 16.1z"/><path fill-rule="evenodd" clip-rule="evenodd" fill="#4FB5D7" d="M133.6 51c2.9 0 5.2 2.4 5.2 5.2s-2.4 5.2-5.2 5.2c-2.9 0-5.2-2.4-5.2-5.2s2.3-5.2 5.2-5.2zm0 3c1.2 0 2.2 1 2.2 2.2 0 1.2-1 2.2-2.2 2.2-1.2 0-2.2-1-2.2-2.2 0-1.2 1-2.2 2.2-2.2zM123.1 54c1.2 0 2.2 1 2.2 2.2 0 1.2-1 2.2-2.2 2.2-1.2 0-2.2-1-2.2-2.2 0-1.2 1-2.2 2.2-2.2zM122.4 0h9c1.7 0 3 1.3 3 3v15h-15v-15c0-1.7 1.3-3 3-3zM149.4 42h27c1.7 0 3 1.3 3 3v6h-33v-6c0-1.7 1.3-3 3-3zM146.4 52.5v13.5c0 1.7 1.3 3 3 3h27c1.7 0 3-1.3 3-3v-13.5h-33zm28.5 12h-24v-7.5h7.5v4.5h13.5v-4.5h3v7.5z"/><path fill="#fff" d="M330.4 15.1h33.4v44h-33.4zM295.9 34.6h46.8v32.1h-46.8z"/><path fill-rule="evenodd" clip-rule="evenodd" fill="#4FB5D7" d="M340.8 23.1c1.7 0 3 1.3 3 3s-1.3 3-3 3-3-1.3-3-3c.1-1.6 1.4-3 3-3zM355.8 23.1c1.7 0 3 1.3 3 3s-1.3 3-3 3-3-1.3-3-3c0-1.6 1.4-3 3-3zM325.9 42.6c1.7 0 3 1.3 3 3s-1.3 3-3 3-3-1.3-3-3 1.3-3 3-3zM310.9 42.6c1.7 0 3 1.3 3 3s-1.3 3-3 3-3-1.3-3-3 1.3-3 3-3zM295.9 54.6h45v1.5h-45v-1.5zM295.9 57.6h45v1.5h-45v-1.5zM295.9 32.1h45.1c1.7 0 3 1.3 3 3v31.5c0 1.7-1.3 3-3 3h-45.2c-1.7 0-3-1.3-3-3v-31.5c.1-1.6 1.4-3 3.1-3zm1.3 4.5h43v28.5h-43v-28.5zM342.3 22v-13.9c0-1.7 1.3-3 3-3h6c1.7 0 3 1.3 3 3v13.9h3v-13.9c0-3.3-2.7-6-6-6h-6c-3.3 0-6 2.7-6 6v13.9h3zM312.4 41.5v-13.9c0-1.7 1.3-3 3-3h6c1.7 0 3 1.3 3 3v13.8h3v-13.8c0-3.3-2.7-6-6-6h-6c-3.3 0-6 2.7-6 6v13.8h3zM363.3 12.6h-30c-1.7 0-3 1.3-3 3v14h4.5v-12.5h27v37.5h-14.8v4.5h16.4c1.7 0 3-1.3 3-3v-40.5c-.1-1.6-1.4-3-3.1-3zM347 46.7l16.7-16.8-1-1-15.7 15.7zM347 50.9l18.8-18.8-1-1.1-17.8 17.8z"/><g fill="#A38269"><path fill-rule="evenodd" clip-rule="evenodd" d="M21.4 20.9h30c1.7 0 3 1.3 3 3v43.5c0 1.7-1.3 3-3 3h-30c-1.7 0-3-1.3-3-3v-43.5c0-1.6 1.3-3 3-3zm1.5 4.5h27v40.5h-27v-40.5z"/><path d="M24.6 52.4h-1.8c-.8 0-1.5-.8-1.4-1.6 0-.9.7-1.5 1.6-1.5 13.1.6 26.2-7.6 26.9-13.5.1-.9.9-1.5 1.7-1.3.8.1 1.4.9 1.3 1.8-1 7.4-15.3 16.1-28.3 16.1z"/><path fill-rule="evenodd" clip-rule="evenodd" d="M43.1 52.4c2.9 0 5.2 2.4 5.2 5.2s-2.4 5.2-5.2 5.2c-2.9 0-5.2-2.4-5.2-5.2s2.3-5.2 5.2-5.2zm0 3c1.2 0 2.2 1 2.2 2.2 0 1.2-1 2.2-2.2 2.2-1.2 0-2.2-1-2.2-2.2 0-1.2 1-2.2 2.2-2.2zM32.6 55.4c1.2 0 2.2 1 2.2 2.2 0 1.2-1 2.2-2.2 2.2-1.2 0-2.2-1-2.2-2.2 0-1.2 1-2.2 2.2-2.2zM31.9 1.4h9c1.7 0 3 1.3 3 3v15h-15v-15c0-1.6 1.3-3 3-3zM58.9 43.4h27c1.7 0 3 1.3 3 3v6h-33v-6c0-1.6 1.3-3 3-3zM55.9 53.9v13.5c0 1.7 1.3 3 3 3h27c1.7 0 3-1.3 3-3v-13.5h-33zm28.5 12h-24v-7.5h7.5v4.5h13.5v-4.5h3v7.5z"/></g><g fill-rule="evenodd" clip-rule="evenodd" fill="#A38269"><path d="M247.4 23.1c1.7 0 3 1.3 3 3s-1.3 3-3 3-3-1.3-3-3c0-1.6 1.3-3 3-3zM262.4 23.1c1.7 0 3 1.3 3 3s-1.3 3-3 3-3-1.3-3-3c0-1.6 1.3-3 3-3zM232.4 42.6c1.7 0 3 1.3 3 3s-1.3 3-3 3-3-1.3-3-3 1.3-3 3-3zM217.4 42.6c1.7 0 3 1.3 3 3s-1.3 3-3 3-3-1.3-3-3 1.3-3 3-3zM202.4 54.6h45v1.5h-45v-1.5zM202.4 57.6h45v1.5h-45v-1.5zM202.4 32.1h45.2c1.7 0 3 1.3 3 3v31.5c0 1.7-1.3 3-3 3h-45.2c-1.7 0-3-1.3-3-3v-31.5c0-1.6 1.3-3 3-3zm1.3 4.5h43v28.5h-43v-28.5zM248.9 22v-13.9c0-1.7 1.3-3 3-3h6c1.7 0 3 1.3 3 3v13.9h3v-13.9c0-3.3-2.7-6-6-6h-6c-3.3 0-6 2.7-6 6v13.9h3zM218.9 41.5v-13.9c0-1.7 1.3-3 3-3h6c1.7 0 3 1.3 3 3v13.8h3v-13.8c0-3.3-2.7-6-6-6h-6c-3.3 0-6 2.7-6 6v13.8h3zM269.9 12.6h-30c-1.7 0-3 1.3-3 3v14h4.5v-12.5h27v37.5h-14.9v4.5h16.4c1.7 0 3-1.3 3-3v-40.5c0-1.6-1.4-3-3-3zM253.5 46.7l16.7-16.8-1-1-15.7 15.7zM253.5 50.9l18.9-18.8-1.1-1.1-17.8 17.8z"/></g><g><path fill="#4FB5D7" d="M340.9 115.8v10.5c0 6.6-6.5 16.5-19.5 16.5h-1.5c-13.1 0-19.5-9.9-19.5-16.5v-10.5c2.5 1 4.4 1.5 5.8 1.5 8.1 0 3.6-13.5 9.2-13.5h10.5c5.6 0 .2 13.4 8.9 13.4 1.5.1 3.5-.3 6.1-1.4zm-4 10.5v-5.2c-.8.1-1.5.2-2.1.2-8.4 0-9.2-7.7-9.7-11.3l-.3-2.1h-8.5c-.2.7-.4 1.7-.5 2.5-.6 3.6-1.8 11-9.6 11l-1.8-.1v5.1c0 4.3 4.5 12.5 15.5 12.5h1.5c10.9-.1 15.5-8.2 15.5-12.6z"/><path fill="#fff" d="M336.9 121.1v5.2c0 4.3-4.5 12.5-15.5 12.5h-1.5c-11 0-15.5-8.1-15.5-12.5v-5.1c.6.1 1.2.1 1.8.1 7.8 0 9-7.5 9.6-11 .1-.8.3-1.8.5-2.5h8.5l.3 2.1c.4 3.7 1.3 11.3 9.7 11.3.6.1 1.3 0 2.1-.1z"/></g><path fill-rule="evenodd" clip-rule="evenodd" fill="#4FB5D7" d="M304.9 94.8c1.7 0 3 1.3 3 3v13.5c0 1.7-1.3 3-3 3s-3-1.3-3-3v-13.5c0-1.6 1.3-3 3-3zM336.4 94.8c1.7 0 3 1.3 3 3v13.5c0 1.7-1.3 3-3 3s-3-1.3-3-3v-13.5c0-1.6 1.3-3 3-3zM320.7 135.3s-13.1-8.2-6.4-12.5c3.8-2.5 6.3 2.2 6.3 2.2s2.5-4.7 6.3-2.2c6.7 4.4-6.2 12.5-6.2 12.5"/><path fill-rule="evenodd" clip-rule="evenodd" fill="#4FB5D7" d="M339.4 156.3l-18 3h-1.5l-18-3v-4.5l18.7 2.9 18.7-2.9v4.5zM321.4 144.8h-1.5c-7 0-12.3-2.7-15.9-6.3l-2.1 10.3 18 3h1.5l18-3-2.1-10.3c-3.6 3.7-8.9 6.3-15.9 6.3z"/><circle fill-rule="evenodd" clip-rule="evenodd" fill="#fff" cx="304.9" cy="110.4" r="2"/><circle fill-rule="evenodd" clip-rule="evenodd" fill="#fff" cx="336.4" cy="110.4" r="2"/><path fill-rule="evenodd" clip-rule="evenodd" fill="#fff" d="M178.7 149.1h-1.5c-1 0-4.9-1.9-6-3l-8.2-5c-.7-.7-.9-1.6-.8-2.5 0 0 1.5-3.4 1.5-6.2 0-9.1-1.5-26.8-1.5-26.8 0-1.7 1.3-3 3-3h4.5c1.7 0 3 1.3 3 3l-1.5 32.3 6 5.2c2.4 2.1 2.8 4.6 1.5 6z"/><g><path fill="#fff" d="M155.2 151.6v7.3l-10.1 1.1-.9-2c-.4-.9-1.3-1.5-2.3-1.5-1 0-1.9.6-2.3 1.5l-.9 2-10.1-1.1v-7.3h26.6z"/><path fill="#4FB5D7" d="M157.7 161.1l-14.2 1.5-1.6-3.8-1.6 3.8-14.2-1.5v-12h31.5v12zm-12.6-1.2l10.1-1.1v-7.3h-26.5v7.3l10.1 1.1.9-2c.4-.9 1.3-1.5 2.3-1.5 1 0 1.9.6 2.3 1.5l.8 2z"/></g><path fill-rule="evenodd" clip-rule="evenodd" fill="#4FB5D7" d="M126.2 146.1h31.5v1.5h-31.5v-1.5z"/><g><path fill="#4FB5D7" d="M159.4 96.2l-1.7 7.9-2.9-.6 1.6-7.3zM157.7 143.1h-31.5s1-1.8 1.8-5l2.7.5h22.5l-.1-.1 2.9-.1c.9 3 1.7 4.7 1.7 4.7z"/><path fill="#fff" d="M153.2 138.6h-22.5s3-3.6 3-10.3c0-6.8-3-16.7-3-16.7s6.8 4.5 11.1 4.5c4.7 0 11.4-4.5 11.4-4.5s-3 9.5-3 16.1c0 6.2 2.5 10.1 2.9 10.8.1 0 .1.1.1.1z"/><path fill="#4FB5D7" d="M154.1 106.7l.7-3.2 2.9.6s-3 13.5-3 23.6c0 4.4.7 8 1.4 10.7l-2.9.1c-.5-.7-2.9-4.5-2.9-10.8 0-6.6 3-16.1 3-16.1s-6.7 4.5-11.4 4.5c-4.3 0-11.1-4.5-11.1-4.5s3 9.9 3 16.7c0 6.7-3 10.3-3 10.3l-2.7-.5c.6-2.5 1.2-5.8 1.2-9.8 0-10.3-3-24.2-3-24.2l2.8-.7.8 3.3c3.3 2.2 8.3 4.9 12 4.9 4 0 9-2.8 12.2-4.9zM127.3 96.2l1.8 7.2-2.8.7-2-7.9z"/></g><g fill-rule="evenodd" clip-rule="evenodd" fill="#4FB5D7"><path d="M163.7 132.4c0 .6-.1 1.3-.2 1.9h7.9l.2-4.6h-7.9v2.7zM163.6 127.7h8.1l.5-11.3h-9.2c.3 3.6.5 7.7.6 11.3zM172.6 108.1l.1-2.6c0-1.7-1.3-3-3-3h-4.5c-1.7 0-3 1.3-3 3 0 0 .1 1 .2 2.6h10.2zM162.9 114.3h9.4l.2-3.9h-9.9c.1 1.2.2 2.5.3 3.9zM177.2 143.1l-6-5.2.1-1.6h-8.2c-.4 1.3-.8 2.3-.8 2.3-.1.9.1 1.8.8 2.5l8.2 5c1.1 1.1 5 3 6 3h1.5c1.2-1.4.8-3.9-1.6-6z"/></g><path fill="#4FB5D7" d="M142.7 121.3l-6 3.7v-7.5l6 3.8zM141.2 121.3l6 3.7v-7.5l-6 3.8z"/><g fill="#A38269"><path d="M59.3 152.1v6.3l-9.3 1-.7-1.7c-.5-1.1-1.6-1.8-2.8-1.8-1.2 0-2.3.7-2.8 1.8l-.7 1.7-9.3-1v-6.3h25.6m3-3h-31.5v12l14.2 1.5 1.6-3.7 1.6 3.7 14.2-1.5v-12h-.1z"/><path fill-rule="evenodd" clip-rule="evenodd" d="M30.8 146.1h31.5v1.5h-31.5v-1.5z"/><path d="M47.3 121.3l-6 3.7v-7.5l6 3.8zM45.8 121.3l6 3.7v-7.5l-6 3.8z"/><path fill-rule="evenodd" clip-rule="evenodd" d="M62.3 104.1s-3 13.5-3 23.6c0 9.4 3 15.4 3 15.4h-31.5s3-5.7 3-14.8c0-10.3-3-24.2-3-24.2l-2-7.9h3l2.6 10.5c3.3 2.2 8.3 4.9 12 4.9 4 0 9-2.7 12.3-4.9l2.3-10.5h3l-1.7 7.9zm-24 24.2c0 6.7-3 10.3-3 10.3h22.5s-3-4-3-10.9c0-6.6 3-16.1 3-16.1s-6.7 4.5-11.4 4.5c-4.3 0-11.1-4.5-11.1-4.5s3 9.9 3 16.7z"/><g fill-rule="evenodd" clip-rule="evenodd"><path d="M68.3 132.4c0 .6-.1 1.3-.2 1.9h7.9l.2-4.6h-7.9v2.7zM68.2 127.7h8.1l.5-11.3h-9.2c.3 3.6.5 7.7.6 11.3zM77.2 108.1l.1-2.6c0-1.7-1.3-3-3-3h-4.5c-1.7 0-3 1.3-3 3 0 0 .1 1 .2 2.6h10.2zM67.5 114.3h9.4l.2-3.9h-9.9c.1 1.2.2 2.5.3 3.9zM81.8 143.1l-6-5.2.1-1.6h-8.2c-.4 1.3-.8 2.3-.8 2.3-.1.9.1 1.8.8 2.5l8.2 5c1.1 1.1 5 3 6 3h1.5c1.2-1.4.8-3.9-1.6-6z"/></g></g><path fill-rule="evenodd" clip-rule="evenodd" fill="#A38269" d="M240 135.3s-13.1-8.2-6.4-12.5c3.8-2.5 6.3 2.2 6.3 2.2s2.5-4.7 6.3-2.2c6.7 4.4-6.2 12.5-6.2 12.5"/><path fill-rule="evenodd" clip-rule="evenodd" fill="#A38269" d="M258.7 156.3l-18 3h-1.5l-18-3v-4.5l18.7 2.9 18.7-2.9v4.5z"/><path fill="#A38269" d="M244.1 107.8l.3 2.1c.4 3.7 1.3 11.3 9.7 11.3.7 0 1.4-.1 2.1-.2v5.2c0 4.4-4.5 12.5-15.5 12.5h-1.5c-11 0-15.5-8.1-15.5-12.5v-5.1c.6.1 1.2.1 1.8.1 7.8 0 9-7.5 9.6-11 .1-.8.3-1.8.5-2.5h8.5m1.1-3.9h-10.5c-5.6 0-1.1 13.5-9.2 13.5-1.5 0-3.4-.4-5.8-1.5v10.5c0 6.6 6.4 16.5 19.5 16.5h1.5c13 0 19.5-9.9 19.5-16.5v-10.5c-2.6 1-4.6 1.4-6.1 1.4-8.7.1-3.3-13.4-8.9-13.4z"/><path fill-rule="evenodd" clip-rule="evenodd" fill="#A38269" d="M240.7 144.8h-1.5c-7 0-12.3-2.7-15.9-6.3l-2.1 10.3 18 3h1.5l18-3-2.1-10.3c-3.6 3.7-9 6.3-15.9 6.3zM224.2 94.8c-1.7 0-3 1.3-3 3v13.5c0 1.7 1.3 3 3 3s3-1.3 3-3v-13.5c0-1.6-1.4-3-3-3zm0 17.6c-1.1 0-2-.9-2-2s.9-2 2-2 2 .9 2 2-.9 2-2 2zM255.7 94.8c-1.7 0-3 1.3-3 3v13.5c0 1.7 1.3 3 3 3s3-1.3 3-3v-13.5c0-1.6-1.4-3-3-3zm0 17.6c-1.1 0-2-.9-2-2s.9-2 2-2 2 .9 2 2-.9 2-2 2z"/><path fill="#fff" d="M215.8 321.1l-17.6-19.4c-.4-.4-1.1-.5-1.6-.2l-6.5 3.8 4.7-8.2c.6-1.3.2-2.9-1-3.9l-16.6-13.6c-.6-.5-1.3-.8-2.1-.8h-4.1c-.9 0-1.8.4-2.5 1.1-.5.6-.8 1.3-.9 2v.4l-.3.3c-1.2 1.1-3.5 2.5-8.7 2.5-5.2 0-7.4-1.4-8.7-2.5l-.3-.3v-.4c0-.8-.4-1.5-.9-2-.6-.7-1.5-1.1-2.5-1.1h-4.2c-.8 0-1.5.3-2.1.8l-16.6 13.6c-1.2 1-1.6 2.6-.9 4l6.9 12c.8 1.7 1.3 2.2 2.3 2.2h6.9l.1.8c.1.6.3 1.5.5 2.4.5 2.1 1 4.8 1 6.8 0 6.9-1.2 13.3-1.5 14.5-.2 1 .1 2 .8 2.7.6.7 1.6 1.2 2.6 1.2h31.1l1.5 5.1c.2.6.9 1 1.5.9l17.5-4.9c.6-.2.9-.7.9-1.3l-.5-8.6 7.2 4.7c.5.3 1.2.2 1.6-.2l13-12.7c.4-.4.4-1.2 0-1.7z"/><path fill="#4FB5D7" d="M216.5 320.5l-17.6-19.4c-.7-.8-1.9-1-2.8-.4l-3.3 1.9 2.9-5c.8-1.8.3-3.9-1.2-5.2l-16.6-13.6c-.8-.6-1.7-1-2.7-1h-4.2c-1.2 0-2.4.5-3.2 1.4-.7.7-1.1 1.7-1.1 2.7-1 .9-2.9 2.2-8 2.2s-7-1.4-8-2.2c-.1-1-.5-1.9-1.1-2.7-.8-.9-2-1.4-3.2-1.4h-4.2c-1 0-2 .3-2.7 1l-16.6 13.6c-1.5 1.3-2 3.4-1.2 5.2l6.9 12.1c.7 1.5 1.5 2.7 3.2 2.7h6c.3 2.1 1.5 6.2 1.5 9.1 0 7.5-1.5 14.3-1.5 14.4-.2 1.3.2 2.5 1 3.5s2 1.5 3.3 1.5h30.3l1.3 4.4c.3 1 1.2 1.6 2.2 1.6l.6-.1 17.5-4.9c1-.3 1.7-1.2 1.6-2.3l-.3-6.6 5.6 3.6c.9.6 2.1.5 2.8-.3l13-12.7c.6-.9.6-2.2-.2-3.1zm-56.4 15.8h-18s1.3-7 1.3-14.9c0-6.1-1.4-13.6-1.4-13.6h-9.7l-6.9-12.1 16.7-13.4h4.5l-.3.1c0 3.3 4.7 6 12.4 6h1.5v47.9zm4.5 0h-1.5v-48.2l1.5-.3v48.5zm3-49.6c2.2-1.1 3.4-2.6 3.4-4.3l-.4-.1h4.5l16.6 13.4-6.4 11.1-1.7 1h-8.6s-.4 2.3-.8 5.4l-6.7 3.9v-30.4zm0 49.6v-11.6l3.4 11.6h-3.4zm9.7 5.5l-1.1-3.8 14.5-3.6.2 3.7-13.6 3.7zm16.6-15c-.7-.5-1.6-.5-2.4-.1-.7.4-1.2 1.2-1.1 2.1l.1 2.6-15.2 3.8-4.3-14.8 13.9-8h.7c1.4 0 2.2-.8 2.8-2l8.4-4.8 10.9 12-11.9 10.4-1.9-1.2zm7.7 5l-3.3-2.1 11.3-10 2.1 2.3-10.1 9.8zm-8.5-19.5c-1.7 0-3 1.3-3 3s1.3 3 3 3 3-1.3 3-3c0-1.6-1.3-3-3-3z"/><path fill="#fff" d="M384.6 324.3h-24.7l-19.2 1s-1.8-14.2 2.3-17.5c4.1-3.3 16.9-4 16.9-4v-24.3h24.7v44.8z"/><path fill-rule="evenodd" clip-rule="evenodd" fill="#4FB5D7" d="M351.6 286.6c2.5 0 4.5 2 4.5 4.5s-2 4.5-4.5 4.5-4.5-2-4.5-4.5 2-4.5 4.5-4.5zM360.6 285.1h6v4.5h-6v-4.5zM369.6 285.1h6v4.5h-6v-4.5zM378.6 285.1h6v4.5h-6v-4.5z"/><path fill="#4FB5D7" d="M382.3 327.1h-39c-4.5 0-6.7-3.7-6.7-8.2 0-13 11-16.3 21-17.2v-20.3c0-4.5-.8-3.7 3.7-3.7h22.5c4.5 0 3.7-.8 3.7 3.7v37.5c.1 4.5-.6 8.2-5.2 8.2zm-22.5-21c-6.6 0-18.7.9-18.7 12.7 0 2.1 2.4 3.7 4.5 3.7h36c2.1 0 1.5-1.7 1.5-3.7v-34.5c0-2.1-.2-2.2-2.2-2.2h-16.5c-2.1 0-2.2.2-2.2 2.2v21.7h-2.4z"/><path fill="#fff" d="M367.4 339h24.7l19.2 1s7.8-7.6 0-14.7c-3.9-3.5-18.2-1.1-18.2-1.1l-.9-9.7h-24.7v24.5z"/><path fill-rule="evenodd" clip-rule="evenodd" fill="#4FB5D7" d="M396.4 333.1l-2.8-.9 6.2-9.6 2.8.9-6.2 9.6zM390.4 333.1l-2.8-.9 6.2-9.6 2.8.9-6.2 9.6z"/><path fill="#4FB5D7" d="M369.6 342.1h39.8c4.5 0 6.7-3.7 6.7-8.2 0-13-11.7-14-21-11.1v-6.8c0-4.5.8-3.7-3.7-3.7h-22.5c-4.5 0-3.7-.8-3.7 3.7v18c-.1 4.4-.1 8.1 4.4 8.1zm23.3-15c6.6 0 18.7-5.2 18.7 6.7 0 2.1-2.4 2.2-4.5 2.2h-36c-2.1 0-1.5-.2-1.5-2.2v-15c0-2.1.2-2.2 2.2-2.2h16.5c2.1 0 2.2.2 2.2 2.2v8.2h2.4z"/><g fill="#A38269"><path fill-rule="evenodd" clip-rule="evenodd" d="M296.9 333.1l-2.8-.9 6.2-9.6 2.8.9-6.2 9.6zM290.9 333.1l-2.8-.9 6.2-9.6 2.8.9-6.2 9.6z"/><path d="M270.1 342.1h39.8c4.5 0 6.7-3.7 6.7-8.2 0-13-11.7-14-21-11.1v-6.8c0-4.5.8-3.7-3.7-3.7h-22.5c-4.5 0-3.7-.8-3.7 3.7v18c0 4.4-.1 8.1 4.4 8.1zm23.3-15c6.6 0 18.7-5.2 18.7 6.7 0 2.1-2.4 2.2-4.5 2.2h-36c-2.1 0-1.5-.2-1.5-2.2v-15c0-2.1.2-2.2 2.2-2.2h16.5c2.1 0 2.2.2 2.2 2.2v8.2h2.4z"/><path fill-rule="evenodd" clip-rule="evenodd" d="M252.1 286.6c2.5 0 4.5 2 4.5 4.5s-2 4.5-4.5 4.5-4.5-2-4.5-4.5 2-4.5 4.5-4.5zM261.1 285.1h6v4.5h-6v-4.5zM270.1 285.1h6v4.5h-6v-4.5zM279.1 285.1h6v4.5h-6v-4.5z"/><path d="M282.9 327.1h-39c-4.5 0-6.7-3.7-6.7-8.2 0-13 11-16.3 21-17.2v-20.3c0-4.5-.8-3.7 3.7-3.7h22.5c4.5 0 3.7-.8 3.7 3.7v37.5c0 4.5-.7 8.2-5.2 8.2zm-22.5-21c-6.6 0-18.7.9-18.7 12.7 0 2.1 2.4 3.7 4.5 3.7h36c2.1 0 1.5-1.7 1.5-3.7v-34.5c0-2.1-.2-2.2-2.2-2.2h-16.5c-2.1 0-2.2.2-2.2 2.2v21.7h-2.4z"/></g></g><g><path fill="#fff" d="M141.1 190.1c7 0 14.2 3.2 19.7 8.8 4.9 4.9 8 11.1 8.7 17.4.6 6.1-1.1 11.5-4.9 15.3-3.3 3.3-7.8 5-12.9 5-7 0-14.2-3.2-19.7-8.8-10-10-11.7-24.7-3.7-32.7 3.2-3.3 7.6-5 12.8-5"/><path fill-rule="evenodd" clip-rule="evenodd" fill="#A38269" d="M258.7 430.3l12.3-12.4 1.7 3.6-10.8 12-3.2-3.2zM310.1 433.5h7.5v1.5h-7.5v-1.5zM311.6 430.6h7.5v1.5h-7.5v-1.5zM313.1 427.6h7.5v1.5h-7.5v-1.5zM314.6 424.6h7.5v1.5h-7.5v-1.5zM316.1 421.6h7.5v1.5h-7.5v-1.5zM317.6 418.6h7.5v1.5h-7.5v-1.5zM319 415.6h7.5v1.5h-7.5v-1.5z"/><path fill="#A38269" d="M325.8 402.2h-11.2v-17.1c0-4.6-3.7-8.3-8.2-8.3h-25.4c-4.5 0-8.2 3.7-8.2 8.3v17.1h-6.8c-1.2 0-2.2 1-2.2 2.2 0 1.2 1 2.2 2.2 2.2h59.7c1.2 0 2.2-1 2.2-2.2.1-1.2-.9-2.2-2.1-2.2zm-48.6-17.1c0-2.1 1.7-3.8 3.7-3.8h25.4c2.1 0 3.7 1.7 3.7 3.8v17.1h-32.8v-17.1zM293.4 393.3c-5.2 0-10.2-1.4-12.8-5.3-.7-1-.4-2.4.6-3.1 1-.7 2.4-.4 3.1.6 1.3 2 4.1 3.3 9 3.3s8.3-1.3 9.1-2.6c.7-1 2.1-1.3 3.1-.6 1 .7 1.3 2.1.6 3.1-2.7 4.2-10.4 4.6-12.7 4.6z"/><path fill-rule="evenodd" clip-rule="evenodd" fill="#A38269" d="M316.1 415.6h-25.5l-8.2 16.4-1.7 3h27.8v-1.5l9-17.9h-1.4zm-4.5 3l-6.7 13.4h-3l6.7-13.4h3zm-7.5 0l-6.7 13.4h-3l6.7-13.4h3zm-10.4 0h3l-6.7 13.4h-3l6.7-13.4zM280.9 432l2.3-4.4-6-12h3l4.5 9 2.2-4.6-2.2-4.4h3l.7 1.4 2.1-4.4h-19.2z"/><path fill="#A38269" d="M254.4 426l1.1 1.1c1.3 1.3 3-.8 5.3-3.2l7.4-8.3c.1-.6-.3-1.7-.7-2.8l-13.1 13.2zM266.8 409.7v-16.4c-.3-1.2-1.8-1.8-3-1.5-1.2.3-1.8 1.8-1.5 3v7.5l-16.9-12.8c-.9-.9-2.3-.9-3.2 0-.9.9-.9 2.3 0 3.2l10.3 8.8c-.5.1-1 .4-1.5.6l-13-11.6c-.9-.9-2.3-.9-3.2 0-.9.9-.9 2.3 0 3.2l12.9 11.4-1.1 1.1-11.8-10.4c-.9-.9-2.3-.9-3.2 0-.9.9-.9 2.3 0 3.2l11.8 10.4c-.4.4-.7.8-.9 1.2l-7.6-6.3c-.9-.9-2.3-.9-3.2 0-.9.9-.1 3 .8 3.8l12.4 8.3 2.7 2.7 5.5 5.6 13.8-13.8c-.1-.5-.1-.9-.1-1.2z"/><path fill-rule="evenodd" clip-rule="evenodd" fill="#fff" d="M444.5 415.6h-7.5l-9 17.9v1.5h7.5l9-17.9zM408.4 412.6h-19.2l9.7 19.4zM394.1 379.8h35.4v24.8h-35.4z"/><path fill-rule="evenodd" clip-rule="evenodd" fill="#4FB5D7" d="M376.7 430.3l12.3-12.4 1.7 3.6-10.8 12-3.2-3.2zM428 433.5h7.5v1.5h-7.5v-1.5zM429.5 430.5h7.5v1.5h-7.5v-1.5zM431 427.5h7.5v1.5h-7.5v-1.5zM432.5 424.5h7.5v1.5h-7.5v-1.5zM434 421.5h7.5v1.5h-7.5v-1.5zM435.5 418.6h7.5v1.5h-7.5v-1.5zM437 415.6h7.5v1.5h-7.5v-1.5z"/><path fill="#4FB5D7" d="M443.7 402.1h-11.2v-17.1c0-4.6-3.7-8.3-8.2-8.3h-25.4c-4.5 0-8.2 3.7-8.2 8.3v17.1h-6.7c-1.2 0-2.2 1-2.2 2.2 0 1.2 1 2.2 2.2 2.2h59.7c1.2 0 2.2-1 2.2-2.2 0-1.2-1-2.2-2.2-2.2zm-48.5-17.1c0-2.1 1.7-3.8 3.7-3.8h25.4c2.1 0 3.7 1.7 3.7 3.8v17.1h-32.8v-17.1zM411.3 393.2c-5.2 0-10.2-1.4-12.8-5.3-.7-1-.4-2.4.6-3.1 1-.7 2.4-.4 3.1.6 1.3 2 4.1 3.3 9 3.3s8.3-1.3 9.1-2.6c.7-1 2.1-1.3 3.1-.6 1 .7 1.3 2.1.6 3.1-2.7 4.3-10.4 4.6-12.7 4.6z"/><path fill-rule="evenodd" clip-rule="evenodd" fill="#4FB5D7" d="M398.9 432l2.3-4.4-6-12h3l4.5 8.9 2.2-4.5-2.2-4.4h2.9l.7 1.3 2.1-4.3h-19.2z"/><path fill="#fff" d="M372.4 426l1.1 1.1c1.3 1.3 3-.8 5.3-3.2l7.4-8.3c.1-.6-.3-1.7-.7-2.8l-13.1 13.2zM384.7 409.6v-16.4c-.3-1.2-1.8-1.8-3-1.5-1.2.3-1.8 1.8-1.5 3v7.5l-16.9-12.8c-.9-.9-2.3-.9-3.2 0-.9.9-.9 2.3 0 3.2l10.3 8.8c-.5.1-1 .4-1.5.6l-13-11.6c-.9-.9-2.3-.9-3.2 0-.9.9-.9 2.3 0 3.2l12.9 11.4-1.1 1.1-11.8-10.4c-.9-.9-2.3-.9-3.2 0-.9.9-.9 2.3 0 3.2l11.8 10.4c-.4.4-.7.8-.9 1.2l-7.6-6.3c-.9-.9-2.3-.9-3.2 0-.9.9-.1 3 .8 3.8l12.4 8.3 2.7 2.7 5.5 5.6 13.8-13.8c0-.5-.1-.9-.1-1.2z"/><path fill-rule="evenodd" clip-rule="evenodd" fill="#fff" d="M434.1 416.3h-23.3l-9.7 17.5h23.3z"/><path fill-rule="evenodd" clip-rule="evenodd" fill="#4FB5D7" d="M434 415.6h-25.5l-8.2 16.4-1.7 3h27l9.8-19.4h-1.4zm-4.5 3l-6.7 13.4h-3l6.7-13.4h3zm-7.4 0l-6.7 13.4h-3l6.7-13.4h3zm-10.5 0h3l-6.7 13.4h-3l6.7-13.4z"/><g fill="#4FB5D7"><path fill-rule="evenodd" clip-rule="evenodd" d="M169.4 234.9c1.7-1.7 4.6-1.7 6.3 0l10.5 10.5c1.7 1.7 1.7 4.6 0 6.3-1.7 1.7-4.6 1.7-6.3 0l-10.5-10.5c-1.7-1.8-1.7-4.6 0-6.3zM169.7 220.8l2.1-2.1-31-31.1-2.1 2.1 31 31.1zM167.1 230l2.1-2.1-37.1-37-2.1 2.1 37.1 37zM161.3 235.7l2.1-2.1-37.6-37.7-2.1 2.1 37.6 37.7zM152.5 239.2l2.1-2.1-32.3-32.3-2.1 2.1 32.3 32.3zM146.7 239.1l-2.1-2.1 25.5-25.5 2.1 2.1-25.5 25.5zM139.2 234.6l-2.1-2.1 28.5-28.5 2.1 2.1-28.5 28.5zM133.1 228.9l-2.1-2.1 29-28.8 2.1 2.1-29 28.8zM122.7 215.1l-2.1-2.1 25.5-25.5 2.1 2.1-25.5 25.5zM127 223l-2.1-2.1 28.6-28.7 2.1 2.1-28.6 28.7z"/><path d="M141.1 190.1c7 0 14.2 3.2 19.7 8.8 4.9 4.9 8 11.1 8.7 17.4.6 6.1-1.1 11.5-4.9 15.3-3.3 3.3-7.8 5-12.9 5-7 0-14.2-3.2-19.7-8.8-10-10-11.7-24.7-3.7-32.7 3.2-3.3 7.6-5 12.8-5m0-3c-5.7 0-11.1 1.9-15 5.9-9.2 9.2-7.5 25.7 3.7 36.9 6.4 6.4 14.4 9.7 21.9 9.7 5.7 0 11.1-1.9 15-5.9 9.2-9.2 7.5-25.7-3.7-36.9-6.4-6.4-14.5-9.7-21.9-9.7z"/><g fill-rule="evenodd" clip-rule="evenodd"><path d="M130.9 242.3c-.9-.9-2-1.3-3.3-1.3-1.2 0-2.4.5-3.3 1.3-1.8 1.8-1.8 4.7 0 6.5l3.5 3.5c3-1.1 5.4-3.5 6.5-6.5l-3.4-3.5zM123 250.2c-2.6-2.6-2.6-6.8 0-9.3 1.2-1.2 2.9-1.9 4.7-1.9 1.8 0 3.4.7 4.7 1.9l2.7 2.7c.1-.6.1-1.1.1-1.7 0-6.2-5-11.2-11.2-11.2-6.2 0-11.2 5-11.2 11.2 0 6.2 5 11.2 11.2 11.2.6 0 1.2-.1 1.8-.2l-2.8-2.7z"/></g></g><path fill="#fff" d="M140.2 280.3h6.4l4.9 5h12.6l5.9-5h5.7l16.4 13 2.2 3.4-7.4 14 8.3-10.5 19.4 19-13.6 14.4-9.8-5.1.3 11.1-18.6 4.3-1.7-6.2-31 .3v-28.3l-9.1-.3-7.7-12.4z"/><path fill-rule="evenodd" clip-rule="evenodd" fill="#4FB5D7" d="M164.1 285.3h2.9v51.4h-2.9v-51.4zM159.7 285.3h2.9v51.4h-2.9v-51.4z"/><path fill="#4FB5D7" d="M174.4 282.3l16.3 13.1-6.8 11.8h-9.5s-1.4 7.2-1.4 13.3c0 7.8 1.4 14.6 1.4 14.6h-32.3s1.3-6.8 1.3-14.6c0-6-1.4-13.3-1.4-13.3h-9.5l-6.8-11.8 16.3-13.1h4.1c0 3.3 4.6 6 12.1 6s12.1-2.6 12.1-5.9l-.4-.1h4.5m0-4.4h-4c-1.2 0-2.3.5-3.1 1.4-.7.7-1 1.6-1.1 2.6-1 .8-2.9 2.2-7.8 2.2-5 0-6.9-1.3-7.8-2.2-.1-1-.4-1.9-1.1-2.6-.8-.9-1.9-1.4-3.1-1.4h-4.4c-1 0-1.9.3-2.7 1l-16.3 13.3c-1.5 1.2-2 3.3-1.2 5.1l6.8 11.8c.7 1.5 1.5 2.6 3.1 2.6h5.9c.3 2 1.5 6.1 1.5 8.9 0 7.4-1.4 14-1.4 14.1-.2 1.2.2 2.5 1 3.4.8 1 2 1.5 3.3 1.5h32.6c1.3 0 2.4-.5 3.3-1.5.8-1 1.2-2.2 1-3.4 0-.1-1.5-6.8-1.5-14.1 0-2.8 1.2-6.9 1.5-8.9h5.9c1.7 0 2.4-1.1 3.1-2.6l6.8-11.8c.8-1.8.3-3.8-1.2-5.1l-16.3-13.3c-.9-.7-1.8-1-2.8-1z"/><g fill="#4FB5D7"><path d="M180.5 313.7z"/><circle cx="192.1" cy="314.7" r="2.9"/><path d="M215 319.7l-17.2-19c-.7-.7-1.7-.9-2.6-.5l-2.5 3.1 3 1.7 10.7 11.7-11.7 10.3-1.9-1.2c-.7-.5-1.6-.5-2.3-.1-.7.4-1.1 1.2-1.1 2l.1 2.5-9.1 2.3c.1.7.2 1.3.3 1.6v.2c.1.4.1.7.1 1.1l8.8-2.2.2 3.6-17.6 4.8.7 2.3c.3 1 1.2 1.6 2.1 1.6.2 0 .4 0 .6-.1l17.1-4.8c1-.3 1.7-1.2 1.6-2.2l-.3-6.5 5.4 3.5c.9.6 2 .5 2.8-.3l12.7-12.4c.9-.8.9-2.1.1-3zm-14.6 11.1l-3.2-2.1 11.1-9.8 2 2.2-9.9 9.7z"/></g><path fill-rule="evenodd" clip-rule="evenodd" fill="#A38269" d="M47.8 285.7h2.9v51.4h-2.9v-51.4zM43.4 285.7h2.9v51.4h-2.9v-51.4z"/><path fill="#A38269" d="M58.1 282.8l16.3 13.1-6.8 11.8h-9.6s-1.4 7.2-1.4 13.3c0 7.8 1.4 14.6 1.4 14.6h-32.3s1.3-6.8 1.3-14.6c0-6-1.4-13.3-1.4-13.3h-9.5l-6.8-11.8 16.3-13.1h4.1c0 3.3 4.6 6 12.1 6s12.1-2.6 12.1-5.9l-.4-.1h4.6m-.1-4.5h-4c-1.2 0-2.3.5-3.1 1.4-.7.7-1 1.6-1.1 2.6-1 .8-2.9 2.2-7.8 2.2-5 0-6.9-1.3-7.8-2.2-.1-1-.4-1.9-1.1-2.6-.8-.9-1.9-1.4-3.1-1.4h-4.2c-1 0-1.9.3-2.7 1l-16.4 13.3c-1.5 1.2-2 3.3-1.2 5.1l6.8 11.8c.7 1.5 1.5 2.6 3.1 2.6h5.9c.3 2 1.5 6.1 1.5 8.9 0 7.4-1.4 14-1.4 14.1-.2 1.2.2 2.5 1 3.4.8 1 2 1.5 3.3 1.5h32.6c1.3 0 2.4-.5 3.3-1.5.8-1 1.2-2.2 1-3.4 0-.1-1.5-6.8-1.5-14.1 0-2.8 1.2-6.9 1.5-8.9h5.9c1.7 0 2.4-1.1 3.1-2.6l6.8-11.8c.8-1.8.3-3.8-1.2-5.1l-16.3-13.3c-.9-.6-1.9-1-2.9-1z"/><g fill="#A38269"><path d="M64.1 314.2z"/><circle cx="75.7" cy="315.1" r="2.9"/><path d="M98.6 320.1l-17.2-19c-.7-.7-1.7-.9-2.6-.5l-2.5 3.1 3 1.7 10.7 11.8-11.7 10.3-1.9-1.2c-.7-.5-1.6-.5-2.3-.1-.7.4-1.1 1.2-1.1 2l.1 2.5-9.1 2.3c.1.7.2 1.3.3 1.6v.2c.1.4.1.7.1 1.1l8.8-2.2.2 3.6-17.6 4.8.7 2.3c.3 1 1.2 1.6 2.1 1.6.2 0 .4 0 .6-.1l17.1-4.8c1-.3 1.7-1.2 1.6-2.2l-.3-6.5 5.4 3.5c.9.6 2 .5 2.8-.3l12.7-12.4c.9-.8.9-2.2.1-3.1zm-14.6 11.1l-3.2-2.1 11.1-9.8 2 2.2-9.9 9.7z"/></g></g></svg>